<?xml version="1.0" encoding="UTF-8"?>
<svg id="Calque_1" data-name="Calque 1" xmlns="http://www.w3.org/2000/svg" viewBox="0 0 1663.01 723.21">
  <defs>
    <style>
      .cls-1 {
        fill: #fff;
      }
    </style>
  </defs>
  <g id="YX7YYM">
    <polygon points="1663.01 20.34 1663.01 622.17 989.57 723.21 988.96 601.4 392.33 710.68 391.74 606.43 .12 717.14 0 109.17 395.15 0 395.65 113.52 990.23 1.57 990.76 116.26 1663.01 20.34"/>
  </g>
  <g>
    <path class="cls-1" d="M188.38,539c-13.38,0-26.27-1.53-38.68-4.58-12.42-3.05-24.35-7.92-35.81-14.61-11.46-6.68-20.83-16.42-28.08-29.22-7.26-12.79-10.89-27.79-10.89-44.98-.39-30.94,10.31-54.52,32.09-70.77,21.77-16.23,52.9-24.35,93.4-24.35h92.25v-18.34c0-16.81-6.88-29.51-20.63-38.1s-31.52-12.89-53.29-12.89c-41.64,0-65.9,13.75-72.77,41.26l-63.03,1.15c.76-30.17,14.04-54.05,39.82-71.63,25.79-17.57,57.39-26.36,94.83-26.36s70.19,9.17,97.12,27.5c26.93,18.34,40.4,42.03,40.4,71.05v210.29h-62.46v-45.84c-8.79,12.23-22.06,23.69-39.82,34.38-17.76,10.7-39.25,16.04-64.46,16.04ZM193.54,484.57c25.21,0,48.03-8.59,68.47-25.79,20.43-17.19,30.66-37.43,30.66-60.74h-80.79c-24.84,0-43.26,4.68-55.29,14.04-12.03,9.37-17.29,21.11-15.76,35.24,1.15,12.99,6.88,22.45,17.19,28.36,10.31,5.93,22.15,8.88,35.53,8.88Z"/>
    <path class="cls-1" d="M532.75,539c-41.26,0-76.69-15.47-106.29-46.41-29.61-30.94-44.41-67.61-44.41-110.02s14.7-81.08,44.12-111.45c29.41-30.37,64.94-45.55,106.58-45.55,37.05,0,67.42,12.8,91.11,38.39v-130.64h74.49v401.1h-74.49v-32.66c-24.07,24.84-54.44,37.25-91.11,37.25ZM540.2,471.39c24.07,0,44.88-8.78,62.46-26.36,17.57-17.57,26.36-38.39,26.36-62.46s-8.79-44.98-26.36-62.74c-17.57-17.76-38.39-26.64-62.46-26.64s-45.75,8.79-62.74,26.36c-17,17.58-25.5,38.59-25.5,63.03s8.5,45.37,25.5,62.74c16.99,17.39,37.91,26.07,62.74,26.07Z"/>
    <path class="cls-1" d="M836.43,539c-12.61,0-25.02-1.43-37.24-4.3-12.23-2.87-24.35-7.64-36.39-14.33-12.03-6.68-21.77-16.62-29.22-29.8-7.45-13.18-11.17-28.74-11.17-46.7-.38-31.7,10.31-55.29,32.09-70.77,21.77-15.47,51.95-23.21,90.53-23.21l89.39-.57v-16.04c0-15.27-6.12-26.55-18.34-33.81-12.23-7.25-28.27-10.89-48.13-10.89-37.44,0-59.79,12.23-67.04,36.67l-71.05.57c.38-30.17,13.75-54.44,40.11-72.77,26.36-18.34,58.45-27.5,96.26-27.5s70.85,9.17,97.98,27.5c27.12,18.34,40.68,42.21,40.68,71.62v209.72h-70.48v-37.82c-8.41,10.7-21.11,20.44-38.1,29.22-17,8.78-36.96,13.18-59.88,13.18ZM842.73,477.69c22.92,0,43.92-7.35,63.03-22.06,19.1-14.7,28.65-32.37,28.65-53h-75.64c-21.4,0-37.44,4.01-48.13,12.03-10.7,8.02-15.28,18.34-13.75,30.94,2.29,21.4,17.57,32.09,45.84,32.09Z"/>
    <path class="cls-1" d="M1039.84,654.75V230.73h83.08v25.21c22.92-19.86,50.8-29.8,83.66-29.8,40.87,0,76.11,15.47,105.72,46.41,29.6,30.94,44.41,67.61,44.41,110.02s-14.71,80.99-44.12,111.16c-29.42,30.18-64.75,45.27-106.01,45.27-32.47,0-60.36-10.31-83.66-30.94v146.69h-83.08ZM1198.56,464.51c22.92,0,42.12-8.11,57.59-24.35,15.47-16.23,23.21-35.43,23.21-57.59s-7.74-41.26-23.21-57.3c-15.47-16.04-34.67-24.07-57.59-24.07s-41.26,8.12-57.3,24.35c-16.04,16.24-24.07,35.24-24.07,57.01s8.02,40.88,24.07,57.3c16.04,16.43,35.14,24.64,57.3,24.64Z"/>
    <path class="cls-1" d="M1582.47,531.55c-48.9,14.13-90.16,12.41-123.77-5.16-33.62-17.57-50.42-48.71-50.42-93.4l.57-130.64h-51.57v-71.62h51.57l.57-67.04h81.94l-.57,67.04h87.67v71.62h-87.67l-.57,130.07c0,8.02,3.34,14.71,10.03,20.05,6.68,5.35,16.81,8.51,30.37,9.46,13.55.96,30.84-2.58,51.86-10.6v80.22Z"/>
  </g>
</svg>