<svg width="1664" height="724" viewBox="0 0 1664 724" fill="none" xmlns="http://www.w3.org/2000/svg">
<path d="M1663.02 20.33V622.17L989.58 723.2L988.97 601.39L392.33 710.68L391.75 606.43L0.12999 717.14L0 109.17L395.15 0L395.65 113.52L990.24 1.57001L990.77 116.25L1663.02 20.33Z" fill="white"/>
<path d="M188.38 539C175 539 162.11 537.47 149.7 534.42C137.28 531.37 125.35 526.5 113.89 519.81C102.43 513.13 93.06 503.39 85.81 490.59C78.55 477.8 74.92 462.8 74.92 445.61C74.53 414.67 85.23 391.09 107.01 374.84C128.78 358.61 159.91 350.49 200.41 350.49H292.66V332.15C292.66 315.34 285.78 302.64 272.03 294.05C258.28 285.46 240.51 281.16 218.74 281.16C177.1 281.16 152.84 294.91 145.97 322.42L82.94 323.57C83.7 293.4 96.98 269.52 122.76 251.94C148.55 234.37 180.15 225.58 217.59 225.58C255.03 225.58 287.78 234.75 314.71 253.08C341.64 271.42 355.11 295.11 355.11 324.13V534.42H292.65V488.58C283.86 500.81 270.59 512.27 252.83 522.96C235.07 533.66 213.58 539 188.37 539H188.38ZM193.54 484.56C218.75 484.56 241.57 475.97 262.01 458.77C282.44 441.58 292.67 421.34 292.67 398.03H211.88C187.04 398.03 168.62 402.71 156.59 412.07C144.56 421.44 139.3 433.18 140.83 447.31C141.98 460.3 147.71 469.76 158.02 475.67C168.33 481.6 180.17 484.55 193.55 484.55L193.54 484.56Z" fill="black"/>
<path d="M532.75 539C491.49 539 456.06 523.53 426.46 492.59C396.85 461.65 382.05 424.98 382.05 382.57C382.05 340.16 396.75 301.49 426.17 271.12C455.58 240.75 491.11 225.57 532.75 225.57C569.8 225.57 600.17 238.37 623.86 263.96V133.32H698.35V534.42H623.86V501.76C599.79 526.6 569.42 539.01 532.75 539.01V539ZM540.2 471.38C564.27 471.38 585.08 462.6 602.66 445.02C620.23 427.45 629.02 406.63 629.02 382.56C629.02 358.49 620.23 337.58 602.66 319.82C585.09 302.06 564.27 293.18 540.2 293.18C516.13 293.18 494.45 301.97 477.46 319.54C460.46 337.12 451.96 358.13 451.96 382.57C451.96 407.01 460.46 427.94 477.46 445.31C494.45 462.7 515.37 471.38 540.2 471.38Z" fill="black"/>
<path d="M836.43 539C823.82 539 811.41 537.57 799.19 534.7C786.96 531.83 774.84 527.06 762.8 520.37C750.77 513.69 741.03 503.75 733.58 490.57C726.13 477.39 722.41 461.83 722.41 443.87C722.03 412.17 732.72 388.58 754.5 373.1C776.27 357.63 806.45 349.89 845.03 349.89L934.42 349.32V333.28C934.42 318.01 928.3 306.73 916.08 299.47C903.85 292.22 887.81 288.58 867.95 288.58C830.51 288.58 808.16 300.81 800.91 325.25L729.86 325.82C730.24 295.65 743.61 271.38 769.97 253.05C796.33 234.71 828.42 225.55 866.23 225.55C904.04 225.55 937.08 234.72 964.21 253.05C991.33 271.39 1004.89 295.26 1004.89 324.67V534.39H934.41V496.57C926 507.27 913.3 517.01 896.31 525.79C879.31 534.57 859.35 538.97 836.43 538.97V539ZM842.74 477.69C865.66 477.69 886.66 470.34 905.77 455.63C924.87 440.93 934.42 423.26 934.42 402.63H858.78C837.38 402.63 821.34 406.64 810.65 414.66C799.95 422.68 795.37 433 796.9 445.6C799.19 467 814.47 477.69 842.74 477.69Z" fill="black"/>
<path d="M1039.85 654.74V230.72H1122.93V255.93C1145.85 236.07 1173.73 226.13 1206.59 226.13C1247.46 226.13 1282.7 241.6 1312.31 272.54C1341.91 303.48 1356.72 340.15 1356.72 382.56C1356.72 424.97 1342.01 463.55 1312.6 493.72C1283.18 523.9 1247.85 538.99 1206.59 538.99C1174.12 538.99 1146.23 528.68 1122.93 508.05V654.74H1039.85ZM1198.57 464.51C1221.49 464.51 1240.69 456.4 1256.16 440.16C1271.63 423.93 1279.37 404.73 1279.37 382.57C1279.37 360.41 1271.63 341.31 1256.16 325.27C1240.69 309.23 1221.49 301.2 1198.57 301.2C1175.65 301.2 1157.31 309.32 1141.27 325.55C1125.23 341.79 1117.2 360.79 1117.2 382.56C1117.2 404.33 1125.22 423.44 1141.27 439.86C1157.31 456.29 1176.41 464.5 1198.57 464.5V464.51Z" fill="black"/>
<path d="M1582.47 531.55C1533.57 545.68 1492.31 543.96 1458.7 526.39C1425.08 508.82 1408.28 477.68 1408.28 432.99L1408.85 302.35H1357.28V230.73H1408.85L1409.42 163.69H1491.36L1490.79 230.73H1578.46V302.35H1490.79L1490.22 432.42C1490.22 440.44 1493.56 447.13 1500.25 452.47C1506.93 457.82 1517.06 460.98 1530.62 461.93C1544.17 462.89 1561.46 459.35 1582.48 451.33V531.55H1582.47Z" fill="black"/>
</svg>
