<?xml version="1.0" standalone="no"?>
<!DOCTYPE svg PUBLIC "-//W3C//DTD SVG 1.1//EN" "http://www.w3.org/Graphics/SVG/1.1/DTD/svg11.dtd">
<svg xmlns="http://www.w3.org/2000/svg">
  <defs>
    <font id="DMSans" horiz-adv-x="542">
      <font-face font-family="DM Sans 9pt" units-per-em="1000" panose-1="0 0 0 0 0 0 0 0 0 0" ascent="992" descent="-310" alphabetic="0"/>
      <glyph unicode=" " glyph-name="gid153" horiz-adv-x="282"/>
      <glyph unicode="!" glyph-name="gid161" horiz-adv-x="252" d="M72,194l80,506h91L143,194H72ZM91-5Q66-5 49.5,11.5T33,52T49,92.5T91,109q25,0 41-16.5T148,52T132,11.5T91-5Z"/>
      <glyph unicode="&quot;" glyph-name="gid191" horiz-adv-x="316" d="M226,551l60,204h80L284,551H226ZM91,551l60,204h80L149,551H91Z"/>
      <glyph unicode="#" glyph-name="gid168" horiz-adv-x="805" d="M389,0L662,706h80L469,0H389ZM99,0L372,706h79L180,0H99ZM36,197l14,75H719l-14-75H36Zm83,238l14,74H802l-12-74H119Z"/>
      <glyph unicode="$" glyph-name="gid207" horiz-adv-x="583" d="M187-87L341,791h69L256-87H187Zm73,75q-74,0-128,26T52.5,90T38,210h88q-10-43 6-77t52-54t86-20q53,0 89,17t55.5,47.5T437,195q2,28-8,48t-28,34.5t-42.5,25t-53,20T248,343q-70,25-104,66t-30,98q2,61 34,107t87.5,72T363,712q66,0 113-24.5T546,619t12-101H471q5,33-8,61t-42,44.5T350,640t-75-15t-52-42.5T202,518q-1-24 7.5-41T234,447.5t38.5-23t50.5-20T382,384q32-12 59-28t46.5-37.5t30-50T525,204q-2-63-35.5-111.5T397.5,16T260-12Z"/>
      <glyph unicode="%" glyph-name="gid224" horiz-adv-x="787" d="M101,0L632,700h83L185,0H101ZM542-12q-41,0-72.5,17.5T421.5,56T407,134q2,54 28,97t69,68t93,25q41,0 72-17.5t47.5-50T731,178q-2-53-27.5-96t-68-68.5T542-12ZM226,375q-41,0-72.5,18t-48,50.5T91,521q2,54 28.5,96.5t68.5,68T281,711q42,0 73-17.5t47.5-50T415,565q-2-54-28-96.5t-68-68T226,375ZM552,52q28,0 52.5,15.5T644,111t17,62q2,45-19,66.5T588,261q-28,0-53-15.5t-40.5-43T478,140q-2-45 20-66.5T552,52ZM235,439q29,0 53.5,15.5t39.5,43T345,560q2,45-19,67t-54,22q-29,0-53.5-16t-40-43.5T161,527q-2-45 20-66.5T235,439Z"/>
      <glyph unicode="&amp;" glyph-name="gid196" horiz-adv-x="735" d="M561,0L248,388q-32,41-47,74t-13,71q3,52 30.5,92.5T293,689t108,23q53,0 90-20t54-55t8-80H470q7,40-16,64t-65,24q-50,0-82.5-29.5T272,543q-1-28 11.5-56T321,426L666,0H561ZM236-12q-65,0-112.5,23T52,76.5T31,175q2,59 30.5,106.5T140,365t115,57l34,10l34-54l-39-13q-74-24-119.5-70.5T117,184q-2-36 13.5-63.5t45-43T247,62q53,0 98,18t90,59q29,26 59,61t62,78l62,84h89L627,252q-38-54-74.5-96T478,82Q421,34 362,11T236-12Z"/>
      <glyph unicode="&apos;" glyph-name="gid192" horiz-adv-x="163" d="M99,551l34,204h81L157,551H99Z"/>
      <glyph unicode="(" glyph-name="gid175" horiz-adv-x="373" d="M178-145q-38,45-68,103.5T64.5,89T54,245q4,110 42.5,214t103,194.5T347,811h86l-1-8q-88-73-152.5-163T179,451.5T138,253q-4-76 10.5-146t45-131.5T266-137l-1-8H178Z"/>
      <glyph unicode=")" glyph-name="gid176" horiz-adv-x="374" d="M224,811q39-44 69-103t45-131t10-156q-4-109-42.5-213.5T203,13T55-145H-31l1,8Q58-64 122.5,26t101,188.5T264,413q4,77-10.5,146.5t-45,131T135,803l2,8h87Z"/>
      <glyph unicode="*" glyph-name="gid167" horiz-adv-x="479" d="M228,360l39,153L128,426l-24,61l148,61L126,608l42,59l112-87l13,153h68L319,580l140,86l22-57L332,547l128-61l-43-59L306,513L294,360H228Z"/>
      <glyph unicode="+" glyph-name="gid212" horiz-adv-x="550" d="M205,72l77,436h76L282,72H205ZM47,255l12,71H516l-12-71H47Z"/>
      <glyph unicode="," glyph-name="gid157" horiz-adv-x="182" d="M-61-120L35,101h87L-3-120H-61Z"/>
      <glyph unicode="-" glyph-name="gid171" horiz-adv-x="515" d="M72,255l12,71H480l-12-71H72Z"/>
      <glyph unicode="." glyph-name="gid156" horiz-adv-x="200" d="M65-5Q40-5 23.5,11.5T7,52T23.5,92.5T65,109t41-16.5T122,52T106,11.5T65-5Z"/>
      <glyph unicode="/" glyph-name="gid169" horiz-adv-x="392" d="M-33-95L370,764h83L50-95H-33Z"/>
      <glyph unicode="0" glyph-name="gid127" horiz-adv-x="687" d="M299-12q-81,0-136,37T81.5,128T60,282q3,92 32,170t78,136.5t113.5,91T423,712q81,0 135.5-37t81-103T662,418q-4-92-32.5-170.5T552,111T438,20.5T299-12Zm11,74q52,0 98.5,26.5t82.5,74t58,111T574,411q4,71-15,121.5T502,610t-91,27q-52,0-98.5-26.5T230,537T172,426.5T147,289q-4-71 15-122t57.5-78T310,62Z"/>
      <glyph unicode="1" glyph-name="gid128" horiz-adv-x="313" d="M108,0L215,606L88,572l12,64l160,64h57L193,0H108Z"/>
      <glyph unicode="2" glyph-name="gid129" horiz-adv-x="587" d="M29,0L40,59q104,72 182,135T353,313.5t80.5,108T463,522q2,30-8,57t-35,44t-68,17q-46,0-80.5-20.5t-55-54T189,492H107q13,69 49.5,118T246,685.5T362,712q58,0 100.5-21.5T528,628t20-99q-2-45-19.5-89T479,351.5t-78-90t-104.5-93T166,70H507L494,0H29Z"/>
      <glyph unicode="3" glyph-name="gid130" horiz-adv-x="590" d="M250-12q-75,0-124,27.5t-70,77T44,208h85q-3-48 9.5-81T181,77.5T260,61q50,0 88.5,19.5t61,54T434,214q2,42-17.5,70T363,326t-78,14H233l12,71h53q73,0 119,35.5T466,544q2,40-24.5,67.5T359,639q-59,0-100-34t-55-87H119q13,57 47.5,101T253,687.5T369,712q62,0 103.5-20.5t62-56T553,554q-2-39-20.5-75t-50-62.5T407,379q35-7 60.5-28T507,297.5T519,222q-3-67-38-120T386.5,18.5T250-12Z"/>
      <glyph unicode="4" glyph-name="gid131" horiz-adv-x="608" d="M349,0l27,150H20l11,65L457,700h98L471,224H575l-13-74H458L431,0H349ZM126,224H391l69,383L126,224Z"/>
      <glyph unicode="5" glyph-name="gid132" horiz-adv-x="613" d="M268-12q-66,0-114.5,24T79,80T54,186h83q1-56 39.5-91T279,60q53,0 96,25.5T444,156t28,102q3,43-12.5,76.5t-45.5,53T342,407q-58,0-101.5-25T170,318H89L215,700H585l-13-73H267L189,412q30,29 73,47.5T360,478q47,0 84-16t62.5-44.5t38-67T554,268q-3-79-41.5-142.5T410.5,25T268-12Z"/>
      <glyph unicode="6" glyph-name="gid133" horiz-adv-x="621" d="M280-12Q216-12 173,9.5T104.5,68T70,153T64,253q3,95 29,178t71,146t106,99t134,36q63,0 104.5-25.5t61-68.5T585,522H507q0,55-30.5,86T391,639q-51,0-97.5-31t-82-94T153,353q-1-4-1.5-9T149,334q23,33 54.5,58.5T275,433t86,15q59,0 103-26t68.5-72T554,245q-2-52-23.5-98.5t-59-82t-86-56T280-12Zm7,74q50,0 90.5,22.5T442,146t26,89q2,41-13.5,72.5t-46,49.5T336,375q-50,0-91-23t-65.5-62T153,203q-2-40 14-72t46.5-50.5T287,62Z"/>
      <glyph unicode="7" glyph-name="gid134" horiz-adv-x="534" d="M91,0L475,628H93l13,72H576l-11-63L182,0H91Z"/>
      <glyph unicode="8" glyph-name="gid135" horiz-adv-x="605" d="M261-12q-63,0-111,22.5t-74,64T53,172q2,48 24.5,89.5T138,332t87,41q-47,18-72,55t-23,82q2,58 36,104t90.5,72T382,712q63,0 106-21.5t64.5-59T572,544q-2-43-22-76.5t-52.5-57T426,373q56-16 82.5-60T532,213q-2-67-40-118T393.5,16T261-12Zm12,74q50,0 89,18.5T424,133t24,79q4,61-33,91t-98,30q-48,0-88.5-18.5T164,262t-26-81q-3-55 32.5-87T273,62Zm62,341q37,0 71,14.5t56,44T486,535q1,39-14,62t-41.5,33T370,640q-43,0-77-16t-54.5-45T216,509q-3-52 31-79t88-27Z"/>
      <glyph unicode="9" glyph-name="gid136" horiz-adv-x="622" d="M253-12q-63,0-104.5,25.5t-61,69T71,178h78q0-55 31-86t85-31q41,0 74.5,16.5t60,45.5t47,68t35,83.5T507,366q-22-32-54-58t-71-41t-86-15q-59,0-104,26.5T123,351T102,457q3,54 24.5,100.5t58.5,81t86,54T376,712q65,0 108-21.5T552,632t34.5-85T593,447q-4-95-30-178T492,123T386.5,24T253-12Zm67,337q50,0 91,23t66,62.5T504,497q2,40-14,72t-47,50.5T369,638q-50,0-90-22.5T215,554t-26-89q-3-40 12-72t45-50t74-18Z"/>
      <glyph unicode=":" glyph-name="gid158" horiz-adv-x="205" d="M66-5Q41-5 24.5,11.5T8,52T24.5,92.5T66,109t41-16.5T123,52T107,11.5T66-5Zm71,407q-25,0-41.5,16.5T79,459t16.5,40.5T137,516t41-16.5T194,459t-16-40.5T137,402Z"/>
      <glyph unicode=";" glyph-name="gid159" horiz-adv-x="215" d="M134,402q-25,0-41.5,16.5T76,459t16.5,40.5T134,516t41-16.5T191,459t-16-40.5T134,402ZM-41-120L55,101h87L17-120H-41Z"/>
      <glyph unicode="&lt;" glyph-name="gid218" horiz-adv-x="550" d="M514,581L218,347L422,120H314L111,351L396,581H514Z"/>
      <glyph unicode="=" glyph-name="gid216" horiz-adv-x="550" d="M95,359l12,72H505l-12-72H95ZM58,151l12,72H469l-13-72H58Z"/>
      <glyph unicode="&gt;" glyph-name="gid217" horiz-adv-x="550" d="M70,120L366,354L162,581H270L473,350L188,120H70Z"/>
      <glyph unicode="?" glyph-name="gid163" horiz-adv-x="526" d="M150,201l24,156h29q50,0 93.5,7.5t76,26.5T424,442.5T445,524q2,36-12,62t-41.5,40.5T325,641q-42,0-77-16t-57.5-44.5T160,512H81q11,60 47,105t90.5,70T337,712q60,0 103.5-22.5t66.5-63T527,530q-3-76-40.5-128t-100-77.5T243,299l-21-98H150ZM164-5q-25,0-41,16.5T107,52t16,40.5T164,109t41-16.5T221,52T205,11.5T164-5Z"/>
      <glyph unicode="@" glyph-name="gid195" horiz-adv-x="995" d="M420-199q-105,0-185,41.5T110.5-39.5T66,141q0,105 35.5,195.5T202,495.5T357,602t198,38q111,0 192.5-42.5T874,479t45-176q0-58-13.5-113t-41-99T798,20.5T708-6q-59,0-85.5,37T603,126l3,34l18-30q-26-63-80.5-99.5T425-6Q351-6 309,40T267,165q0,55 17,105t48.5,89.5T408,422t97,23q61,0 97-32.5T645,317l-21-13l23,130h71L668,147q-7-42 4.5-68.5T721,52q32,0 56,23t40.5,60t25,80t8.5,84q0,89-37,151.5T708.5,547T546,581q-91,0-166.5-33T249,455.5t-85-138T134,148q0-92 36-156t104-97.5T435-139q44,0 86.5,8.5T602-105l12-57q-44-19-93.5-28T420-199ZM451,58q41,0 76.5,23t59,63.5T614,239q5,39-6,71t-36,51.5T507,381q-38,0-68.5-17.5T387,317t-32-65t-11-74q0-54 27-87t80-33Z"/>
      <glyph unicode="A" glyph-name="gid1" horiz-adv-x="664" d="M-14,0L368,700h89L590,0H502L394,599L75,0H-14ZM119,180l35,67H502l11-67H119Z"/>
      <glyph unicode="B" glyph-name="gid10" horiz-adv-x="604" d="M31,0L154,700H401q67,0 109.5-20.5t62.5-56T590,544q-2-55-28.5-96t-70-65T395,354l15,10q41-1 73-20.5t49.5-53T547,214q-2-63-37-111T416.5,27.5T285,0H31Zm96,69H288q52,0 90.5,18t61,51.5T464,216q3,51-32.5,81T331,327H172L127,69Zm58,324H340q72,0 116,37.5T502,531q2,31-11,54t-40.5,35T379,632H226L185,393Z"/>
      <glyph unicode="C" glyph-name="gid11" horiz-adv-x="719" d="M335-12q-92,0-155,37.5T86,131T60,289q4,90 35.5,167.5t85.5,135t125,89T460,712q120,0 185.5-57T713,494H619q-2,66-45,105T448,638q-63,0-116-25.5t-93.5-72T174.5,431T148,294q-4-73 18.5-124.5T235,90T347,62q84,0 139.5,38T568,203h94q-26-67-72-115.5t-110.5-74T335-12Z"/>
      <glyph unicode="D" glyph-name="gid13" horiz-adv-x="692" d="M31,0L154,700H360q110,0 178.5-35.5T638,562t27-162q-4-90-34.5-163.5T544.5,110t-133-81.5T237,0H31Zm96,70H248q104,0 176,40T535,223t43,172q4,76-18,128t-74,79.5T346,630H226L127,70Z"/>
      <glyph unicode="E" glyph-name="gid15" horiz-adv-x="545" d="M31,0L154,700H566l-12-68H226L183,386H481l-12-66H171L127,68H454L442,0H31Z"/>
      <glyph unicode="F" glyph-name="gid20" horiz-adv-x="528" d="M31,0L154,700H573l-12-68H226L183,384H465l-12-66H171L115,0H31Z"/>
      <glyph unicode="G" glyph-name="gid21" horiz-adv-x="761" d="M332-12q-89,0-151,40T88,137.5T62,297q3,90 34,166t85.5,132T308,681.5T467,712q118,0 189.5-56.5T732,498H635q-4,63-49.5,100T456,635q-88,0-156-42.5T192.5,475T149,300q-4-72 19.5-125.5T238,92T348,63q75,0 130,30t91.5,85T625,308H423l11,66H723L657,0H580l13,115q-32-41-69.5-69.5t-84-43T332-12Z"/>
      <glyph unicode="H" glyph-name="gid22" horiz-adv-x="682" d="M478,0L602,700h84L562,0H478ZM31,0L154,700h84L115,0H31ZM155,323l12,67H568l-12-67H155Z"/>
      <glyph unicode="I" glyph-name="gid23" horiz-adv-x="235" d="M31,0L154,700h84L115,0H31Z"/>
      <glyph unicode="J" glyph-name="gid28" horiz-adv-x="489" d="M178-12q-59,0-99,24T22.5,80.5T17,187h85q-6-35 0-63t27.5-44.5T191,63q39,0 65,15.5T297,120t20,55l92,525h84L401,175Q386,89 326,38.5T178-12Z"/>
      <glyph unicode="K" glyph-name="gid29" horiz-adv-x="585" d="M31,0L154,700h84L183,383L530,700H636L328,421L517,0H421L260,361l-97-88L115,0H31Z"/>
      <glyph unicode="L" glyph-name="gid30" horiz-adv-x="528" d="M31,0L154,700h84L127,67H453L441,0H31Z"/>
      <glyph unicode="M" glyph-name="gid32" horiz-adv-x="842" d="M31,0L155,700h97L414,211L747,700h99L723,0H639l97,550L426,98H363L212,548L115,0H31Z"/>
      <glyph unicode="N" glyph-name="gid33" horiz-adv-x="692" d="M31,0L154,700h84L512,134l99,566h84L572,0H488L215,566L115,0H31Z"/>
      <glyph unicode="O" glyph-name="gid35" horiz-adv-x="781" d="M345-12q-89,0-154.5,40.5T90.5,140T61,302q4,87 37,161.5t89.5,130t129,87T471,712q89,0 154.5-40T725,561.5T755,399q-4-87-37-162T628.5,106T500,19T345-12Zm12,74q63,0 118,25t97,70t67.5,106T668,396q4,75-21.5,129t-74,83T458,637q-62,0-117-24.5T243.5,543T176,437.5T148,306q-4-75 21-130t73.5-84.5T357,62Z"/>
      <glyph unicode="P" glyph-name="gid43" horiz-adv-x="584" d="M31,0L154,700H383q75,0 121.5-25T572,608t19-92q-3-70-38-121t-97-79T311,288H166L115,0H31ZM178,359H321q87,0 133,38.5T503,511q3,53-28,86T369,630H226L178,359Z"/>
      <glyph unicode="Q" glyph-name="gid45" horiz-adv-x="781" d="M523-95L367,273h96L618-95H523ZM345-12q-89,0-154.5,40.5T90.5,140T61,302q4,87 37,161.5t89.5,130t129,87T471,712q89,0 154.5-40T725,561.5T755,399q-4-87-37-162T628.5,106T500,19T345-12Zm12,74q63,0 118,25t97,70t67.5,106T668,396q4,75-21.5,129t-74,83T458,637q-62,0-117-24.5T243.5,543T176,437.5T148,306q-4-75 21-130t73.5-84.5T357,62Z"/>
      <glyph unicode="R" glyph-name="gid46" horiz-adv-x="595" d="M31,0L154,700H380q74,0 119.5-25T565,608.5T582,517q-2-68-37-119.5t-97-80T304,289H166L115,0H31ZM408,0L309,313h88L500,0H408ZM178,355H314q82,0 130.5,41T496,510q3,51-28.5,85T361,629H226L178,355Z"/>
      <glyph unicode="S" glyph-name="gid47" horiz-adv-x="583" d="M260-12q-74,0-128,26T52.5,90T38,210h88q-10-43 6-77t52-54t86-20q53,0 89,17t55.5,47.5T437,195q2,28-8,48t-28,34.5t-42.5,25t-53,20T248,343q-70,25-104,66t-30,98q2,61 34,107t87.5,72T363,712q66,0 113-24.5T546,619t12-101H471q5,33-8,61t-42,44.5T350,640t-75-15t-52-42.5T202,518q-1-24 7.5-41T234,447.5t38.5-23t50.5-20T382,384q32-12 59-28t46.5-37.5t30-50T525,204q-2-63-35.5-111.5T397.5,16T260-12Z"/>
      <glyph unicode="T" glyph-name="gid48" horiz-adv-x="560" d="M194,0L305,632H97l12,68H610l-12-68H389L277,0H194Z"/>
      <glyph unicode="U" glyph-name="gid49" horiz-adv-x="655" d="M281-12q-80,0-132.5,31.5T75,111.5T69,258l79,442h84L153,258q-11-62 1.5-105.5t47.5-66T295,64q53,0 95.5,20t72,63T504,258l79,442h84L589,258q-16-93-61.5-152.5T418,17T281-12Z"/>
      <glyph unicode="V" glyph-name="gid54" horiz-adv-x="669" d="M241,0L101,700h91L305,91L636,700h90L339,0H241Z"/>
      <glyph unicode="W" glyph-name="gid55" horiz-adv-x="968" d="M174-1L106,700h90l45-597L518,700h94l61-598L931,700h91L702,0H606L541,577L268,0L174-1Z"/>
      <glyph unicode="X" glyph-name="gid56" horiz-adv-x="604" d="M-4,0L271,352L118,700h95L336,420L549,700h96L369,349L521,0H425L305,281L90,0H-4Z"/>
      <glyph unicode="Y" glyph-name="gid57" horiz-adv-x="580" d="M204,0l47,266L99,700h95L306,346L544,700h95L335,266L288,0H204Z"/>
      <glyph unicode="Z" glyph-name="gid59" horiz-adv-x="541" d="M0,0L12,66L459,627H116l13,73H571l-11-66L111,73H465L452,0H0Z"/>
      <glyph unicode="[" glyph-name="gid179" horiz-adv-x="315" d="M4-151L174,811H353l-12-69H240L95-81H196l-13-70H4Z"/>
      <glyph unicode="\" glyph-name="gid170" horiz-adv-x="694" d="M605-95H522L119,764h83L605-95Z"/>
      <glyph unicode="]" glyph-name="gid180" horiz-adv-x="314" d="M338,811L168-151H-11L1-82H102L247,741H146l13,70H338Z"/>
      <glyph unicode="^" glyph-name="gid222" horiz-adv-x="622" d="M31,210L352,700h78L578,210H492L375,601L117,210H31Z"/>
      <glyph unicode="_" glyph-name="gid174" horiz-adv-x="634" d="M8-115L21-36H536l-13-79H8Z"/>
      <glyph unicode="`" glyph-name="gid256" horiz-adv-x="213" d="M256,545L73,661l24,72L276,606l-20-61Z"/>
      <glyph unicode="a" glyph-name="gid60" horiz-adv-x="552" d="M186-12Q130-12 94.5,7.5T43,59.5T29,129q2,54 33,93t86,60t126,21H407q8,48-0.5,79.5t-33.5,47T308,445q-48,0-87-24t-56-71H78q16,54 52.5,90.5t85.5,56T319,516q68,0 110.5-25.5t58-71T492,312L438,0H362l11,89q-14-21-32.5-39.5T299,17T248-4.5T186-12Zm25,71q35,0 67.5,14.5t58,39.5t41,56T394,234l1,4H269q-47,0-80.5-12.5t-51-35T118,137q-2-36 22-57t71-21Z"/>
      <glyph unicode="b" glyph-name="gid68" horiz-adv-x="621" d="M288-12q-42,0-75.5,14t-56,36T123,83L101,0H25L152,720h84L184,425q31,38 78,64.5T374,516q66,0 112-30t69-81.5T575,287q-3-63-25.5-118T488,73.5t-90-63T288-12Zm4,73q54,0 97.5,28T459,166t29,112q3,48-13,85.5T427.5,422T352,443q-55,0-98.5-29T183,335.5T154,223q-3-49 13-85.5T215,81t77-20Z"/>
      <glyph unicode="c" glyph-name="gid69" horiz-adv-x="574" d="M251-12q-63,0-111,28.5T67.5,96T46,215q3,66 27,121t65,95t93.5,62.5T344,516q90,0 142.5-47.5T541,341H455q-1,51-36.5,77T332,444q-53,0-97-28t-71.5-77.5T133,222q-2-39 7-69.5t27-51T209.5,70T264,59q34,0 65.5,12T386,106t38,57h86q-19-51-57-90.5t-90-62T251-12Z"/>
      <glyph unicode="d" glyph-name="gid71" horiz-adv-x="622" d="M246-12q-65,0-111,31T66,103.5T47,221q3,65 25.5,118.5t61,93t89,61.5T330,516q65,0 106.5-26T498,421l53,299h84L508,0H431l7,83q-19-25-46.5-46.5T328,1.5T246-12Zm24,73q56,0 99.5,29.5t69.5,80T468,284q3,48-12.5,83.5t-47,55.5T332,443q-54,0-98-27.5T163.5,339T134,227q-3-48 13-86t47.5-59T270,61Z"/>
      <glyph unicode="e" glyph-name="gid73" horiz-adv-x="570" d="M246-12q-63,0-109.5,28t-70,79T46,214q3,65 26,119.5T134.5,429T226,493t113,23q68,0 112.5-28T517,413.5T535,311q-1-17-4.5-38.5T523,233H111l11,65H452q7,47-8,79.5t-45,50T327,445q-43,0-82.5-19.5t-68.5-57T137,275l-5-28q-11-56 2-99t45.5-66T259,59q53,0 91.5,23.5T411,146h83q-21-45-56.5-81t-84-56.5T246-12Z"/>
      <glyph unicode="f" glyph-name="gid78" horiz-adv-x="340" d="M54,0L156,582q9,48 30,78.5t55.5,45T322,720h56l-13-72H323q-38,0-57-15t-26-53L138,0H54Zm0,433l12,71H353l-13-71H54Z"/>
      <glyph unicode="g" glyph-name="gid79" horiz-adv-x="553" d="M177-232q-64,0-111,17T-6.5-165.5T-30-86q2,33 16.5,62.5T29.5,32T101,78l52-33Q103,23 80-7.5T55-72q-1-29 14.5-49.5t46-31T189-163q68,0 111.5,30T346-53q2,31-20.5,53.5T235,27q-49,3-85,10T88,53.5T43.5,75T11,102l5,24l109,88l66-26L77,101l19,40q12-9 24.5-16.5t29-13t41-9.5T252,95q71-5 110.5-24.5t54.5-50T430-46q-2-52-33.5-94t-88-67T177-232Zm66,390q-57,0-95.5,20t-57,55T74,312q3,58 34,104t82.5,73T306,516q58,0 96-20.5T458,440t16-79q-3-57-33.5-103T359,185T243,158Zm12,69q60,0 98,34.5T394,355q2,45-24,68t-76,23q-59,0-97.5-34.5T156,319q-3-45 23.5-68.5T255,227ZM374,433l-13,71H567l-11-63l-182-8Z"/>
      <glyph unicode="h" glyph-name="gid80" horiz-adv-x="576" d="M26,0L152,720h84L183,419q33,45 82.5,71T369,516q59,0 98-23.5T521,421t2-121L470,0H387l51,291q13,76-13,114.5T338,444q-43,0-80.5-21T194,363t-37-96L110,0H26Z"/>
      <glyph unicode="i" glyph-name="gid81" horiz-adv-x="241" d="M34,0l89,504h84L118,0H34ZM194,611q-25,0-41,16t-17,41q0,25 16.5,41T194,725q24,0 41-15.5T252,668q1-25-16.5-41T194,611Z"/>
      <glyph unicode="j" glyph-name="gid88" horiz-adv-x="252" d="M-111-220l13,72h39q37,0 55.5,15.5T22-80L126,504h84L106-82q-8-48-29.5-78.5T21-205.5T-60-220h-51ZM198,611q-25,0-41.5,16.5T140,668q0,26 16.5,41.5T198,725q24,0 40.5-15.5T255,668q0-24-16.5-40.5T198,611Z"/>
      <glyph unicode="k" glyph-name="gid90" horiz-adv-x="512" d="M347,0L146,277L403,504H512L210,247l9,63L450,0H347ZM25,0L153,720h84L109,0H25Z"/>
      <glyph unicode="l" glyph-name="gid91" horiz-adv-x="224" d="M25,0L153,720h84L109,0H25Z"/>
      <glyph unicode="m" glyph-name="gid93" horiz-adv-x="883" d="M26,0l88,504h75l-7-80q30,43 73,67.5T347,516q37,0 67-11t50.5-33T494,417q33,47 82.5,73T677,516q56,0 95-23.5t56-71T831,301L778,0H695l51,292q13,76-11.5,114T656,444q-34,0-66.5-18.5t-57.5-53T495,287L444,0H360l51,292q14,76-11,114t-78,38q-36,0-70-20.5T192.5,364T157,268L110,0H26Z"/>
      <glyph unicode="n" glyph-name="gid94" horiz-adv-x="574" d="M26,0l88,504h76l-10-88q32,47 81,73.5T367,516q62,0 100.5-26.5T520,415t2-114L469,0H385l51,292q13,73-12,112.5T336,444q-41,0-77.5-20T196,367t-38-91L110,0H26Z"/>
      <glyph unicode="o" glyph-name="gid96" horiz-adv-x="596" d="M255-12q-65,0-113.5,29.5T68,99.5T46,219q3,64 26.5,118.5t64,94t93,62T341,516q65,0 113.5-29t74-80T550,287q-3-65-26.5-119.5T459.5,73T367,10.5T255-12Zm11,72q54,0 97.5,28T434,166.5T464,282q3,53-14.5,88.5t-49,54.5T330,444q-53,0-96-28.5T164,337T134,221q-3-51 14-87t48.5-55T266,60Z"/>
      <glyph unicode="p" glyph-name="gid104" horiz-adv-x="622" d="M-14-220L114,504h78l-8-82q21,26 48,47t62.5,34T375,516q66,0 112-30t69-82t19-117q-2-64-25-118.5t-61.5-95T399,10.5T288-12q-40,0-73,13.5t-56,35T125,84L70-220H-14ZM293,61q54,0 97.5,28T460,166t29,112q3,48-13.5,85.5T428,422t-75,21q-55,0-99-29t-71-78.5T154,223q-3-49 13.5-85.5T216,81t77-20Z"/>
      <glyph unicode="q" glyph-name="gid106" horiz-adv-x="623" d="M385-220L438,82q-30-39-77.5-66.5T247-12T135,19T66,103T47,221q3,64 25.5,118t61,93.5t89,61.5T330,516q45,0 78-12.5t55.5-34T498,421l23,83h76L469-220H385ZM271,61q55,0 98.5,29.5t69.5,80T468,284q3,48-12.5,83.5t-47,55.5T332,443q-54,0-98-27.5T163.5,339T134,227q-3-48 13-86t48-59t76-21Z"/>
      <glyph unicode="r" glyph-name="gid107" horiz-adv-x="371" d="M26,0l88,504h77l-10-90q23,32 54,54.5t71,35T392,516l-15-88H346q-32,0-62.5-8t-56-26T184,346.5T158,273L110,0H26Z"/>
      <glyph unicode="s" glyph-name="gid108" horiz-adv-x="505" d="M216-12Q152-12 108,9.5T43.5,70T27,163h85q-1-28 10-51.5t37-38T228,59q36,0 62,11t40.5,30T347,147q1,25-11.5,39.5T298,210t-60,15q-31,6-59.5,16T128,266.5t-34,39T84,361q2,44 28.5,79t72,55.5T288,516q81,0 127.5-39.5T458,364H374q2,38-23,59.5T278,445q-47,0-76.5-21T171,372q-1-21 10.5-35.5t35.5-24T277,296q34-7 63-17t51-25.5t33.5-39T434,157q-2-52-30.5-90t-77-58.5T216-12Z"/>
      <glyph unicode="t" glyph-name="gid110" horiz-adv-x="386" d="M222,0q-51,0-82,16T98.5,66T97,153l50,280H66l13,71h81l32,122h74L244,504H391l-13-71H231L181,153q-8-47 9-64t60-17h64L301,0H222Z"/>
      <glyph unicode="u" glyph-name="gid111" horiz-adv-x="575" d="M208-12q-63,0-101.5,27.5T54.5,92T53,205l53,299h84L138,211q-13-72 10-111.5T236,60q42,0 79,19.5t64,57T416,228l49,276h84L461,0H385l9,88q-30-47-79.5-73.5T208-12Z"/>
      <glyph unicode="v" glyph-name="gid116" horiz-adv-x="540" d="M177,0L69,504h87L240,80L473,504h88L275,0H177Z"/>
      <glyph unicode="w" glyph-name="gid117" horiz-adv-x="763" d="M129,0L69,504h85L193,79H177L379,504h95L525,80l-16-1L699,504h84L547,0H461L408,444h16L214,0H129Z"/>
      <glyph unicode="x" glyph-name="gid118" horiz-adv-x="495" d="M-24,0L193,254L67,504h88L257,298L430,504h90L304,250L429,0H341L240,207L67,0H-24Z"/>
      <glyph unicode="y" glyph-name="gid119" horiz-adv-x="557" d="M43-220L211,50H183L65,504h87l99-392L493,504h88L130-220H43Z"/>
      <glyph unicode="z" glyph-name="gid122" horiz-adv-x="464" d="M-9,0L4,69L354,434H80l13,70H464l-13-69L100,70H384L371,0H-9Z"/>
      <glyph unicode="{" glyph-name="gid177" horiz-adv-x="428" d="M250-152q-62,0-96.5,31T122-29q2,42 16,80t28,76t15,75q2,22-6,41t-27.5,32.5T92,296l12,68q45,8 73.5,27T220,444.5T235,533q2,16 2,29t-0.5,25t0.5,26q3,65 25.5,109t63,66.5T419,811h55l-13-72H421q-25,0-48-9t-37.5-35T318,618q-1-15-1-29t0-29.5T315,524q-2-60-20-100t-49-62t-72-31v-2q50-12 71-43t18-74q-2-44-15.5-83.5t-27-75T206-13q-2-38 18-52.5T277-80h40l-13-72H250Z"/>
      <glyph unicode="|" glyph-name="gid203" horiz-adv-x="235" d="M13-100L158,720h84L97-100H13Z"/>
      <glyph unicode="}" glyph-name="gid178" horiz-adv-x="428" d="M205,811q62,0 96.5-31T333,688q-2-41-15.5-79.5t-28-76T274,457q-2-22 6-41t27.5-32.5T363,363l-12-68q-45-7-74-26.5t-42.5-54T219,126q-1-15-0.5-28.5T219,72t-2-26q-2-65-24.5-109T130-129.5T36-152H-19L-6-80H34q25,0 47.5,9t38,35.5T136,41q3,15 2.5,29T138,100t2,35q2,61 20,100.5t49,62T281,328v2q-50,12-71,43t-18,74q1,44 15,84t27.5,75T249,672q2,38-18.5,52.5T178,739H138l12,72h55Z"/>
      <glyph unicode="~" glyph-name="gid220" horiz-adv-x="550" d="M356,248q-28,0-48.5,10.5t-37,24T237,306t-39,10q-25,0-46-18.5T121,250H57q16,48 40,79.5t54.5,47T217,392q29,0 49-10.5T303,358t33.5-23.5T375,324q27,0 47.5,18.5T453,391h63q-15-48-39-79.5T422,264t-66-16Z"/>
      <glyph unicode="&#xa0;" glyph-name="gid154" horiz-adv-x="282"/>
      <glyph unicode="&#xa1;" glyph-name="gid162" horiz-adv-x="252" d="M181,317L101-189H10L110,317h71ZM162,516q25,0 41.5-16.5T220,459t-16.5-40.5T162,402t-41,16.5T105,459t16,40.5T162,516Z"/>
      <glyph unicode="&#xa2;" glyph-name="gid205" horiz-adv-x="574" d="M192-102L217,42h82L273-102H192Zm99,565l26,145h81L372,463H291ZM251-12q-63,0-111,28.5T67.5,96T46,215q3,66 27,121t65,95t93.5,62.5T344,516q90,0 142.5-47.5T541,341H455q-1,51-36.5,77T332,444q-53,0-97-28t-71.5-77.5T133,222q-2-39 7-69.5t27-51T209.5,70T264,59q34,0 65.5,12T386,106t38,57h86q-19-51-57-90.5t-90-62T251-12Z"/>
      <glyph unicode="&#xa3;" glyph-name="gid209" horiz-adv-x="601" d="M47,0l9,50q34,33 59.5,65t40,69.5T172,268q2,25-2,48.5T161.5,364t-8,50T152,469q3,72 35,127t88,85.5T401,712q49,0 85.5-14T547,657t34-65t5-85H509q5,40-6.5,70.5t-39,47.5T393,642q-47,0-83-21t-56.5-59T230,472q-1-26 2.5-51.5T241,370t8.5-49.5T251,270q-2-60-30.5-110.5T144,69H509L497,0H47Zm9,310l11,59H434l-10-59H56Z"/>
      <glyph unicode="&#xa4;" glyph-name="gid206" horiz-adv-x="533" d="M243,121q-45,0-79,20.5t-51.5,56T98,278q2,58 30.5,102t75,68.5T306,473q44,0 78-19.5t52-54T452,319q-3-57-32-101.5T344.5,147T243,121ZM75,91L43,131l97,83l35-38L75,91Zm326,0l-65,80l45,40l65-80L401,91ZM254,186q31,0 57,16t42.5,45.5T372,315q2,32-9,53t-29.5,31T294,409q-31,0-57-16t-42-45t-18-69q-2-31 8.5-52t29-31T254,186ZM171,384l-68,81l46,40l67-82l-45-39Zm234-4l-28,42l96,83l33-40L405,380Z"/>
      <glyph unicode="&#xa5;" glyph-name="gid210" horiz-adv-x="602" d="M40,170l11,61H535l-11-61H40ZM279,323L67,324l10,60H280l-1-61Zm73,0l20,61H561l-10-60l-199-1ZM215,0l47,266L110,700h95L317,346L555,700h95L346,266L299,0H215Z"/>
      <glyph unicode="&#xa6;" glyph-name="gid204" horiz-adv-x="235" d="M99,387l59,333h84L183,387H99ZM13-100L72,233h84L97-100H13Z"/>
      <glyph unicode="&#xa7;" glyph-name="gid198" horiz-adv-x="588" d="M213-232q-66,0-113,25T31.5-138T19-38h87q-5-29 5-57t37.5-46.5T222-160q42,0 75.5,16t54,45T373-32q2,28-11,46T324.5,45T267,69.5T194,95q-43,16-76.5,38.5T66,189.5T51,270q2,46 23.5,86T134,428q-8,15-11.5,31.5T121,495q2,63 34.5,112t88,77T370,712q67,0 113.5-25t69-68.5T565,518H478q5,29-5.5,57T435,621.5T362,640q-42,1-76-15.5T231.5,579T210,512q-2-28 11.5-47t38-31.5T318,410t72-25q42-15 75-37.5T517,292t16-82q-2-46-23.5-86.5T450,52q9-18 12-40t-1-48q-9-56-41-101t-84.5-70T213-232ZM398,104q20,17 32,41.5T443,199q2,35-13,56.5t-42,36T327,317t-71,25q-21,8-38.5,16.5T186,376q-18-15-31-39t-14-56q-2-26 7-45t26-32.5t41-24T267.5,159T327,138q23-8 39-16t32-18Z"/>
      <glyph unicode="&#xa8;" glyph-name="gid255" horiz-adv-x="262" d="M117,576q-21,0-35.5,14.5T67,626q0,20 14.5,35T117,676t35.5-15T167,626q0-21-14.5-35.5T117,576Zm161,0q-22,0-36,14.5T228,626q0,20 14,35t36,15q20,0 34.5-15T327,626q0-21-14.5-35.5T278,576Z"/>
      <glyph unicode="&#xa9;" glyph-name="gid199" horiz-adv-x="800" d="M356-4Q266-4 200.5,34T99.5,137.5T64,287q0,87 31.5,163T184,583t132.5,89T480,704q90,0 155.5-37.5T736,564t35-149q0-87-31.5-163t-88-133.5t-132-90T356-4Zm20,123q-51,0-92,21.5t-64.5,62T196,300t19.5,108t55,90.5t83.5,62T459,583q74,0 123-39.5T636,430H560q-6,45-36.5,68.5T448,522q-54,0-94-31t-61.5-80T271,306q0-63 33-95t83-32q47,0 85,23.5T532,270h76q-20-46-56-80t-81-52.5T376,119ZM362,32q81,0 149,29t117,81t76,121t27,149q0,75-30,133t-87.5,91T474,669T324.5,640t-117-80.5T131,439T104,290q0-74 30.5-132.5t88-92T362,32Z"/>
      <glyph unicode="&#xaa;" glyph-name="gid125" horiz-adv-x="479" d="M235,349q-43,0-75,19.5t-48,54T98,502q3,58 30,105t71,75.5T298,711q51,0 81-22.5T418,630l20,75h60L436,355H376l7,75q-21-36-59-58.5T235,349Zm26,53q39,0 70.5,20.5t50,54.5T402,552q3,50-24.5,78T306,658q-37,0-68-20t-50-54t-21-75q-2-51 25-79t69-28Z"/>
      <glyph unicode="&#xab;" glyph-name="gid187" horiz-adv-x="452" d="M295,120L229,295L357,470h83L309,295l69-175H295Zm-178,0L51,295L179,470h83L131,295l70-175H117Z"/>
      <glyph unicode="&#xac;" glyph-name="gid221" horiz-adv-x="550" d="M471,223l25,142H10l12,67H591L555,223H471Z"/>
      <glyph unicode="&#xae;" glyph-name="gid200" horiz-adv-x="504" d="M261,307q-58,0-98.5,26t-58,72T97,509q10,59 44,104.5t84,72T333,712q59,0 99-26.5t58-72T497,509q-10-58-44-104t-83.5-72T261,307Zm59,96l-45,99h52l47-98l-54-1Zm-52-60q49,0 89,21.5t67,59T459,509q13,73-23,119.5T326,675q-48,0-88-21.5T171.5,595T136,509q-13-73 23-119.5T268,343Zm-69,60l38,215h95q33,0 50-17.5T394,552q-5-30-28.5-47.5T310,487H261l-14-84H199Zm69,123h43q13,0 22.5,6T345,551q2,12-5,18t-20,6H277l-9-49Z"/>
      <glyph unicode="&#xaf;" glyph-name="gid261" horiz-adv-x="349" d="M61,598l12,63H420l-10-63H61Z"/>
      <glyph unicode="&#xb0;" glyph-name="gid202" horiz-adv-x="347" d="M230,444q-36,0-66,16.5T116,507T98,577q0,42 18.5,72T165,695.5T231,712t65.5-16.5T344,649t18-72q0-40-18-70t-48-46.5T230,444Zm0,62q24,0 45.5,18T297,578t-21,54t-45,18q-25,0-46-18t-21-54t20.5-54T230,506Z"/>
      <glyph unicode="&#xb1;" glyph-name="gid219" horiz-adv-x="550" d="M8,89l11,64H494L483,89H8ZM230,214l62,353h76L305,214H230ZM55,355l13,71H543l-13-71H55Z"/>
      <glyph unicode="&#xb2;" glyph-name="gid150" horiz-adv-x="330" d="M52,352l8,48l129,92q32,23 56.5,48.5T276,600q5,29-8,44t-36,15q-26,0-44.5-15.5T161,600H94q11,46 49.5,78T244,710q38,0 63-14.5T342.5,657t4.5-54q-7-41-37-71.5T227,466l-91-60H317l-10-54H52Z"/>
      <glyph unicode="&#xb3;" glyph-name="gid151" horiz-adv-x="329" d="M177,347q-61,0-90.5,27.5T61,454h67q-1-21 6-33.5T154.5,403t30.5-5q30,0 50,14.5T259,452q5,27-12,41.5T201,508H155l8,41h45q29,0 50,14t25,41q5,25-9.5,39.5T230,658q-28,0-46.5-12.5T156,611H93q11,42 51,70.5T245,710q54,0 86-29t24-73q-5-31-26-51t-53-28v-2q28-9 43.5-29.5T329,444q-7-40-48-68.5T177,347Z"/>
      <glyph unicode="&#xb4;" glyph-name="gid257" horiz-adv-x="208" d="M66,545l-4,61L275,733l5-72L66,545Z"/>
      <glyph unicode="&#xb5;" glyph-name="gid223" horiz-adv-x="585" d="M-14-220L113,496h84L148,215q-14-74 10.5-114.5T248,60q42,0 79,20t63.5,58.5T427,232l47,264h84L471,0H395l10,89q-32-47-82-74T216-12q-32,0-58,8.5T113,22L70-220H-14Z"/>
      <glyph unicode="&#xb6;" glyph-name="gid197" horiz-adv-x="592" d="M225-100l70,395H285q-71,0-116.5,26t-67,67.5T80,476q0,73 35,122.5T212.5,674T356,700H596L455-100H381L511,634H428L299-100H225Z"/>
      <glyph unicode="&#xb7;" glyph-name="gid165" horiz-adv-x="200" d="M117,285q-25,0-41.5,16.5T59,342q0,25 16.5,41T117,399t41-16t16-41q0-24-16-40.5T117,285Z"/>
      <glyph unicode="&#xb8;" glyph-name="gid262" horiz-adv-x="228" d="M-90-259l9,53H11q37,0 56,13t20,38q1,22-13,32T28-113H-22L-1,7H56L43-63q36,1 62-8.5t39.5-29T157-150q-2-32-20-56.5T88.5-245T20-259H-90Z"/>
      <glyph unicode="&#xb9;" glyph-name="gid149" horiz-adv-x="204" d="M112,352l51,286L93,620l7,42l98,42h43L179,352H112Z"/>
      <glyph unicode="&#xba;" glyph-name="gid126" horiz-adv-x="458" d="M247,348q-49,0-84,19t-52.5,54.5T96,503q2,59 30.5,106.5t76,75T309,712q49,0 84-19t53-53.5T461,558q-2-60-31.5-107.5t-77-75T247,348Zm8,53q40,0 70,20.5t47.5,55T392,554q2,35-9.5,58.5T350,648t-50,12q-39,0-69-21t-47.5-56T164,508q-2-35 9-59t32.5-36T255,401Z"/>
      <glyph unicode="&#xbb;" glyph-name="gid188" horiz-adv-x="452" d="M171,470l66-175L109,120H26L157,295L88,470h83Zm178,0l66-175L287,120H204L335,295L266,470h83Z"/>
      <glyph unicode="&#xbc;" glyph-name="gid147" horiz-adv-x="775" d="M112,352l51,286L93,620l7,42l98,42h43L179,352H112ZM85,0L616,700h84L169,0H85ZM602,0l12,66H442l9,50L656,348h73L689,120h46L725,66H680L668,0H602ZM520,120H628l27,156L520,120Z"/>
      <glyph unicode="&#xbd;" glyph-name="gid146" horiz-adv-x="854" d="M112,352l51,286L93,620l7,42l98,42h43L179,352H112ZM85,0L616,700h84L169,0H85ZM514,0l8,48l129,92q32,23 56.5,48.5T738,248q5,29-8,44t-36,15q-26,0-44.5-15.5T623,248H556q11,46 49.5,78T706,358q38,0 63-14.5T804.5,305t4.5-54q-7-41-37-71.5T689,114L598,54H779L769,0H514Z"/>
      <glyph unicode="&#xbe;" glyph-name="gid148" horiz-adv-x="840" d="M177,347q-61,0-90.5,27.5T61,454h67q-1-21 6-33.5T154.5,403t30.5-5q30,0 50,14.5T259,452q5,27-12,41.5T201,508H155l8,41h45q29,0 50,14t25,41q5,25-9.5,39.5T230,658q-28,0-46.5-12.5T156,611H93q11,42 51,70.5T245,710q54,0 86-29t24-73q-5-31-26-51t-53-28v-2q28-9 43.5-29.5T329,444q-7-40-48-68.5T177,347ZM150,0L681,700h84L234,0H150ZM667,0l12,66H507l9,50L721,348h73L754,120h46L790,66H745L733,0H667ZM585,120H693l27,156L585,120Z"/>
      <glyph unicode="&#xbf;" glyph-name="gid164" horiz-adv-x="525" d="M377,309L353,154H324q-50,0-93.5-8t-76-26.5T103,68T82-14Q80-49 94-75t42-40.5T202-130q43,0 77.5,16T337-69T367-1h79q-10-60-46.5-105T309-176T190-201q-59,0-103,22T20-116T0-20Q3,57 40.5,108.5T141,186t143,26l21,97h72ZM363,516q25,0 41-16.5T420,459t-16-40.5T363,402t-41,16.5T306,459t16,40.5T363,516Z"/>
      <glyph unicode="&#xc0;" glyph-name="gid6" horiz-adv-x="664" d="M-14,0L368,700h89L590,0H502L394,599L75,0H-14ZM119,180l35,67H502l11-67H119ZM515,753L332,869l24,72L535,814l-20-61Z"/>
      <glyph unicode="&#xc1;" glyph-name="gid2" horiz-adv-x="664" d="M-14,0L368,700h89L590,0H502L394,599L75,0H-14ZM119,180l35,67H502l11-67H119ZM330,753l-4,61L539,941l5-72L330,753Z"/>
      <glyph unicode="&#xc2;" glyph-name="gid4" horiz-adv-x="664" d="M-14,0L368,700h89L590,0H502L394,599L75,0H-14ZM119,180l35,67H502l11-67H119ZM285,760l12,65l152,82l122-82l-12-65L437,844L285,760Z"/>
      <glyph unicode="&#xc3;" glyph-name="gid8" horiz-adv-x="664" d="M-14,0L368,700h89L590,0H502L394,599L75,0H-14ZM119,180l35,67H502l11-67H119ZM272,769q16,50 46,75.5T385,870q27,0 42.5-11.5t29-23.5T492,823q16,0 30,11.5T543,868h49q-15-49-45.5-75T478,767q-27,0-43,12t-29.5,23.5T371,814q-17,0-29.5-11T321,769H272Z"/>
      <glyph unicode="&#xc4;" glyph-name="gid5" horiz-adv-x="664" d="M-14,0L368,700h89L590,0H502L394,599L75,0H-14ZM119,180l35,67H502l11-67H119ZM354,775q-21,0-35.5,14.5T304,825q0,20 14.5,35T354,875t35.5-15T404,825q0-21-14.5-35.5T354,775Zm161,0q-22,0-36,14.5T465,825q0,20 14,35t36,15q20,0 34.5-15T564,825q0-21-14.5-35.5T515,775Z"/>
      <glyph unicode="&#xc5;" glyph-name="gid7" horiz-adv-x="664" d="M-14,0L368,700h89L590,0H502L394,599L75,0H-14ZM119,180l35,67H502l11-67H119ZM442,770q-43,0-74,27.5T337,873t31,75.5T442,976q44,0 74.5-27.5T547,873t-30.5-75.5T442,770Zm0,43q24,0 40.5,16.5T499,873q0,28-16.5,43.5T442,932q-23,0-40-15.5T385,873q0-27 17-43.5T442,813Z"/>
      <glyph unicode="&#xc6;" glyph-name="gid9" horiz-adv-x="912" d="M-14,0L509,700H934l-12-67H633L589,386H848l-11-66H578L533,67H822L810,0H437L549,631L78,0H-14ZM150,159l47,67H515l-12-67H150Z"/>
      <glyph unicode="&#xc7;" glyph-name="gid12" horiz-adv-x="719" d="M335-12q-92,0-155,37.5T86,131T60,289q4,90 35.5,167.5t85.5,135t125,89T460,712q120,0 185.5-57T713,494H619q-2,66-45,105T448,638q-63,0-116-25.5t-93.5-72T174.5,431T148,294q-4-73 18.5-124.5T235,90T347,62q84,0 139.5,38T568,203h94q-26-67-72-115.5t-110.5-74T335-12ZM216-259l9,53h92q37,0 56,13t20,38q1,22-13,32t-46,10H284L305,7h57L349-63q36,1 62-8.5t39.5-29T463-150q-2-32-20-56.5T394.5-245T326-259H216Z"/>
      <glyph unicode="&#xc8;" glyph-name="gid19" horiz-adv-x="545" d="M31,0L154,700H566l-12-68H226L183,386H481l-12-66H171L127,68H454L442,0H31ZM461,753L278,869l24,72L481,814l-20-61Z"/>
      <glyph unicode="&#xc9;" glyph-name="gid16" horiz-adv-x="545" d="M31,0L154,700H566l-12-68H226L183,386H481l-12-66H171L127,68H454L442,0H31ZM276,753l-4,61L485,941l5-72L276,753Z"/>
      <glyph unicode="&#xca;" glyph-name="gid17" horiz-adv-x="545" d="M31,0L154,700H566l-12-68H226L183,386H481l-12-66H171L127,68H454L442,0H31ZM231,760l12,65l152,82l122-82l-12-65L383,844L231,760Z"/>
      <glyph unicode="&#xcb;" glyph-name="gid18" horiz-adv-x="545" d="M31,0L154,700H566l-12-68H226L183,386H481l-12-66H171L127,68H454L442,0H31ZM300,775q-21,0-35.5,14.5T250,825q0,20 14.5,35T300,875t35.5-15T350,825q0-21-14.5-35.5T300,775Zm161,0q-22,0-36,14.5T411,825q0,20 14,35t36,15q20,0 34.5-15T510,825q0-21-14.5-35.5T461,775Z"/>
      <glyph unicode="&#xcc;" glyph-name="gid27" horiz-adv-x="235" d="M31,0L154,700h84L115,0H31ZM300,753L117,869l24,72L320,814l-20-61Z"/>
      <glyph unicode="&#xcd;" glyph-name="gid24" horiz-adv-x="235" d="M31,0L154,700h84L115,0H31Zm84,753l-4,61L324,941l5-72L115,753Z"/>
      <glyph unicode="&#xce;" glyph-name="gid25" horiz-adv-x="235" d="M31,0L154,700h84L115,0H31ZM70,760l12,65l152,82l122-82l-12-65L222,844L70,760Z"/>
      <glyph unicode="&#xcf;" glyph-name="gid26" horiz-adv-x="235" d="M31,0L154,700h84L115,0H31ZM139,775q-21,0-35.5,14.5T89,825q0,20 14.5,35T139,875t35.5-15T189,825q0-21-14.5-35.5T139,775Zm161,0q-22,0-36,14.5T250,825q0,20 14,35t36,15q20,0 34.5-15T349,825q0-21-14.5-35.5T300,775Z"/>
      <glyph unicode="&#xd0;" glyph-name="gid14" horiz-adv-x="717" d="M19,311l13,76H404l-13-76H19ZM56,0L179,700H385q110,0 178.5-35.5T663,562t26-162q-3-90-34-163.5T568.5,110T436,28.5T262,0H56Zm96,70H273q104,0 176,40T560,223t42,172q4,76-17.5,128t-74,79.5T371,630H251L152,70Z"/>
      <glyph unicode="&#xd1;" glyph-name="gid34" horiz-adv-x="692" d="M31,0L154,700h84L512,134l99,566h84L572,0H488L215,566L115,0H31ZM289,769q16,50 46,75.5T402,870q27,0 42.5-11.5t29-23.5T509,823q16,0 30,11.5T560,868h49q-15-49-45.5-75T495,767q-27,0-43,12t-29.5,23.5T388,814q-17,0-29.5-11T338,769H289Z"/>
      <glyph unicode="&#xd2;" glyph-name="gid39" horiz-adv-x="781" d="M345-12q-89,0-154.5,40.5T90.5,140T61,302q4,87 37,161.5t89.5,130t129,87T471,712q89,0 154.5-40T725,561.5T755,399q-4-87-37-162T628.5,106T500,19T345-12Zm12,74q63,0 118,25t97,70t67.5,106T668,396q4,75-21.5,129t-74,83T458,637q-62,0-117-24.5T243.5,543T176,437.5T148,306q-4-75 21-130t73.5-84.5T357,62ZM577,753L394,869l24,72L597,814l-20-61Z"/>
      <glyph unicode="&#xd3;" glyph-name="gid36" horiz-adv-x="781" d="M345-12q-89,0-154.5,40.5T90.5,140T61,302q4,87 37,161.5t89.5,130t129,87T471,712q89,0 154.5-40T725,561.5T755,399q-4-87-37-162T628.5,106T500,19T345-12Zm12,74q63,0 118,25t97,70t67.5,106T668,396q4,75-21.5,129t-74,83T458,637q-62,0-117-24.5T243.5,543T176,437.5T148,306q-4-75 21-130t73.5-84.5T357,62Zm35,691l-4,61L601,941l5-72L392,753Z"/>
      <glyph unicode="&#xd4;" glyph-name="gid37" horiz-adv-x="781" d="M345-12q-89,0-154.5,40.5T90.5,140T61,302q4,87 37,161.5t89.5,130t129,87T471,712q89,0 154.5-40T725,561.5T755,399q-4-87-37-162T628.5,106T500,19T345-12Zm12,74q63,0 118,25t97,70t67.5,106T668,396q4,75-21.5,129t-74,83T458,637q-62,0-117-24.5T243.5,543T176,437.5T148,306q-4-75 21-130t73.5-84.5T357,62ZM347,760l12,65l152,82l122-82l-12-65L499,844L347,760Z"/>
      <glyph unicode="&#xd5;" glyph-name="gid41" horiz-adv-x="781" d="M345-12q-89,0-154.5,40.5T90.5,140T61,302q4,87 37,161.5t89.5,130t129,87T471,712q89,0 154.5-40T725,561.5T755,399q-4-87-37-162T628.5,106T500,19T345-12Zm12,74q63,0 118,25t97,70t67.5,106T668,396q4,75-21.5,129t-74,83T458,637q-62,0-117-24.5T243.5,543T176,437.5T148,306q-4-75 21-130t73.5-84.5T357,62ZM334,769q16,50 46,75.5T447,870q27,0 42.5-11.5t29-23.5T554,823q16,0 30,11.5T605,868h49q-15-49-45.5-75T540,767q-27,0-43,12t-29.5,23.5T433,814q-17,0-29.5-11T383,769H334Z"/>
      <glyph unicode="&#xd6;" glyph-name="gid38" horiz-adv-x="781" d="M345-12q-89,0-154.5,40.5T90.5,140T61,302q4,87 37,161.5t89.5,130t129,87T471,712q89,0 154.5-40T725,561.5T755,399q-4-87-37-162T628.5,106T500,19T345-12Zm12,74q63,0 118,25t97,70t67.5,106T668,396q4,75-21.5,129t-74,83T458,637q-62,0-117-24.5T243.5,543T176,437.5T148,306q-4-75 21-130t73.5-84.5T357,62Zm59,713q-21,0-35.5,14.5T366,825q0,20 14.5,35T416,875t35.5-15T466,825q0-21-14.5-35.5T416,775Zm161,0q-22,0-36,14.5T527,825q0,20 14,35t36,15q20,0 34.5-15T626,825q0-21-14.5-35.5T577,775Z"/>
      <glyph unicode="&#xd7;" glyph-name="gid214" horiz-adv-x="550" d="M115,106L73,156L231,291L126,420l58,48L290,340L449,476l41-50L331,290L437,161l-58-48L273,241L115,106Z"/>
      <glyph unicode="&#xd8;" glyph-name="gid40" horiz-adv-x="776" d="M-10,0L733,700h89L80,0H-10ZM347-12q-90,0-155,40.5T92.5,140T63,302q3,87 36.5,161.5t89.5,130t129,87T472,712q90,0 155.5-40T727,561.5T756,399q-3-87-36-162T630.5,106T502,19T347-12Zm12,74q63,0 118,25t97,70t67.5,106T670,396q4,75-21.5,129t-74,83T460,637q-62,0-117-24.5T245.5,543T178,437.5T150,306q-4-75 21-130t73.5-84.5T359,62Z"/>
      <glyph unicode="&#xd9;" glyph-name="gid53" horiz-adv-x="655" d="M281-12q-80,0-132.5,31.5T75,111.5T69,258l79,442h84L153,258q-11-62 1.5-105.5t47.5-66T295,64q53,0 95.5,20t72,63T504,258l79,442h84L589,258q-16-93-61.5-152.5T418,17T281-12ZM519,753L336,869l24,72L539,814l-20-61Z"/>
      <glyph unicode="&#xda;" glyph-name="gid50" horiz-adv-x="655" d="M281-12q-80,0-132.5,31.5T75,111.5T69,258l79,442h84L153,258q-11-62 1.5-105.5t47.5-66T295,64q53,0 95.5,20t72,63T504,258l79,442h84L589,258q-16-93-61.5-152.5T418,17T281-12Zm53,765l-4,61L543,941l5-72L334,753Z"/>
      <glyph unicode="&#xdb;" glyph-name="gid51" horiz-adv-x="655" d="M281-12q-80,0-132.5,31.5T75,111.5T69,258l79,442h84L153,258q-11-62 1.5-105.5t47.5-66T295,64q53,0 95.5,20t72,63T504,258l79,442h84L589,258q-16-93-61.5-152.5T418,17T281-12Zm8,772l12,65l152,82l122-82l-12-65L441,844L289,760Z"/>
      <glyph unicode="&#xdc;" glyph-name="gid52" horiz-adv-x="655" d="M281-12q-80,0-132.5,31.5T75,111.5T69,258l79,442h84L153,258q-11-62 1.5-105.5t47.5-66T295,64q53,0 95.5,20t72,63T504,258l79,442h84L589,258q-16-93-61.5-152.5T418,17T281-12Zm77,787q-21,0-35.5,14.5T308,825q0,20 14.5,35T358,875t35.5-15T408,825q0-21-14.5-35.5T358,775Zm161,0q-22,0-36,14.5T469,825q0,20 14,35t36,15q20,0 34.5-15T568,825q0-21-14.5-35.5T519,775Z"/>
      <glyph unicode="&#xdd;" glyph-name="gid58" horiz-adv-x="580" d="M204,0l47,266L99,700h95L306,346L544,700h95L335,266L288,0H204Zm93,753l-4,61L506,941l5-72L297,753Z"/>
      <glyph unicode="&#xde;" glyph-name="gid44" horiz-adv-x="583" d="M31,0L154,700h84L213,554H359q75,0 121-23.5t67-64T565,375q-3-69-37.5-120t-96-79.5T287,147H141L115,0H31ZM153,217H298q85,0 131.5,42T478,374q3,53-28,81.5T345,484H201L153,217Z"/>
      <glyph unicode="&#xdf;" glyph-name="gid109" horiz-adv-x="660" d="M391-10q-86,0-132,48.5T220,169h83q-5-52 21-82.5T401,56t83.5,27.5T518,158q2,21-6,36.5t-27.5,28T434,246q-68,25-97.5,50.5T309,364q1,32 19,54t44,38t52.5,32.5t44,37T487,576q2,39-28,62t-88,23q-74,0-115.5-40.5T201,511L110,0H27l92,519q11,61 44.5,109.5t89.5,76T384,732q66,0 108.5-19.5T555,660t18-73q-1-40-19.5-66.5t-44-45T458,443t-44-28.5T396,379q-1-13 7-24t30-22t62-26q61-22 86.5-55T604,166q-2-51-29.5-91t-75-62.5T391-10Z"/>
      <glyph unicode="&#xe0;" glyph-name="gid64" horiz-adv-x="552" d="M186-12Q130-12 94.5,7.5T43,59.5T29,129q2,54 33,93t86,60t126,21H407q8,48-0.5,79.5t-33.5,47T308,445q-48,0-87-24t-56-71H78q16,54 52.5,90.5t85.5,56T319,516q68,0 110.5-25.5t58-71T492,312L438,0H362l11,89q-14-21-32.5-39.5T299,17T248-4.5T186-12Zm25,71q35,0 67.5,14.5t58,39.5t41,56T394,234l1,4H269q-47,0-80.5-12.5t-51-35T118,137q-2-36 22-57t71-21ZM418,545L235,661l24,72L438,606l-20-61Z"/>
      <glyph unicode="&#xe1;" glyph-name="gid61" horiz-adv-x="552" d="M186-12Q130-12 94.5,7.5T43,59.5T29,129q2,54 33,93t86,60t126,21H407q8,48-0.5,79.5t-33.5,47T308,445q-48,0-87-24t-56-71H78q16,54 52.5,90.5t85.5,56T319,516q68,0 110.5-25.5t58-71T492,312L438,0H362l11,89q-14-21-32.5-39.5T299,17T248-4.5T186-12Zm25,71q35,0 67.5,14.5t58,39.5t41,56T394,234l1,4H269q-47,0-80.5-12.5t-51-35T118,137q-2-36 22-57t71-21Zm20,486l-4,61L440,733l5-72L231,545Z"/>
      <glyph unicode="&#xe2;" glyph-name="gid62" horiz-adv-x="552" d="M186-12Q130-12 94.5,7.5T43,59.5T29,129q2,54 33,93t86,60t126,21H407q8,48-0.5,79.5t-33.5,47T308,445q-48,0-87-24t-56-71H78q16,54 52.5,90.5t85.5,56T319,516q68,0 110.5-25.5t58-71T492,312L438,0H362l11,89q-14-21-32.5-39.5T299,17T248-4.5T186-12Zm25,71q35,0 67.5,14.5t58,39.5t41,56T394,234l1,4H269q-47,0-80.5-12.5t-51-35T118,137q-2-36 22-57t71-21ZM186,559l12,65l152,82l122-82l-12-65L338,643L186,559Z"/>
      <glyph unicode="&#xe3;" glyph-name="gid66" horiz-adv-x="552" d="M186-12Q130-12 94.5,7.5T43,59.5T29,129q2,54 33,93t86,60t126,21H407q8,48-0.5,79.5t-33.5,47T308,445q-48,0-87-24t-56-71H78q16,54 52.5,90.5t85.5,56T319,516q68,0 110.5-25.5t58-71T492,312L438,0H362l11,89q-14-21-32.5-39.5T299,17T248-4.5T186-12Zm25,71q35,0 67.5,14.5t58,39.5t41,56T394,234l1,4H269q-47,0-80.5-12.5t-51-35T118,137q-2-36 22-57t71-21ZM173,565q16,50 46,75.5T286,666q27,0 42.5-11.5t29-23.5T393,619q16,0 30,11.5T444,664h49q-15-49-45.5-75T379,563q-27,0-43,12t-29.5,23.5T272,610q-17,0-29.5-11T222,565H173Z"/>
      <glyph unicode="&#xe4;" glyph-name="gid63" horiz-adv-x="552" d="M186-12Q130-12 94.5,7.5T43,59.5T29,129q2,54 33,93t86,60t126,21H407q8,48-0.5,79.5t-33.5,47T308,445q-48,0-87-24t-56-71H78q16,54 52.5,90.5t85.5,56T319,516q68,0 110.5-25.5t58-71T492,312L438,0H362l11,89q-14-21-32.5-39.5T299,17T248-4.5T186-12Zm25,71q35,0 67.5,14.5t58,39.5t41,56T394,234l1,4H269q-47,0-80.5-12.5t-51-35T118,137q-2-36 22-57t71-21Zm44,517q-21,0-35.5,14.5T205,626q0,20 14.5,35T255,676t35.5-15T305,626q0-21-14.5-35.5T255,576Zm161,0q-22,0-36,14.5T366,626q0,20 14,35t36,15q20,0 34.5-15T465,626q0-21-14.5-35.5T416,576Z"/>
      <glyph unicode="&#xe5;" glyph-name="gid65" horiz-adv-x="552" d="M186-12Q130-12 94.5,7.5T43,59.5T29,129q2,54 33,93t86,60t126,21H407q8,48-0.5,79.5t-33.5,47T308,445q-48,0-87-24t-56-71H78q16,54 52.5,90.5t85.5,56T319,516q68,0 110.5-25.5t58-71T492,312L438,0H362l11,89q-14-21-32.5-39.5T299,17T248-4.5T186-12Zm25,71q35,0 67.5,14.5t58,39.5t41,56T394,234l1,4H269q-47,0-80.5-12.5t-51-35T118,137q-2-36 22-57t71-21ZM343,566q-43,0-74,27.5T238,669t31,75.5T343,772q44,0 74.5-27.5T448,669t-30.5-75.5T343,566Zm0,43q24,0 40.5,16.5T400,669q0,28-16.5,43.5T343,728q-23,0-40-15.5T286,669q0-27 17-43.5T343,609Z"/>
      <glyph unicode="&#xe6;" glyph-name="gid67" horiz-adv-x="925" d="M189-12Q132-12 95.5,7T43,57.5T29,126q2,55 33,94.5t84,61T268,303H413q8,46 0,77.5t-32.5,48T314,445q-48,0-87-24t-56-71H85q15,54 52.5,90.5t87.5,56T326,516q45,0 77.5-10.5t54-30.5T490,426q40,42 93,66t114,24q67,0 111-28t64.5-74.5T890,311q0-11-2.5-27.5t-5-30.5T879,233H485q-8-50 5.5-89t46-62T615,59q56,0 96.5,26.5T775,158h82q-20-49-57-87.5T713,10T602-12q-68,0-116.5,32T416,108q-24-34-58.5-61T280,4T189-12Zm21,71q45,0 83,22t65.5,58.5T397,219l3,19H263q-44,0-76.5-12t-50-34.5T118,137q-2-23 8.5-40.5t32-27.5T210,59ZM497,298H808q6,47-8.5,79.5t-44.5,50T683,445q-40,0-77.5-16.5t-66-49.5T497,298Z"/>
      <glyph unicode="&#xe7;" glyph-name="gid70" horiz-adv-x="574" d="M251-12q-63,0-111,28.5T67.5,96T46,215q3,66 27,121t65,95t93.5,62.5T344,516q90,0 142.5-47.5T541,341H455q-1,51-36.5,77T332,444q-53,0-97-28t-71.5-77.5T133,222q-2-39 7-69.5t27-51T209.5,70T264,59q34,0 65.5,12T386,106t38,57h86q-19-51-57-90.5t-90-62T251-12ZM127-259l9,53h92q37,0 56,13t20,38q1,22-13,32t-46,10H195L216,7h57L260-63q36,1 62-8.5t39.5-29T374-150q-2-32-20-56.5T305.5-245T237-259H127Z"/>
      <glyph unicode="&#xe8;" glyph-name="gid77" horiz-adv-x="570" d="M246-12q-63,0-109.5,28t-70,79T46,214q3,65 26,119.5T134.5,429T226,493t113,23q68,0 112.5-28T517,413.5T535,311q-1-17-4.5-38.5T523,233H111l11,65H452q7,47-8,79.5t-45,50T327,445q-43,0-82.5-19.5t-68.5-57T137,275l-5-28q-11-56 2-99t45.5-66T259,59q53,0 91.5,23.5T411,146h83q-21-45-56.5-81t-84-56.5T246-12ZM440,545L257,661l24,72L460,606l-20-61Z"/>
      <glyph unicode="&#xe9;" glyph-name="gid74" horiz-adv-x="570" d="M246-12q-63,0-109.5,28t-70,79T46,214q3,65 26,119.5T134.5,429T226,493t113,23q68,0 112.5-28T517,413.5T535,311q-1-17-4.5-38.5T523,233H111l11,65H452q7,47-8,79.5t-45,50T327,445q-43,0-82.5-19.5t-68.5-57T137,275l-5-28q-11-56 2-99t45.5-66T259,59q53,0 91.5,23.5T411,146h83q-21-45-56.5-81t-84-56.5T246-12Zm6,557l-4,61L461,733l5-72L252,545Z"/>
      <glyph unicode="&#xea;" glyph-name="gid75" horiz-adv-x="570" d="M246-12q-63,0-109.5,28t-70,79T46,214q3,65 26,119.5T134.5,429T226,493t113,23q68,0 112.5-28T517,413.5T535,311q-1-17-4.5-38.5T523,233H111l11,65H452q7,47-8,79.5t-45,50T327,445q-43,0-82.5-19.5t-68.5-57T137,275l-5-28q-11-56 2-99t45.5-66T259,59q53,0 91.5,23.5T411,146h83q-21-45-56.5-81t-84-56.5T246-12ZM207,559l12,65l152,82l122-82l-12-65L359,643L207,559Z"/>
      <glyph unicode="&#xeb;" glyph-name="gid76" horiz-adv-x="570" d="M246-12q-63,0-109.5,28t-70,79T46,214q3,65 26,119.5T134.5,429T226,493t113,23q68,0 112.5-28T517,413.5T535,311q-1-17-4.5-38.5T523,233H111l11,65H452q7,47-8,79.5t-45,50T327,445q-43,0-82.5-19.5t-68.5-57T137,275l-5-28q-11-56 2-99t45.5-66T259,59q53,0 91.5,23.5T411,146h83q-21-45-56.5-81t-84-56.5T246-12Zm30,588q-21,0-35.5,14.5T226,626q0,20 14.5,35T276,676t35.5-15T326,626q0-21-14.5-35.5T276,576Zm161,0q-22,0-36,14.5T387,626q0,20 14,35t36,15q20,0 34.5-15T486,626q0-21-14.5-35.5T437,576Z"/>
      <glyph unicode="&#xec;" glyph-name="gid87" horiz-adv-x="224" d="M26,0l88,504h84L110,0H26ZM260,545L77,661l24,72L280,606l-20-61Z"/>
      <glyph unicode="&#xed;" glyph-name="gid83" horiz-adv-x="224" d="M26,0l88,504h84L110,0H26ZM73,545l-4,61L282,733l5-72L73,545Z"/>
      <glyph unicode="&#xee;" glyph-name="gid84" horiz-adv-x="224" d="M26,0l88,504h84L110,0H26Zm2,559l12,65l152,82l122-82l-12-65L180,643L28,559Z"/>
      <glyph unicode="&#xef;" glyph-name="gid85" horiz-adv-x="224" d="M26,0l88,504h84L110,0H26ZM97,576q-21,0-35.5,14.5T47,626q0,20 14.5,35T97,676t35.5-15T147,626q0-21-14.5-35.5T97,576Zm161,0q-22,0-36,14.5T208,626q0,20 14,35t36,15q20,0 34.5-15T307,626q0-21-14.5-35.5T258,576Z"/>
      <glyph unicode="&#xf0;" glyph-name="gid72" horiz-adv-x="615" d="M267-12q-72,0-122.5,32t-76,86T47,226q3,61 27,113t64.5,91t93,60.5T344,512q46,0 87.5-15.5T497,442q-6,35-18.5,68.5t-31,65.5t-43,63T348,700h84q43-42 71-87.5T547.5,520T570,426t4-91q-2-87-29-152T474.5,74.5t-97-65T267-12Zm10,71q40,0 76,16.5T417,122t45,70t20,86q3,53-15.5,89.5t-52.5,55T337,441q-54,0-99.5-28t-73-75T134,231q-3-53 14-91.5T198.5,80T277,59Zm14,492l11,57L606,708l-10-57L291,551Z"/>
      <glyph unicode="&#xf1;" glyph-name="gid95" horiz-adv-x="574" d="M26,0l88,504h76l-10-88q32,47 81,73.5T367,516q62,0 100.5-26.5T520,415t2-114L469,0H385l51,292q13,73-12,112.5T336,444q-41,0-77.5-20T196,367t-38-91L110,0H26ZM192,565q16,50 46,75.5T305,666q27,0 42.5-11.5t29-23.5T412,619q16,0 30,11.5T463,664h49q-15-49-45.5-75T398,563q-27,0-43,12t-29.5,23.5T291,610q-17,0-29.5-11T241,565H192Z"/>
      <glyph unicode="&#xf2;" glyph-name="gid100" horiz-adv-x="596" d="M255-12q-65,0-113.5,29.5T68,99.5T46,219q3,64 26.5,118.5t64,94t93,62T341,516q65,0 113.5-29t74-80T550,287q-3-65-26.5-119.5T459.5,73T367,10.5T255-12Zm11,72q54,0 97.5,28T434,166.5T464,282q3,53-14.5,88.5t-49,54.5T330,444q-53,0-96-28.5T164,337T134,221q-3-51 14-87t48.5-55T266,60ZM445,545L262,661l24,72L465,606l-20-61Z"/>
      <glyph unicode="&#xf3;" glyph-name="gid97" horiz-adv-x="596" d="M255-12q-65,0-113.5,29.5T68,99.5T46,219q3,64 26.5,118.5t64,94t93,62T341,516q65,0 113.5-29t74-80T550,287q-3-65-26.5-119.5T459.5,73T367,10.5T255-12Zm11,72q54,0 97.5,28T434,166.5T464,282q3,53-14.5,88.5t-49,54.5T330,444q-53,0-96-28.5T164,337T134,221q-3-51 14-87t48.5-55T266,60Zm-8,485l-4,61L467,733l5-72L258,545Z"/>
      <glyph unicode="&#xf4;" glyph-name="gid98" horiz-adv-x="596" d="M255-12q-65,0-113.5,29.5T68,99.5T46,219q3,64 26.5,118.5t64,94t93,62T341,516q65,0 113.5-29t74-80T550,287q-3-65-26.5-119.5T459.5,73T367,10.5T255-12Zm11,72q54,0 97.5,28T434,166.5T464,282q3,53-14.5,88.5t-49,54.5T330,444q-53,0-96-28.5T164,337T134,221q-3-51 14-87t48.5-55T266,60ZM213,559l12,65l152,82l122-82l-12-65L365,643L213,559Z"/>
      <glyph unicode="&#xf5;" glyph-name="gid102" horiz-adv-x="596" d="M255-12q-65,0-113.5,29.5T68,99.5T46,219q3,64 26.5,118.5t64,94t93,62T341,516q65,0 113.5-29t74-80T550,287q-3-65-26.5-119.5T459.5,73T367,10.5T255-12Zm11,72q54,0 97.5,28T434,166.5T464,282q3,53-14.5,88.5t-49,54.5T330,444q-53,0-96-28.5T164,337T134,221q-3-51 14-87t48.5-55T266,60ZM200,565q16,50 46,75.5T313,666q27,0 42.5-11.5t29-23.5T420,619q16,0 30,11.5T471,664h49q-15-49-45.5-75T406,563q-27,0-43,12t-29.5,23.5T299,610q-17,0-29.5-11T249,565H200Z"/>
      <glyph unicode="&#xf6;" glyph-name="gid99" horiz-adv-x="596" d="M255-12q-65,0-113.5,29.5T68,99.5T46,219q3,64 26.5,118.5t64,94t93,62T341,516q65,0 113.5-29t74-80T550,287q-3-65-26.5-119.5T459.5,73T367,10.5T255-12Zm11,72q54,0 97.5,28T434,166.5T464,282q3,53-14.5,88.5t-49,54.5T330,444q-53,0-96-28.5T164,337T134,221q-3-51 14-87t48.5-55T266,60Zm16,516q-21,0-35.5,14.5T232,626q0,20 14.5,35T282,676t35.5-15T332,626q0-21-14.5-35.5T282,576Zm161,0q-22,0-36,14.5T393,626q0,20 14,35t36,15q20,0 34.5-15T492,626q0-21-14.5-35.5T443,576Z"/>
      <glyph unicode="&#xf7;" glyph-name="gid215" horiz-adv-x="550" d="M76,255l12,71H486l-12-71H76ZM258,90q-25,0-41.5,16.5T200,147t16.5,40.5T258,204t41-16.5T315,147t-16-40.5T258,90Zm50,288q-25,0-41,16.5T251,435t16,40.5T308,492t41-16.5T365,435t-16-40.5T308,378Z"/>
      <glyph unicode="&#xf8;" glyph-name="gid101" horiz-adv-x="597" d="M-4,0L522,504h79L76,0H-4ZM259-12q-65,0-113.5,29.5T72,99.5T50,219q3,64 26.5,118.5t64,94t93,62T345,516q65,0 113.5-29t74-80T554,287q-3-65-26.5-119.5T463.5,73T371,10.5T259-12Zm11,72q54,0 97.5,28T438,166.5T468,282q3,53-14.5,88.5t-49,54.5T334,444q-53,0-96-28.5T168,337T138,221q-3-51 14-87t48.5-55T270,60Z"/>
      <glyph unicode="&#xf9;" glyph-name="gid115" horiz-adv-x="575" d="M208-12q-63,0-101.5,27.5T54.5,92T53,205l53,299h84L138,211q-13-72 10-111.5T236,60q42,0 79,19.5t64,57T416,228l49,276h84L461,0H385l9,88q-30-47-79.5-73.5T208-12ZM437,545L254,661l24,72L457,606l-20-61Z"/>
      <glyph unicode="&#xfa;" glyph-name="gid112" horiz-adv-x="575" d="M208-12q-63,0-101.5,27.5T54.5,92T53,205l53,299h84L138,211q-13-72 10-111.5T236,60q42,0 79,19.5t64,57T416,228l49,276h84L461,0H385l9,88q-30-47-79.5-73.5T208-12Zm42,557l-4,61L459,733l5-72L250,545Z"/>
      <glyph unicode="&#xfb;" glyph-name="gid113" horiz-adv-x="575" d="M208-12q-63,0-101.5,27.5T54.5,92T53,205l53,299h84L138,211q-13-72 10-111.5T236,60q42,0 79,19.5t64,57T416,228l49,276h84L461,0H385l9,88q-30-47-79.5-73.5T208-12Zm-3,571l12,65l152,82l122-82l-12-65L357,643L205,559Z"/>
      <glyph unicode="&#xfc;" glyph-name="gid114" horiz-adv-x="575" d="M208-12q-63,0-101.5,27.5T54.5,92T53,205l53,299h84L138,211q-13-72 10-111.5T236,60q42,0 79,19.5t64,57T416,228l49,276h84L461,0H385l9,88q-30-47-79.5-73.5T208-12Zm66,588q-21,0-35.5,14.5T224,626q0,20 14.5,35T274,676t35.5-15T324,626q0-21-14.5-35.5T274,576Zm161,0q-22,0-36,14.5T385,626q0,20 14,35t36,15q20,0 34.5-15T484,626q0-21-14.5-35.5T435,576Z"/>
      <glyph unicode="&#xfd;" glyph-name="gid120" horiz-adv-x="557" d="M43-220L211,50H183L65,504h87l99-392L493,504h88L130-220H43ZM241,545l-4,61L450,733l5-72L241,545Z"/>
      <glyph unicode="&#xfe;" glyph-name="gid105" horiz-adv-x="622" d="M-14-220L152,720h84L185,425q20,25 47,45t62.5,33T375,516q66,0 112-30t69-82t19-117q-2-64-25-118.5t-61.5-95T399,10.5T288-12q-40,0-73,13.5t-56,35T125,84L70-220H-14ZM293,61q54,0 97.5,28T460,166t29,112q3,48-13.5,85.5T428,422t-75,21q-55,0-99-29t-71-78.5T154,223q-3-49 13.5-85.5T216,81t77-20Z"/>
      <glyph unicode="&#xff;" glyph-name="gid121" horiz-adv-x="557" d="M43-220L211,50H183L65,504h87l99-392L493,504h88L130-220H43ZM265,576q-21,0-35.5,14.5T215,626q0,20 14.5,35T265,676t35.5-15T315,626q0-21-14.5-35.5T265,576Zm161,0q-22,0-36,14.5T376,626q0,20 14,35t36,15q20,0 34.5-15T475,626q0-21-14.5-35.5T426,576Z"/>
      <glyph unicode="&#x2013;" glyph-name="gid172" horiz-adv-x="643" d="M74,260l12,71H610l-13-71H74Z"/>
      <glyph unicode="&#x2014;" glyph-name="gid173" horiz-adv-x="847" d="M74,260l12,71H814l-12-71H74Z"/>
      <glyph unicode="&#x2018;" glyph-name="gid185" horiz-adv-x="217" d="M82,470L213,700h60L176,470H82Z"/>
      <glyph unicode="&#x2019;" glyph-name="gid186" horiz-adv-x="217" d="M251,699L119,469H59l98,230h94Z"/>
      <glyph unicode="&#x201a;" glyph-name="gid181" horiz-adv-x="189" d="M-61-122L36,106h94L-1-122H-61Z"/>
      <glyph unicode="&#x201c;" glyph-name="gid183" horiz-adv-x="375" d="M240,470L372,700h60L335,470H240ZM82,470L213,700h60L176,470H82Z"/>
      <glyph unicode="&#x201d;" glyph-name="gid184" horiz-adv-x="375" d="M251,699L119,469H59l97,230h95Zm158,0L278,469H218l97,230h94Z"/>
      <glyph unicode="&#x201e;" glyph-name="gid182" horiz-adv-x="357" d="M-61-122L36,106h94L-1-122H-61Zm168,0l97,228h94L167-122H107Z"/>
      <glyph unicode="&#x2022;" glyph-name="gid166" horiz-adv-x="365" d="M196,213q-32,0-59.5,16t-44,43.5T76,333q0,34 16.5,61.5t44,43.5T196,454q35,0 62-16t43-43.5T317,334q0-34-16-61.5T258,229t-62-16Z"/>
      <glyph unicode="&#x2039;" glyph-name="gid189" horiz-adv-x="275" d="M117,120L51,295L179,470h83L131,295l70-175H117Z"/>
      <glyph unicode="&#x203a;" glyph-name="gid190" horiz-adv-x="275" d="M172,470l66-175L110,120H27L158,295L88,470h84Z"/>
    </font>
</defs>
</svg>
