<?xml version="1.0" standalone="no"?>
<!DOCTYPE svg PUBLIC "-//W3C//DTD SVG 1.1//EN" "http://www.w3.org/Graphics/SVG/1.1/DTD/svg11.dtd">
<svg xmlns="http://www.w3.org/2000/svg">
  <defs>
    <font id="DMSans" horiz-adv-x="540">
      <font-face font-family="DM Sans 9pt" units-per-em="1000" panose-1="0 0 0 0 0 0 0 0 0 0" ascent="992" descent="-310" alphabetic="0"/>
      <glyph unicode=" " glyph-name="gid153" horiz-adv-x="266"/>
      <glyph unicode="!" glyph-name="gid161" horiz-adv-x="250" d="M90,199L80,700h91L161,199H90ZM125-5Q101-5 84.5,11.5T68,52T84.5,92.5T125,109q26,0 41.5-16.5T182,52T166.5,11.5T125-5Z"/>
      <glyph unicode="&quot;" glyph-name="gid191" horiz-adv-x="291" d="M185,551L173,755h80L243,551H185ZM49,551L38,755h80L107,551H49Z"/>
      <glyph unicode="#" glyph-name="gid168" horiz-adv-x="804" d="M434,0L582,706h79L514,0H434ZM144,0L292,706h80L224,0H144ZM46,197v75H714V197H46ZM87,435v74H757V435H87Z"/>
      <glyph unicode="$" glyph-name="gid207" horiz-adv-x="580" d="M255-87V791h69V-87H255Zm43,75q-77,0-134,28T76,94T45,210h88q0-41 19-75.5t55.5-55T298,59q47,0 80.5,15.5t51,42.5T447,178q0,41-17.5,66.5T382,286t-69.5,28.5T230,341q-83,28-122,70T69,520q0,57 26.5,100t76,67.5T289,712q67,0 116.5-25T483,618.5T511,518H423q0,29-15,57t-45.5,46.5T286,640q-38,1-67.5-12.5t-46-38.5T156,528q0-34 14.5-55t42-35.5T277,411t82-27q51-17 90.5-41.5t62-62.5T534,183q0-50-26.5-94.5T429,16T298-12Z"/>
      <glyph unicode="%" glyph-name="gid224" horiz-adv-x="786" d="M145,0L552,700h84L229,0H145ZM586-12q-45,0-81,20.5T447.5,67T426,156q0,52 21.5,89.5t57.5,58T586,324q46,0 81.5-20.5t56.5-58T745,156q0-51-21-89T667,8.5T586-12Zm-1,65q24,0 44,11.5T661.5,99T674,156q0,35-12,58t-32,34.5T586,260q-23,0-43.5-11.5t-33-34.5T497,156q0-34 12.5-57T542,64.5T585,53ZM201,375q-45,0-81,20.5T62.5,454T41,543q0,52 21.5,89.5t58,58T202,711t81-20.5t57-58T361,543q0-51-21-89t-57.5-58.5T201,375Zm0,65q24,0 44,11.5T277,486t12,57q0,35-12,58.5t-32,35T202,648t-44-11.5t-33.5-35T112,543q0-34 12.5-57t33-34.5T201,440Z"/>
      <glyph unicode="&amp;" glyph-name="gid196" horiz-adv-x="734" d="M603,0L222,388q-46,46-66,84t-20,84q0,45 22,80.5T220.5,692T318,712q55,0 95.5-20.5T476,635t21-83H414q0,45-28.5,68.5T318,644q-46,0-72.5-24.5T219,557q0-32 18-63t52-68L709,0H603ZM279-12q-71,0-124.5,26.5T71.5,89T42,202q0,50 20.5,92.5t61.5,75T224,422l32,11l44-55l-38-13q-69-25-102.5-65T126,205q0-41 19.5-74T200,79t81-19q59,0 104.5,25.5T478,169q21,26 43,60.5T568,307l31,55h89l-45-80q-27-50-53.5-91T536,118Q479,49 417.5,18.5T279-12Z"/>
      <glyph unicode="&apos;" glyph-name="gid192" horiz-adv-x="159" d="M51,551L38,755h83L109,551H51Z"/>
      <glyph unicode="(" glyph-name="gid175" horiz-adv-x="373" d="M249-145Q195-93 149-21.5T75.5,139T48,333T75.5,527T149,688T249,811h86v-8q-61-60-106.5-134t-71-158.5T132,333t25.5-177.5T229-3T335-137v-8H249Z"/>
      <glyph unicode=")" glyph-name="gid176" horiz-adv-x="373" d="M124-145H38v8Q99-77 144.5-3t71,158.5T241,333T215.5,510.5T144.5,669T38,803v8h86q55-51 100.5-123t73-161T325,333T297.5,139t-73-160.5T124-145Z"/>
      <glyph unicode="*" glyph-name="gid167" horiz-adv-x="480" d="M209,360l12,153L97,426L62,487l139,61L63,608l33,59l126-87L208,733h68L261,580l125,87l32-58L280,547l139-61l-33-59L261,513l14-153H209Z"/>
      <glyph unicode="+" glyph-name="gid212" horiz-adv-x="550" d="M237,72V508h75V72H237ZM46,255v71H503V255H46Z"/>
      <glyph unicode="," glyph-name="gid157" horiz-adv-x="182" d="M4-123L62,98h87L62-123H4Z"/>
      <glyph unicode="-" glyph-name="gid171" horiz-adv-x="541" d="M72,260v71H468V260H72Z"/>
      <glyph unicode="." glyph-name="gid156" horiz-adv-x="198" d="M100-5Q75-5 58.5,11.5T42,52T58.5,92.5T100,109t41-16.5T157,52T141,11.5T100-5Z"/>
      <glyph unicode="/" glyph-name="gid169" horiz-adv-x="392" d="M28-95L279,764h83L111-95H28Z"/>
      <glyph unicode="0" glyph-name="gid127" horiz-adv-x="684" d="M343-12q-92,0-158.5,45.5T83,160.5T48,350T83,539.5t101.5,127T343,712t157.5-45.5T601,539.5T636,350T601,160.5T500.5,33.5T343-12Zm-1,74q60,0 107,34.5t74,99T550,350T523,504.5T449,603T342,637T234.5,603t-74-98.5T134,350t26.5-154.5t74-99T342,62Z"/>
      <glyph unicode="1" glyph-name="gid128" horiz-adv-x="312" d="M152,0V606L32,576v60l148,64h57V0H152Z"/>
      <glyph unicode="2" glyph-name="gid129" horiz-adv-x="576" d="M64,0V59q71,56 135.5,113T314,285.5T392.5,396T421,500q0,37-13,68.5T366.5,620T290,640q-47,0-78-20.5t-46.5-54T150,492H69q1,69 29.5,118.5T177,686t114,26q63,0 111-23.5T477.5,619T505,503q0-49-20.5-98T430,309.5T354.5,220t-85-81T188,70H529V0H64Z"/>
      <glyph unicode="3" glyph-name="gid130" horiz-adv-x="591" d="M293-12q-67,0-121.5,24.5T85,86T51,208h85q1-40 19.5-73.5T209,81t84-20t82,19t50,50.5T442,201q0,49-23.5,79.5t-63,45T269,340H217v71h52q69,0 108,32t39,88q0,46-30.5,77T293,639q-59,0-94-34t-40-87H74q3,57 31,101t76,68.5T294,712q68,0 114-24t69.5-64T501,536q0-36-13-67.5T449,413t-66-34q41-8 73.5-31T508,287.5T527,201q0-57-26.5-105.5T422,17.5T293-12Z"/>
      <glyph unicode="4" glyph-name="gid131" horiz-adv-x="607" d="M392,0V150H37v65L377,700h98V224H579V150H475V0H392ZM130,224H396V607L130,224Z"/>
      <glyph unicode="5" glyph-name="gid132" horiz-adv-x="610" d="M311-12q-72,0-124.5,26t-83,71T65,186h82q12-56 55-91T312,60q50,0 85.5,23t55,63T472,235q0,51-20,90t-55,60.5T315,407q-57,0-97-25t-60-64H77l58,382H505V627H200L161,412q25,29 66.5,47.5T324,478q52,0 94-18t72-51t46.5-77T553,236q0-51-16.5-95.5T489,61.5t-76-54T311-12Z"/>
      <glyph unicode="6" glyph-name="gid133" horiz-adv-x="628" d="M326-12q-76,0-128,28.5t-83,76T69.5,200T55,322q0,116 32,203.5t92.5,137T325,712q66,0 113.5-25.5T514,618t34-96H470q-10,56-48.5,86.5T324,639q-52,0-94-32.5t-66.5-99T135,338q0-1 0-3t0-4q16,31 44.5,58T248,432t89,16q59,0 111-28t84.5-78.5T565,223q0-59-28.5-113T454,22T326-12Zm-6,74q46,0 82.5,20.5t57,56T480,219q0,47-20.5,82t-57,54.5T320,375t-83-21t-58.5-56.5T157,218q0-45 21.5-80.5T237,82t83-20Z"/>
      <glyph unicode="7" glyph-name="gid134" horiz-adv-x="534" d="M138,0L411,628H27v72H497V637L227,0H138Z"/>
      <glyph unicode="8" glyph-name="gid135" horiz-adv-x="608" d="M304-12q-68,0-122,25.5t-86,71T64,190q0,43 17,80t47.5,64.5T199,373q-56,20-86.5,62T82,526q0,52 27,94t76.5,67T304,712q70,0 119.5-25t76-67T526,526q0-49-30.5-91T409,373q41-11 71.5-38.5t47-64.5T544,190q0-60-31.5-105.5t-86-71T304-12Zm0,74q79,0 117.5,36.5T460,195q0,68-42.5,103T304,333T190.5,298T148,195q0-60 39-96.5T304,62Zm0,341q63,0 100,33t37,85q0,59-36.5,89T304,640q-63,0-99.5-30T168,521q0-52 36.5-85T304,403Z"/>
      <glyph unicode="9" glyph-name="gid136" horiz-adv-x="628" d="M303-12q-66,0-113,25.5t-74.5,69T82,178h78q10-56 48-86.5T304,61q53,0 94,32t66.5,97.5T493,357q0,3 0,6t0,6q-15-31-44-58t-68.5-43T292,252q-59,0-111.5,28t-85,78.5T63,477q0,59 29,113t83,88t128,34q75,0 127-28.5t83.5-76T559,500t14-122q0-115-31.5-203t-92-137.5T303-12Zm6,337q46,0 83,21t58.5,57T472,482q0,46-21.5,81T392,618t-83,20t-82.5-20.5T169,562t-21-81q0-47 21-82t57.5-54.5T309,325Z"/>
      <glyph unicode=":" glyph-name="gid158" horiz-adv-x="202" d="M100-5Q75-5 58.5,11.5T42,52T58.5,92.5T100,109t41-16.5T157,52T141,11.5T100-5Zm0,407q-25,0-41.5,16.5T42,459t16.5,40.5T100,516t41-16.5T157,459t-16-40.5T100,402Z"/>
      <glyph unicode=";" glyph-name="gid159" horiz-adv-x="227" d="M125,402q-25,0-41.5,16.5T67,459t16.5,40.5T125,516t41-16.5T182,459t-16-40.5T125,402ZM24-123L82,98h87L82-123H24Z"/>
      <glyph unicode="&lt;" glyph-name="gid218" horiz-adv-x="550" d="M451,43H344L100,273L344,504H451L206,273L451,43Z"/>
      <glyph unicode="=" glyph-name="gid216" horiz-adv-x="550" d="M75,359v72H474V359H75Zm0-208v72H474V151H75Z"/>
      <glyph unicode="&gt;" glyph-name="gid217" horiz-adv-x="550" d="M99,43L344,273L99,504H206L450,273L206,43H99Z"/>
      <glyph unicode="?" glyph-name="gid163" horiz-adv-x="524" d="M158,201l-4,156h31q42,0 80.5,5.5t68,21t47,45.5T398,507q0,42-18,72t-50,46t-74,16t-74-16t-49.5-44.5T115,512H35q0,60 28,105t78,70t115,25t115.5-25t79-71T479,507q0-74-31.5-120T361,320T234,299l-3-98H158ZM194-5q-25,0-41.5,16.5T136,52t16.5,40.5T194,109t41-16.5T251,52T235,11.5T194-5Z"/>
      <glyph unicode="@" glyph-name="gid195" horiz-adv-x="1005" d="M430-199q-105,0-185,41.5T120.5-39.5T76,141q0,106 35.5,196.5T212,496T367,602t199,38q110,0 191.5-42.5T884,479t45-176q0-58-13.5-113T875,91T809,20.5T719-6q-60,0-86.5,37T613,126l3,34l17-30q-25-63-79-99.5T436-6Q361-6 319,40T277,165q0,55 17,105t48.5,89.5t75,62.5T515,445q61,0 97-32.5T654,317l-20-13l23,130h71L678,147q-7-42 4.5-68.5T731,52q32,0 56.5,23t41,60T853,215t8,84q0,89-37,151.5T718.5,547T556,581q-91,0-166.5-33T259,455.5t-85-138T144,148q0-92 36.5-156T285-105.5T446-139q43,0 85.5,8.5T611-105l14-57q-45-19-94-28t-101-9ZM460,58q43,0 78,23t58,63.5T624,239q5,39-6,71t-36,51.5T517,381q-39,0-69-17.5T397,317t-32-65t-11-74q0-54 27-87t79-33Z"/>
      <glyph unicode="A" glyph-name="gid1" horiz-adv-x="664" d="M30,0L288,700h89L634,0H545L332,595L118,0H30ZM148,180l24,68H489l24-68H148Z"/>
      <glyph unicode="B" glyph-name="gid10" horiz-adv-x="603" d="M75,0V700H321q74,0 122.5-23.5t72.5-64T540,522q0-54-23.5-90t-61-55T376,354l14,10q45-1 83-24t60.5-62T556,191q0-53-26-96.5t-76.5-69T329,0H75Zm84,70H320q71,0 110.5,33.5T470,197q0,59-40.5,94.5T318,327H159V70Zm0,324H315q68,0 103.5,32T454,513q0,53-35.5,85T312,630H159V394Z"/>
      <glyph unicode="C" glyph-name="gid11" horiz-adv-x="717" d="M379-12Q277-12 202.5,33.5T88,160.5T48,350T88,539.5t114.5,127T379,712q120,0 195-57t96-161H577q-16,65-65,104.5T379,638q-75,0-130-34.5t-85-99T134,350t30-154.5t85-99T379,62q84,0 133,38.5T577,203h93Q649,102 574,45T379-12Z"/>
      <glyph unicode="D" glyph-name="gid13" horiz-adv-x="688" d="M75,0V700H281q123,0 202.5-42.5t118-121T640,348q0-108-38.5-186T483.5,42T281,0H75Zm84,70H279q102,0 162,33.5t86,96T553,348q0,88-26,151t-86,97T279,630H159V70Z"/>
      <glyph unicode="E" glyph-name="gid15" horiz-adv-x="565" d="M75,0V700H508V631H159V387H478V319H159V69H508V0H75Z"/>
      <glyph unicode="F" glyph-name="gid20" horiz-adv-x="535" d="M75,0V700H501V631H159V385H450V317H159V0H75Z"/>
      <glyph unicode="G" glyph-name="gid21" horiz-adv-x="758" d="M376-12q-98,0-172,45.5T89,160T48,349q0,107 41.5,189t118,128T388,712q118,0 197-56.5T686,498H589q-14,63-66,100T388,635q-77,0-134.5-34.5T165,502T134,349t31-153.5T251.5,97T379,63q112,0 169,66t65,179H411v66H699V0H622l-7,115q-25-41-57.5-69.5T481,2.5T376-12Z"/>
      <glyph unicode="H" glyph-name="gid22" horiz-adv-x="681" d="M522,0V700h84V0H522ZM75,0V700h84V0H75Zm68,322v69H543V322H143Z"/>
      <glyph unicode="I" glyph-name="gid23" horiz-adv-x="234" d="M75,0V700h84V0H75Z"/>
      <glyph unicode="J" glyph-name="gid28" horiz-adv-x="501" d="M231-12q-63,0-108.5,24t-70,69T28,188h85q0-35 11.5-63.5t37-45T230,63q42,0 66.5,16t35,43.5T342,185V700h84V185q0-94-51.5-145.5T231-12Z"/>
      <glyph unicode="K" glyph-name="gid29" horiz-adv-x="584" d="M75,0V700h84V383L451,700H557L297,421L561,0H459L237,356l-78-83V0H75Z"/>
      <glyph unicode="L" glyph-name="gid30" horiz-adv-x="527" d="M75,0V700h84V67H485V0H75Z"/>
      <glyph unicode="M" glyph-name="gid32" horiz-adv-x="841" d="M75,0V700h98L420,211L668,700h99V0H683V550L452,98H389L159,548V0H75Z"/>
      <glyph unicode="N" glyph-name="gid33" horiz-adv-x="691" d="M75,0V700h84L532,139V700h84V0H532L159,561V0H75Z"/>
      <glyph unicode="O" glyph-name="gid35" horiz-adv-x="774" d="M387-12Q286-12 209.5,33.5t-119,127T48,350q0,107 42.5,188.5T209.5,666T387,712q103,0 179-46T684.5,538.5T727,350q0-108-42.5-189.5T566,33.5T387-12Zm0,74q76,0 133.5,34.5t89,99T641,350T609.5,504.5t-89,98.5T387,637q-75,0-132.5-34t-89-98.5T134,350t31.5-154.5t89-99T387,62Z"/>
      <glyph unicode="P" glyph-name="gid43" horiz-adv-x="580" d="M75,0V700H303q83,0 136.5-27.5t79-73.5T544,494q0-57-25.5-103.5T440,316T303,288H159V0H75Zm84,359H302q84,0 120,37t36,98q0,65-36,100.5T302,630H159V359Z"/>
      <glyph unicode="Q" glyph-name="gid45" horiz-adv-x="774" d="M573-95L338,273h97L670-95H573ZM387-12Q286-12 209.5,33.5t-119,127T48,350q0,107 42.5,188.5T209.5,666T387,712q103,0 179-46T684.5,538.5T727,350q0-108-42.5-189.5T566,33.5T387-12Zm0,74q76,0 133.5,34.5t89,99T641,350T609.5,504.5t-89,98.5T387,637q-75,0-132.5-34t-89-98.5T134,350t31.5-154.5t89-99T387,62Z"/>
      <glyph unicode="R" glyph-name="gid46" horiz-adv-x="594" d="M75,0V700H301q82,0 134-27.5T512,599t25-104q0-56-25.5-103T433,317T297,289H159V0H75ZM445,0L291,313h94L544,0H445ZM159,355H295q80,0 117.5,39T450,494q0,62-36.5,98.5T294,629H159V355Z"/>
      <glyph unicode="S" glyph-name="gid47" horiz-adv-x="580" d="M298-12q-77,0-134,28T76,94T45,210h88q0-41 19-75.5t55.5-55T298,59q47,0 80.5,15.5t51,42.5T447,178q0,41-17.5,66.5T382,286t-69.5,28.5T230,341q-83,28-122,70T69,520q0,57 26.5,100t76,67.5T289,712q67,0 116.5-25T483,618.5T511,518H423q0,29-15,57t-45.5,46.5T286,640q-38,1-67.5-12.5t-46-38.5T156,528q0-34 14.5-55t42-35.5T277,411t82-27q51-17 90.5-41.5t62-62.5T534,183q0-50-26.5-94.5T429,16T298-12Z"/>
      <glyph unicode="T" glyph-name="gid48" horiz-adv-x="561" d="M239,0V631H30v69H532V631H323V0H239Z"/>
      <glyph unicode="U" glyph-name="gid49" horiz-adv-x="655" d="M327-12q-72,0-130.5,29T103,105.5T68,258V700h84V257q0-68 22.5-111T237,83t92-20q53,0 92,20t61,63t22,111V700h84V258q0-93-35-152.5T459,17T327-12Z"/>
      <glyph unicode="V" glyph-name="gid54" horiz-adv-x="669" d="M285,0L22,700h91L334,89L557,700h89L383,0H285Z"/>
      <glyph unicode="W" glyph-name="gid55" horiz-adv-x="968" d="M219,0L27,700h90L268,100L439,700h94L700,98L853,700h90L747,0H651L484,579L313,0H219Z"/>
      <glyph unicode="X" glyph-name="gid56" horiz-adv-x="603" d="M38,0L252,353L38,700h95L305,421L469,700h94L349,350L564,0H469L296,282L133,0H38Z"/>
      <glyph unicode="Y" glyph-name="gid57" horiz-adv-x="580" d="M248,0V266L20,700h95L303,321H278L465,700h94L332,266V0H248Z"/>
      <glyph unicode="Z" glyph-name="gid59" horiz-adv-x="541" d="M45,0V66L394,627H50v73H492V634L142,73H496V0H45Z"/>
      <glyph unicode="[" glyph-name="gid179" horiz-adv-x="314" d="M75-151V811H254V742H154V-81H254v-70H75Z"/>
      <glyph unicode="\" glyph-name="gid170" horiz-adv-x="392" d="M362-95H279L28,764h83L362-95Z"/>
      <glyph unicode="]" glyph-name="gid180" horiz-adv-x="314" d="M239-151H60v70H160V742H60v69H239V-151Z"/>
      <glyph unicode="^" glyph-name="gid222" horiz-adv-x="622" d="M38,210L273,700h77L585,210H499L312,601L124,210H38Z"/>
      <glyph unicode="_" glyph-name="gid174" horiz-adv-x="660" d="M72-115v79H588v-79H72Z"/>
      <glyph unicode="`" glyph-name="gid263" horiz-adv-x="213" d="M204,547L0,663l12,72L213,607l-9-60Z"/>
      <glyph unicode="a" glyph-name="gid60" horiz-adv-x="544" d="M234-12Q173-12 132,9.5t-61,57T51,144q0,51 26.5,86.5t75,54T267,303H400q0,47-14.5,78.5t-42,47.5T275,445q-48,0-83-24t-43-71H63q6,54 36.5,90.5t77.5,56T275,516q70,0 116.5-25.5t69.5-71T484,312V0H409l-5,89q-10-21-25.5-39.5T342,17.5T294.5-4T234-12Zm13,71q35,0 63.5,14.5t48.5,40T389.5,170T400,235v3H274q-49,0-79-11.5t-43-32T139,148q0-27 12.5-47t37-31T247,59Z"/>
      <glyph unicode="b" glyph-name="gid68" horiz-adv-x="626" d="M334-12q-43,0-77.5,12.5T196,34T153,83L146,0H70V720h84V421q24,39 69,67t111,28q73,0 128-34.5t85.5-94T578,252T547.5,116T462,22T334-12ZM324,61q49,0 87,24t59.5,66.5T492,252q0,57-21.5,100T411,419t-87,24q-50,0-88-24t-59-67T156,252q0-58 21-100.5T236,85t88-24Z"/>
      <glyph unicode="c" glyph-name="gid69" horiz-adv-x="572" d="M297-12q-71,0-127.5,33T81,113.5T49,251q0,80 32,139t88.5,92.5T297,516q90,0 150-46.5T523,345H437q-10,47-49,73t-92,26q-43,0-80-21.5T157,358T135,252q0-47 13-83.5T183,108t51.5-36.5T296,59q36,0 65,11.5T410,105t27,54h86Q507,83 446.5,35.5T297-12Z"/>
      <glyph unicode="d" glyph-name="gid71" horiz-adv-x="627" d="M292-12q-73,0-128,34.5T79,117T49,253T79,388.5T164.5,482T293,516q62,0 108.5-25T473,421V720h84V0H481l-7,83q-16-25-41-46.5t-60-35T292-12Zm10,73q50,0 88,24t59,66.5T470,252q0,57-21,100t-59,67t-88,24q-49,0-87-24t-59-67T135,252q0-58 21-100.5T215,85t87-24Z"/>
      <glyph unicode="e" glyph-name="gid73" horiz-adv-x="568" d="M291-12q-71,0-125.5,33T80,113.5T49,252q0,80 30.5,139t86,92T293,516q74,0 125.5-33t79-86.5T525,279q0-10 0-21t-1-25H112v65H443q-3,69-45.5,108T291,445q-43,0-79.5-19.5t-58.5-57T131,275V247q0-62 22.5-104t59-63T291,59q53,0 87.5,23.5T428,146h83q-12-45-42-81T394.5,8.5T291-12Z"/>
      <glyph unicode="f" glyph-name="gid78" horiz-adv-x="340" d="M98,0V582q0,48 16,78.5t47.5,45T239,720h57V648H252q-37,0-53.5-15T182,580V0H98ZM21,433v71H309V433H21Z"/>
      <glyph unicode="g" glyph-name="gid79" horiz-adv-x="558" d="M269-232q-68,0-120.5,17.5T67-161T38-72q0,23 9.5,49t33,51T147,73l58-34q-53-22-69-50.5T120-64q0-33 19-55t53-33t77-11t74,12t48,34t17,52q0,35-26,58.5T283,21q-59,4-99,11T118,48.5T74.5,70T43,95v23l97,96l73-26L113,98l13,35q11-8 21-15t27-12t47.5-9T302,89q69-5 110.5-24t60-51T491-62q0-43-23.5-81.5T395-207T269-232Zm-1,390q-63,0-107.5,24T93,246.5T70,337t23.5,90T161,491.5T268,516t107-24.5T442,427t23-90t-23-90.5T375,182T268,158Zm0,69q54,0 85,28t31,82q0,53-31,81t-85,28q-53,0-85.5-28T150,337q0-54 32-82t86-28Zm82,206l-25,71H531V441l-181-8Z"/>
      <glyph unicode="h" glyph-name="gid80" horiz-adv-x="575" d="M70,0V720h84V419q25,45 70.5,71T324,516q58,0 101-23.5T491,421t23-121V0H431V291q0,76-32,114.5T306,444q-43,0-77.5-21T174,363t-20-96V0H70Z"/>
      <glyph unicode="i" glyph-name="gid81" horiz-adv-x="240" d="M78,0V504h84V0H78Zm42,611q-25,0-41.5,16.5T62,669t16.5,40.5T120,725q24,0 41-15.5T178,669t-17-41.5T120,611Z"/>
      <glyph unicode="j" glyph-name="gid88" horiz-adv-x="243" d="M-27-220v72H12q38,0 54,15.5T82-80V504h84V-82q0-48-16-78.5t-47.5-45T25-220H-27ZM125,611q-25,0-41.5,16.5T67,669t16.5,40.5T125,725q24,0 40.5-15.5T182,669t-16.5-41.5T125,611Z"/>
      <glyph unicode="k" glyph-name="gid90" horiz-adv-x="504" d="M380,0L140,276L359,504H462L211,246l1,60L487,0H380ZM70,0V720h84V0H70Z"/>
      <glyph unicode="l" glyph-name="gid91" horiz-adv-x="223" d="M70,0V720h84V0H70Z"/>
      <glyph unicode="m" glyph-name="gid93" horiz-adv-x="891" d="M70,0V504h76l5-72q24,39 64.5,61.5T304,516q39,0 70.5-10.5t55.5-32T469,419q26,46 71.5,71.5T638,516q58,0 101.5-23.5t67-71T830,301V0H747V292q0,76-31,114t-87,38q-39,0-70-20.5T510,364t-18-96V0H408V292q0,76-31,114t-88,38q-38,0-68.5-20.5T172,364t-18-96V0H70Z"/>
      <glyph unicode="n" glyph-name="gid94" horiz-adv-x="574" d="M70,0V504h76l4-88q24,47 68.5,73.5T320,516q59,0 102-23.5t67-71T513,301V0H429V292q0,76-33.5,114T301,444q-42,0-75-20.5t-52.5-59T154,269V0H70Z"/>
      <glyph unicode="o" glyph-name="gid96" horiz-adv-x="593" d="M295-12q-70,0-126,32.5t-88,92T49,251q0,81 32.5,140.5t89,92T297,516q72,0 127.5-32.5t88-92T545,252T512,112.5t-89-92T295-12Zm1,72q43,0 80,21.5T436,146t23,106q0,64-22.5,106.5t-59,64T297,444q-42,0-79.5-21.5t-60-64T135,252q0-63 22.5-106t59-64.5T296,60Z"/>
      <glyph unicode="p" glyph-name="gid104" horiz-adv-x="626" d="M70-220V504h76l7-82q16,24 41,45.5t60,35T334,516q74,0 128.5-35t85-94.5T578,251T547.5,115.5T462,22T333-12q-61,0-107.5,25T154,83V-220H70ZM324,61q49,0 87,24t59.5,66.5T492,252q0,57-21.5,100T411,419t-87,24q-50,0-88-24t-59-67T156,252q0-58 21-100.5T236,85t88-24Z"/>
      <glyph unicode="q" glyph-name="gid106" horiz-adv-x="627" d="M473-220V82q-24-39-69.5-66.5T293-12q-74,0-129,34.5t-85,94T49,252T79,387.5t85.5,94T293,516q43,0 77.5-12T431,470.5T473,421l8,83h76V-220H473ZM302,61q50,0 88,24t59,66.5T470,252q0,57-21,100t-59,67t-88,24q-49,0-87-24t-59-67T135,252q0-58 21-100.5T215,85t87-24Z"/>
      <glyph unicode="r" glyph-name="gid107" horiz-adv-x="370" d="M70,0V504h76l6-96q17,34 43.5,58t64,37T345,516V428H314q-32,0-61-8.5T201.5,392t-35-51.5T154,260V0H70Z"/>
      <glyph unicode="s" glyph-name="gid108" horiz-adv-x="502" d="M260-12Q197-12 150.5,9t-74,58.5T43,156h86q5-26 21-48t43.5-35.5T261,59q35,0 58,10.5T353.5,98T365,137q0,31-14.5,47T308,209.5T240,226q-33,6-65,16t-57,26.5T78.5,309T64,368q0,43 22,76.5T149.5,497T246,516q81,0 131-39t59-113H353q-5,38-32.5,59.5T245,445q-47,0-71.5-19T149,376q0-20 13.5-35.5t40-26.5T268,296q50-9 91-24t66.5-44.5T451,144q0-47-23.5-82T361,7.5T260-12Z"/>
      <glyph unicode="t" glyph-name="gid110" horiz-adv-x="392" d="M268,0q-45,0-78,14T139.5,61.5T122,152V433H34v71h88l11,122h73V504H352V433H206V152q0-47 19-63.5T292,72h54V0H268Z"/>
      <glyph unicode="u" glyph-name="gid111" horiz-adv-x="573" d="M253-12q-58,0-101.5,23t-67,71T61,202V504h84V211q0-75 33-113t93-38q42,0 76,20.5t53.5,59T420,234V504h84V0H428l-5,88q-23-47-68-73.5T253-12Z"/>
      <glyph unicode="v" glyph-name="gid116" horiz-adv-x="527" d="M215,0L24,504h88L264,81L417,504h86L312,0H215Z"/>
      <glyph unicode="w" glyph-name="gid117" horiz-adv-x="763" d="M172,0L24,504h84L223,79H208L333,504h95L555,80l-16-1L653,504h85L591,0H505L373,444h17L258,0H172Z"/>
      <glyph unicode="x" glyph-name="gid118" horiz-adv-x="496" d="M20,0L191,252L20,504h92L248,298L386,504h90L305,252L476,0H386L248,207L112,0H20Z"/>
      <glyph unicode="y" glyph-name="gid119" horiz-adv-x="556" d="M125-220L248,56H219L21,504h91L276,119L448,504h87L213-220H125Z"/>
      <glyph unicode="z" glyph-name="gid122" horiz-adv-x="458" d="M36,0V69L315,434H41v70H411V435L131,70H416V0H36Z"/>
      <glyph unicode="{" glyph-name="gid177" horiz-adv-x="427" d="M321-152q-68,0-110,37.5T169-2q0,34 5.5,61.5t11,57T191,184q0,25-9,47.5T150,271T84,296v68q43,8 66,24.5T182,428t9,48q0,39-5.5,67.5t-11,56T169,661q0,76 42,113t110,37h54V739H336q-41,0-63-19.5T251,654q0-29 5.5-55.5t10.5-56t5-69.5q0-52-26-90.5T161,331v-2q59-13 85-51.5T272,186q0-39-5-68.5t-10.5-56T251,5q0-46 22-65.5T336-80h39v-72H321Z"/>
      <glyph unicode="|" glyph-name="gid203" horiz-adv-x="234" d="M75-100V720h84V-100H75Z"/>
      <glyph unicode="}" glyph-name="gid178" horiz-adv-x="427" d="M106-152H52v72H91q41,0 63,19.5T176,5q0,30-5,56.5t-10.5,56T155,186q0,53 26.5,91.5T266,329v2q-58,13-84.5,51.5T155,473q0,40 5.5,69.5t10.5,56t5,55.5q0,46-22,65.5T91,739H52v72h54q68,0 110-37t42-113q0-34-5.5-61.5t-11-56T236,476q0-25 9.5-48T278,388.5T343,364V296q-42-8-65-25t-32.5-39.5T236,184q0-38 5.5-67.5t11-57T258-2q0-75-42-112.5T106-152Z"/>
      <glyph unicode="~" glyph-name="gid220" horiz-adv-x="550" d="M358,248q-28,0-50,10.5t-41.5,24t-38.5,24T187,317q-27,0-43.5-19T122,250H58q7,48 25,79.5t46,47T192,392q29,0 51.5-10.5T285,358t38-23.5T363,324q28,0 44.5,18.5T428,391h64q-6-48-24-79.5T422,264t-64-16Z"/>
      <glyph unicode="&#xa0;" glyph-name="gid154" horiz-adv-x="266"/>
      <glyph unicode="&#xa1;" glyph-name="gid162" horiz-adv-x="250" d="M90,311h71l10-500H80L90,311Zm35,205q26,0 41.5-16.5T182,459t-15.5-40.5T125,402q-24,0-40.5,16.5T68,459t16.5,40.5T125,516Z"/>
      <glyph unicode="&#xa2;" glyph-name="gid205" horiz-adv-x="572" d="M258-104V40h81V-104H258Zm0,568V608h81V464H258ZM297-12q-71,0-127.5,33T81,113.5T49,251q0,80 32,139t88.5,92.5T297,516q90,0 150-46.5T523,345H437q-10,47-49,73t-92,26q-43,0-80-21.5T157,358T135,252q0-47 13-83.5T183,108t51.5-36.5T296,59q36,0 65,11.5T410,105t27,54h86Q507,83 446.5,35.5T297-12Z"/>
      <glyph unicode="&#xa3;" glyph-name="gid209" horiz-adv-x="601" d="M88,0V55q25,28 43.5,53.5t29,57T171,240q0,34-9,64.5t-21.5,61t-21.5,65T110,507q0,62 27,108t75,71.5T323,712q71,0 117.5-28T512,609.5T540,507H463q-3,58-38.5,96.5T323,642q-35,0-65.5-14.5t-49-45T190,503q0-35 9-67.5T220,371t21-64t9-65q0-49-17.5-91.5T177,70H542V0H88ZM46,310v59H413V310H46Z"/>
      <glyph unicode="&#xa4;" glyph-name="gid206" horiz-adv-x="533" d="M266,121q-51,0-90,21.5t-61.5,61T92,297t23,93.5t62.5,61T267,473q49,0 88.5-21.5t62.5-61T441,297t-23.5-93.5t-63-61T266,121ZM104,91L65,131l83,83l41-38L104,91Zm325,0l-79,80l38,40l80-80L429,91ZM266,186q23,0 45,11.5t36.5,36T362,297q0,40-14.5,64.5t-36.5,36T266,409q-24,0-46-11.5t-35.5-36T171,297q0-39 13.5-63.5t35.5-36T266,186ZM147,384L65,465l39,40l82-82l-39-39Zm236-4l-35,42l81,83l39-40l-85-85Z"/>
      <glyph unicode="&#xa5;" glyph-name="gid210" horiz-adv-x="602" d="M59,170v61H543V170H59ZM272,324H59v60H262l10-60Zm72,0l10,60H543V324H344ZM259,0V266L31,700h95L314,321H289L476,700h94L343,266V0H259Z"/>
      <glyph unicode="&#xa6;" glyph-name="gid204" horiz-adv-x="234" d="M75,387V720h84V387H75Zm0-487V233h84V-100H75Z"/>
      <glyph unicode="&#xa7;" glyph-name="gid198" horiz-adv-x="586" d="M290-232q-66,0-116,25T96.5-138T68-38h88q0-29 15-57t45.5-46.5T293-160q57-1 93.5,29T423-48q0,34-14.5,55t-42,35T302,68T220,95q-50,17-90,41.5T67.5,199T45,295q0,37 14,71t42,62q-13,19-20,41.5T74,520q0,57 27,100t76.5,67.5T295,712q67,0 116.5-25T489,618.5T517,518H429q0,29-15,57t-45.5,46.5T292,640q-57,1-93.5-29T162,528q0-34 14.5-55t42-35T283,412t82-27q51-17 90.5-41.5t62-62.5T540,185q0-37-14-71.5T483,52q14-19 20.5-41.5T510-40q1-56-26-99.5t-76.5-68T290-232ZM423,104q15,15 22.5,34.5T453,180q0,41-17,66t-47,40.5t-68.5,28T239,342q-23,8-42,16.5T162,376q-15-15-22.5-34T132,300q0-32 11-54t31-37.5t47-27T280,160t66-22q23-7 42-16t35-18Z"/>
      <glyph unicode="&#xa8;" glyph-name="gid262" horiz-adv-x="306" d="M234,571q-21,0-35.5,14.5T184,621q0,20 14.5,35T234,671q20,0 34.5-15T283,621q0-21-14.5-35.5T234,571ZM73,571q-20,0-34.5,14.5T24,621q0,20 14.5,35T73,671q21,0 35.5-15T123,621q0-21-14.5-35.5T73,571Z"/>
      <glyph unicode="&#xa9;" glyph-name="gid199" horiz-adv-x="794" d="M397-4Q294-4 216,41.5T94.5,167T51,350q0,104 43.5,184T216,659t181,45t180.5-45T699,534t44-184q0-103-44-183T577.5,41.5T397-4Zm0,123q-59,0-108.5,27.5t-79,79.5T180,351t29.5,125t79,79.5T397,583q74,0 130-39.5T602,430H525q-14,45-49,68.5T396,522q-39,0-71-19.5T273.5,445T254,350q0-56 19.5-94.5T325,198t71-19q47,0 80.5,23.5T525,270h77q-19-70-75-110.5T397,119Zm0-86q95,0 163.5,40.5t106,112T704,350q0,95-37.5,166.5T560.5,628T397,668q-94,0-163-40T127.5,516.5T90,350q0-93 37.5-164.5T234,73.5T397,33Z"/>
      <glyph unicode="&#xaa;" glyph-name="gid125" horiz-adv-x="478" d="M218,347q-48,0-86,23T72.5,434.5T51,529q0,54 21.5,94.5t59,63T216,709q51,0 85-21.5T350,634l7,69h60V353H357l-7,69q-14-33-48-54t-84-21Zm16,53q33,0 59,15.5t41.5,44T350,528q0,61-33.5,94.5T234,656q-47,0-80.5-33.5T120,529q0-61 33.5-95T234,400Z"/>
      <glyph unicode="&#xab;" glyph-name="gid187" horiz-adv-x="452" d="M319,120L222,295l97,175h83L302,295L402,120H319Zm-178,0L44,295l97,175h83L124,295L224,120H141Z"/>
      <glyph unicode="&#xac;" glyph-name="gid221" horiz-adv-x="550" d="M476,223V365H-10v67H560V223H476Z"/>
      <glyph unicode="&#xae;" glyph-name="gid200" horiz-adv-x="504" d="M253,307q-59,0-104.5,26t-71,72T52,509q0,59 25.5,104.5t71,72T253,712q58,0 103-26.5t70.5-72T452,509q0-58-25.5-104T356,333T253,307Zm40,96l-62,99h51l67-99H293Zm-40-60q49,0 84.5,21.5t55.5,59T413,509q0,49-20,86t-55.5,58.5T253,675t-85.5-21.5T111,595T91,509q0-48 20-85.5t56.5-59T253,343Zm-80,60V618h95q34,0 53.5-17.5T341,552q0-30-19.5-47.5T268,487H220V403H173Zm47,122h44q13,0 21.5,6t8.5,20t-8.5,19.5T264,576H220V525Z"/>
      <glyph unicode="&#xaf;" glyph-name="gid268" horiz-adv-x="381" d="M16,592v63H364V592H16Z"/>
      <glyph unicode="&#xb0;" glyph-name="gid202" horiz-adv-x="343" d="M171,444q-36,0-66,16.5T57,507T39,577q0,42 18.5,72T106,695.5T172,712t65.5-16.5T285,649t18-72q0-40-18-70t-48-46.5T171,444Zm0,62q24,0 45.5,18T238,578t-21,54t-45,18q-25,0-46-18t-21-54t20.5-54T171,506Z"/>
      <glyph unicode="&#xb1;" glyph-name="gid219" horiz-adv-x="550" d="M37,0V64H512V0H37ZM237,125V478h75V125H237ZM37,266v71H512V266H37Z"/>
      <glyph unicode="&#xb2;" glyph-name="gid150" horiz-adv-x="330" d="M35,352v48l112,92q29,24 48.5,49T215,600q0,29-16,44t-39,15q-26,0-41-15.5T100,600H33q3,46 36,78t95,32q38,0 65.5-14.5t42-38.5T286,603q0-41-24.5-71.5T190,466l-81-60H290V352H35Z"/>
      <glyph unicode="&#xb3;" glyph-name="gid151" horiz-adv-x="330" d="M161,347q-61,0-95.5,27.5T26,454H93q3-21 12-33.5T128.5,403t31.5-5q30,0 47.5,14.5T225,452q0,27-19.5,41.5T157,508H111v41h45q29,0 47.5,14T222,604q0,25-17,39.5T159,658q-28,0-44.5-12.5T93,611H30q3,28 19.5,50.5T95,697t70,13q54,0 91-29t37-73q0-31-17.5-51T228,529v-2q29-9 48.5-29.5T296,444q0-40-36-68.5T161,347Z"/>
      <glyph unicode="&#xb4;" glyph-name="gid264" horiz-adv-x="213" d="M9,547L0,607L201,735l12-72L9,547Z"/>
      <glyph unicode="&#xb5;" glyph-name="gid223" horiz-adv-x="584" d="M70-220V496h84V215q0-77 32.5-116T282,60q43,0 76.5,21t53,61T431,239V496h84V0H439l-5,88q-24-46-69.5-73T262-12q-31,0-58.5,8T154,20V-220H70Z"/>
      <glyph unicode="&#xb6;" glyph-name="gid197" horiz-adv-x="587" d="M283-100V295H273q-81,0-133.5,26.5T62,394T37,497q0,58 25.5,103.5t78,72.5T273,700H513V-100H439V634H357V-100H283Z"/>
      <glyph unicode="&#xb7;" glyph-name="gid165" horiz-adv-x="198" d="M100,285q-25,0-41.5,16.5T42,342q0,25 16.5,41T100,399t41-16t16-41q0-24-16-40.5T100,285Z"/>
      <glyph unicode="&#xb8;" glyph-name="gid269" horiz-adv-x="228" d="M0-259v53H92q35,0 51.5,12T160-158q0,22-16.5,33.5T92-113H43V7H99V-63q38,1 67-9.5T211.5-105T228-159q0-31-15.5-53.5T170-247t-62-12H0Z"/>
      <glyph unicode="&#xb9;" glyph-name="gid149" horiz-adv-x="204" d="M95,352V638L28,620v42l90,42h44V352H95Z"/>
      <glyph unicode="&#xba;" glyph-name="gid126" horiz-adv-x="458" d="M228,348q-53,0-93.5,23t-63,64T49,530q0,55 23,96t63.5,63.5T229,712q54,0 94.5-22.5T387,626t23-96q0-54-23.5-95T322,371t-94-23Zm0,55q31,0 56.5,14.5t41,43T341,530q0,42-15.5,70.5t-41,43.5T228,659q-30,0-55.5-15t-40-43.5T118,530q0-41 14.5-69.5t39.5-43T228,403Z"/>
      <glyph unicode="&#xbb;" glyph-name="gid188" horiz-adv-x="452" d="M133,120H50L150,295L50,470h83l97-175L133,120Zm178,0H228L328,295L228,470h83l97-175L311,120Z"/>
      <glyph unicode="&#xbc;" glyph-name="gid147" horiz-adv-x="706" d="M95,352V638L28,620v42l90,42h44V352H95ZM80,0L487,700h85L164,0H80ZM578,0V66H406v50L570,348h74V120h46V66H644V0H578ZM476,120H583V276L476,120Z"/>
      <glyph unicode="&#xbd;" glyph-name="gid146" horiz-adv-x="745" d="M95,352V638L28,620v42l90,42h44V352H95ZM80,0L487,700h85L164,0H80ZM450,0V48l112,92q29,24 48.5,49T630,248q0,29-16,44t-39,15q-26,0-41-15.5T515,248H448q3,46 36,78t95,32q38,0 65.5-14.5t42-38.5T701,251q0-41-24.5-71.5T605,114L524,54H705V0H450Z"/>
      <glyph unicode="&#xbe;" glyph-name="gid148" horiz-adv-x="812" d="M161,347q-61,0-95.5,27.5T26,454H93q3-21 12-33.5T128.5,403t31.5-5q30,0 47.5,14.5T225,452q0,27-19.5,41.5T157,508H111v41h45q29,0 47.5,14T222,604q0,25-17,39.5T159,658q-28,0-44.5-12.5T93,611H30q3,28 19.5,50.5T95,697t70,13q54,0 91-29t37-73q0-31-17.5-51T228,529v-2q29-9 48.5-29.5T296,444q0-40-36-68.5T161,347ZM186,0L593,700h85L270,0H186ZM684,0V66H512v50L676,348h74V120h46V66H750V0H684ZM582,120H689V276L582,120Z"/>
      <glyph unicode="&#xbf;" glyph-name="gid164" horiz-adv-x="524" d="M366,309l4-155H339q-42,0-80.5-5.5t-68-21.5t-47-45.5T126,4q0-41 18-71.5T194-114t74-16q43,0 74.5,16t49,45T409-1h80q0-60-28.5-105t-78-70T268-201T152.5-176t-79,71T45,4q0,74 31.5,120t87,67T290,212l2,97h74ZM330,516q24,0 41-16.5T388,459t-17-40.5T330,402q-25,0-41,16.5T273,459t16,40.5T330,516Z"/>
      <glyph unicode="&#xc0;" glyph-name="gid6" horiz-adv-x="664" d="M30,0L288,700h89L634,0H545L332,595L118,0H30ZM148,180l24,68H489l24-68H148ZM430,743L226,859l12,72L439,804l-9-61Z"/>
      <glyph unicode="&#xc1;" glyph-name="gid2" horiz-adv-x="664" d="M30,0L288,700h89L634,0H545L332,595L118,0H30ZM148,180l24,68H489l24-68H148Zm87,563l-9,61L427,931l12-72L235,743Z"/>
      <glyph unicode="&#xc2;" glyph-name="gid4" horiz-adv-x="664" d="M30,0L288,700h89L634,0H545L332,595L118,0H30ZM148,180l24,68H489l24-68H148Zm48,575v66l137,81l137-81V755L333,839L196,755Z"/>
      <glyph unicode="&#xc3;" glyph-name="gid8" horiz-adv-x="664" d="M30,0L288,700h89L634,0H545L332,595L118,0H30ZM148,180l24,68H489l24-68H148ZM398,756q-27,0-45,12t-33.5,23.5T283,803q-16,0-27.5-11T241,758H192q7,50 32.5,75.5T287,859q27,0 44.5-11.5T365,824t37-12q17,0 28.5,11.5T445,857h49q-6-49-32-75t-64-26Z"/>
      <glyph unicode="&#xc4;" glyph-name="gid5" horiz-adv-x="664" d="M30,0L288,700h89L634,0H545L332,595L118,0H30ZM148,180l24,68H489l24-68H148ZM254,775q-21,0-35.5,14.5T204,825q0,20 14.5,35T254,875q20,0 35-15t15-35q0-21-15-35.5T254,775Zm160,0q-21,0-35.5,14.5T364,825q0,20 14.5,35T414,875q20,0 34.5-15T463,825q0-21-14.5-35.5T414,775Z"/>
      <glyph unicode="&#xc5;" glyph-name="gid7" horiz-adv-x="664" d="M30,0L288,700h89L634,0H545L332,595L118,0H30ZM148,180l24,68H489l24-68H148ZM333,761q-43,0-74,27.5T228,864t31,75.5T333,967q44,0 74.5-27.5T438,864t-30.5-75.5T333,761Zm0,43q24,0 40.5,16.5T390,864q0,28-16.5,43.5T333,923q-23,0-40-15.5T276,864q0-27 17-43.5T333,804Z"/>
      <glyph unicode="&#xc6;" glyph-name="gid9" horiz-adv-x="912" d="M30,0L429,700H854V633H565V386H824V320H565V67H854V0H481V631L122,0H30ZM166,159l35,67H520V159H166Z"/>
      <glyph unicode="&#xc7;" glyph-name="gid12" horiz-adv-x="717" d="M379-12Q277-12 202.5,33.5T88,160.5T48,350T88,539.5t114.5,127T379,712q120,0 195-57t96-161H577q-16,65-65,104.5T379,638q-75,0-130-34.5t-85-99T134,350t30-154.5t85-99T379,62q84,0 133,38.5T577,203h93Q649,102 574,45T379-12ZM292-260v53h92q35,0 51.5,12T452-159q0,22-16.5,33.5T384-114H335V6h56V-64q38,1 67-9.5T503.5-106T520-160q0-31-15.5-53.5t-43-34.5T399-260H292Z"/>
      <glyph unicode="&#xc8;" glyph-name="gid19" horiz-adv-x="565" d="M75,0V700H508V631H159V387H478V319H159V69H508V0H75ZM389,743L185,859l12,72L398,804l-9-61Z"/>
      <glyph unicode="&#xc9;" glyph-name="gid16" horiz-adv-x="565" d="M75,0V700H508V631H159V387H478V319H159V69H508V0H75ZM194,743l-9,61L386,931l12-72L194,743Z"/>
      <glyph unicode="&#xca;" glyph-name="gid17" horiz-adv-x="565" d="M75,0V700H508V631H159V387H478V319H159V69H508V0H75Zm80,755v66l137,81l137-81V755L292,839L155,755Z"/>
      <glyph unicode="&#xcb;" glyph-name="gid18" horiz-adv-x="565" d="M75,0V700H508V631H159V387H478V319H159V69H508V0H75ZM213,775q-21,0-35.5,14.5T163,825q0,20 14.5,35T213,875q20,0 35-15t15-35q0-21-15-35.5T213,775Zm160,0q-21,0-35.5,14.5T323,825q0,20 14.5,35T373,875q20,0 34.5-15T422,825q0-21-14.5-35.5T373,775Z"/>
      <glyph unicode="&#xcc;" glyph-name="gid27" horiz-adv-x="234" d="M75,0V700h84V0H75ZM214,743L10,859l12,72L223,804l-9-61Z"/>
      <glyph unicode="&#xcd;" glyph-name="gid24" horiz-adv-x="234" d="M75,0V700h84V0H75ZM19,743l-9,61L211,931l12-72L19,743Z"/>
      <glyph unicode="&#xce;" glyph-name="gid25" horiz-adv-x="234" d="M75,0V700h84V0H75ZM-20,755v66l137,81l137-81V755L117,839L-20,755Z"/>
      <glyph unicode="&#xcf;" glyph-name="gid26" horiz-adv-x="234" d="M75,0V700h84V0H75ZM38,775q-21,0-35.5,14.5T-12,825q0,20 14.5,35T38,875q20,0 35-15t15-35q0-21-15-35.5T38,775Zm160,0q-21,0-35.5,14.5T148,825q0,20 14.5,35T198,875q20,0 34.5-15T247,825q0-21-14.5-35.5T198,775Z"/>
      <glyph unicode="&#xd0;" glyph-name="gid14" horiz-adv-x="709" d="M8,311v76H381V311H8ZM96,0V700H302q123,0 202.5-42.5t118-121T661,348q0-108-38.5-186T504.5,42T302,0H96Zm84,70H300q102,0 162,33.5t86,96T574,348q0,88-26,151t-86,97T300,630H180V70Z"/>
      <glyph unicode="&#xd1;" glyph-name="gid34" horiz-adv-x="691" d="M75,0V700h84L532,139V700h84V0H532L159,561V0H75ZM411,756q-27,0-45,12t-33.5,23.5T296,803q-16,0-27.5-11T254,758H205q7,50 32.5,75.5T300,859q27,0 44.5-11.5T378,824t37-12q17,0 28.5,11.5T458,857h49q-6-49-32-75t-64-26Z"/>
      <glyph unicode="&#xd2;" glyph-name="gid39" horiz-adv-x="774" d="M387-12Q286-12 209.5,33.5t-119,127T48,350q0,107 42.5,188.5T209.5,666T387,712q103,0 179-46T684.5,538.5T727,350q0-108-42.5-189.5T566,33.5T387-12Zm0,74q76,0 133.5,34.5t89,99T641,350T609.5,504.5t-89,98.5T387,637q-75,0-132.5-34t-89-98.5T134,350t31.5-154.5t89-99T387,62Zm97,681L280,859l12,72L493,804l-9-61Z"/>
      <glyph unicode="&#xd3;" glyph-name="gid36" horiz-adv-x="774" d="M387-12Q286-12 209.5,33.5t-119,127T48,350q0,107 42.5,188.5T209.5,666T387,712q103,0 179-46T684.5,538.5T727,350q0-108-42.5-189.5T566,33.5T387-12Zm0,74q76,0 133.5,34.5t89,99T641,350T609.5,504.5t-89,98.5T387,637q-75,0-132.5-34t-89-98.5T134,350t31.5-154.5t89-99T387,62ZM289,743l-9,61L481,931l12-72L289,743Z"/>
      <glyph unicode="&#xd4;" glyph-name="gid37" horiz-adv-x="774" d="M387-12Q286-12 209.5,33.5t-119,127T48,350q0,107 42.5,188.5T209.5,666T387,712q103,0 179-46T684.5,538.5T727,350q0-108-42.5-189.5T566,33.5T387-12Zm0,74q76,0 133.5,34.5t89,99T641,350T609.5,504.5t-89,98.5T387,637q-75,0-132.5-34t-89-98.5T134,350t31.5-154.5t89-99T387,62ZM250,755v66l137,81l137-81V755L387,839L250,755Z"/>
      <glyph unicode="&#xd5;" glyph-name="gid41" horiz-adv-x="774" d="M387-12Q286-12 209.5,33.5t-119,127T48,350q0,107 42.5,188.5T209.5,666T387,712q103,0 179-46T684.5,538.5T727,350q0-108-42.5-189.5T566,33.5T387-12Zm0,74q76,0 133.5,34.5t89,99T641,350T609.5,504.5t-89,98.5T387,637q-75,0-132.5-34t-89-98.5T134,350t31.5-154.5t89-99T387,62Zm65,694q-27,0-45,12t-33.5,23.5T337,803q-16,0-27.5-11T295,758H246q7,50 32.5,75.5T341,859q27,0 44.5-11.5T419,824t37-12q17,0 28.5,11.5T499,857h49q-6-49-32-75t-64-26Z"/>
      <glyph unicode="&#xd6;" glyph-name="gid38" horiz-adv-x="774" d="M387-12Q286-12 209.5,33.5t-119,127T48,350q0,107 42.5,188.5T209.5,666T387,712q103,0 179-46T684.5,538.5T727,350q0-108-42.5-189.5T566,33.5T387-12Zm0,74q76,0 133.5,34.5t89,99T641,350T609.5,504.5t-89,98.5T387,637q-75,0-132.5-34t-89-98.5T134,350t31.5-154.5t89-99T387,62ZM308,775q-21,0-35.5,14.5T258,825q0,20 14.5,35T308,875q20,0 35-15t15-35q0-21-15-35.5T308,775Zm160,0q-21,0-35.5,14.5T418,825q0,20 14.5,35T468,875q20,0 34.5-15T517,825q0-21-14.5-35.5T468,775Z"/>
      <glyph unicode="&#xd7;" glyph-name="gid214" horiz-adv-x="550" d="M140,106L90,156L224,291L96,420l51,50L275,341L409,476l50-50L325,291L454,163l-51-50L274,241L140,106Z"/>
      <glyph unicode="&#xd8;" glyph-name="gid40" horiz-adv-x="776" d="M34,0L653,700h89L124,0H34ZM387-12Q286-12 209.5,33.5t-119,127T48,350q0,107 42.5,188.5T209.5,666T387,712q103,0 179-46T684.5,538.5T727,350q0-108-42.5-189.5T566,33.5T387-12Zm0,74q76,0 133.5,34.5t89,99T641,350T609.5,504.5t-89,98.5T387,637q-75,0-132.5-34t-89-98.5T134,350t31.5-154.5t89-99T387,62Z"/>
      <glyph unicode="&#xd9;" glyph-name="gid53" horiz-adv-x="655" d="M327-12q-72,0-130.5,29T103,105.5T68,258V700h84V257q0-68 22.5-111T237,83t92-20q53,0 92,20t61,63t22,111V700h84V258q0-93-35-152.5T459,17T327-12Zm97,755L220,859l12,72L433,804l-9-61Z"/>
      <glyph unicode="&#xda;" glyph-name="gid50" horiz-adv-x="655" d="M327-12q-72,0-130.5,29T103,105.5T68,258V700h84V257q0-68 22.5-111T237,83t92-20q53,0 92,20t61,63t22,111V700h84V258q0-93-35-152.5T459,17T327-12ZM229,743l-9,61L421,931l12-72L229,743Z"/>
      <glyph unicode="&#xdb;" glyph-name="gid51" horiz-adv-x="655" d="M327-12q-72,0-130.5,29T103,105.5T68,258V700h84V257q0-68 22.5-111T237,83t92-20q53,0 92,20t61,63t22,111V700h84V258q0-93-35-152.5T459,17T327-12ZM190,755v66l137,81l137-81V755L327,839L190,755Z"/>
      <glyph unicode="&#xdc;" glyph-name="gid52" horiz-adv-x="655" d="M327-12q-72,0-130.5,29T103,105.5T68,258V700h84V257q0-68 22.5-111T237,83t92-20q53,0 92,20t61,63t22,111V700h84V258q0-93-35-152.5T459,17T327-12ZM248,775q-21,0-35.5,14.5T198,825q0,20 14.5,35T248,875q20,0 35-15t15-35q0-21-15-35.5T248,775Zm160,0q-21,0-35.5,14.5T358,825q0,20 14.5,35T408,875q20,0 34.5-15T457,825q0-21-14.5-35.5T408,775Z"/>
      <glyph unicode="&#xdd;" glyph-name="gid58" horiz-adv-x="580" d="M248,0V266L20,700h95L303,321H278L465,700h94L332,266V0H248ZM192,743l-9,61L384,931l12-72L192,743Z"/>
      <glyph unicode="&#xde;" glyph-name="gid44" horiz-adv-x="580" d="M75,0V700h84V554H305q82,0 135-26.5T518.5,455T544,350q0-57-25-103t-78-73T305,147H159V0H75Zm84,217H303q83,0 119,36t36,97q0,64-36,99T303,484H159V217Z"/>
      <glyph unicode="&#xdf;" glyph-name="gid109" horiz-adv-x="659" d="M436-10q-85,0-139,47.5T235,169h83q5-51 35.5-82T435,56q48,0 74.5,23.5T536,144q0,38-22.5,60.5T434,246q-78,27-112,55t-34,74q0,30 14.5,49.5T338,458t42,28t35.5,31.5T430,562q0,46-35,72.5T298,661q-73,0-108.5-40.5T154,511V0H71V519q0,62 26,110t77,75.5T300,732q70,0 117.5-22t72-59T514,569q0-36-14-59.5t-35-39T422.5,443T387,418t-14-32q0-15 9.5-27.5t34-24.5T485,307q73-25 104.5-62.5T621,150q0-47-22.5-83.5T535,10T436-10Z"/>
      <glyph unicode="&#xe0;" glyph-name="gid64" horiz-adv-x="544" d="M234-12Q173-12 132,9.5t-61,57T51,144q0,51 26.5,86.5t75,54T267,303H400q0,47-14.5,78.5t-42,47.5T275,445q-48,0-83-24t-43-71H63q6,54 36.5,90.5t77.5,56T275,516q70,0 116.5-25.5t69.5-71T484,312V0H409l-5,89q-10-21-25.5-39.5T342,17.5T294.5-4T234-12Zm13,71q35,0 63.5,14.5t48.5,40T389.5,170T400,235v3H274q-49,0-79-11.5t-43-32T139,148q0-27 12.5-47t37-31T247,59ZM366,547L162,663l12,72L375,607l-9-60Z"/>
      <glyph unicode="&#xe1;" glyph-name="gid61" horiz-adv-x="544" d="M234-12Q173-12 132,9.5t-61,57T51,144q0,51 26.5,86.5t75,54T267,303H400q0,47-14.5,78.5t-42,47.5T275,445q-48,0-83-24t-43-71H63q6,54 36.5,90.5t77.5,56T275,516q70,0 116.5-25.5t69.5-71T484,312V0H409l-5,89q-10-21-25.5-39.5T342,17.5T294.5-4T234-12Zm13,71q35,0 63.5,14.5t48.5,40T389.5,170T400,235v3H274q-49,0-79-11.5t-43-32T139,148q0-27 12.5-47t37-31T247,59ZM171,547l-9,60L363,735l12-72L171,547Z"/>
      <glyph unicode="&#xe2;" glyph-name="gid62" horiz-adv-x="544" d="M234-12Q173-12 132,9.5t-61,57T51,144q0,51 26.5,86.5t75,54T267,303H400q0,47-14.5,78.5t-42,47.5T275,445q-48,0-83-24t-43-71H63q6,54 36.5,90.5t77.5,56T275,516q70,0 116.5-25.5t69.5-71T484,312V0H409l-5,89q-10-21-25.5-39.5T342,17.5T294.5-4T234-12Zm13,71q35,0 63.5,14.5t48.5,40T389.5,170T400,235v3H274q-49,0-79-11.5t-43-32T139,148q0-27 12.5-47t37-31T247,59ZM132,550v66l137,81l137-81V550L269,634L132,550Z"/>
      <glyph unicode="&#xe3;" glyph-name="gid66" horiz-adv-x="544" d="M234-12Q173-12 132,9.5t-61,57T51,144q0,51 26.5,86.5t75,54T267,303H400q0,47-14.5,78.5t-42,47.5T275,445q-48,0-83-24t-43-71H63q6,54 36.5,90.5t77.5,56T275,516q70,0 116.5-25.5t69.5-71T484,312V0H409l-5,89q-10-21-25.5-39.5T342,17.5T294.5-4T234-12Zm13,71q35,0 63.5,14.5t48.5,40T389.5,170T400,235v3H274q-49,0-79-11.5t-43-32T139,148q0-27 12.5-47t37-31T247,59Zm77,511q-27,0-45,12t-33.5,23.5T209,617q-16,0-27.5-11T167,572H118q7,50 32.5,75.5T213,673q27,0 44.5-11.5T291,638t37-12q17,0 28.5,11.5T371,671h49q-6-49-32-75t-64-26Z"/>
      <glyph unicode="&#xe4;" glyph-name="gid63" horiz-adv-x="544" d="M234-12Q173-12 132,9.5t-61,57T51,144q0,51 26.5,86.5t75,54T267,303H400q0,47-14.5,78.5t-42,47.5T275,445q-48,0-83-24t-43-71H63q6,54 36.5,90.5t77.5,56T275,516q70,0 116.5-25.5t69.5-71T484,312V0H409l-5,89q-10-21-25.5-39.5T342,17.5T294.5-4T234-12Zm13,71q35,0 63.5,14.5t48.5,40T389.5,170T400,235v3H274q-49,0-79-11.5t-43-32T139,148q0-27 12.5-47t37-31T247,59ZM190,570q-21,0-35.5,14.5T140,620q0,20 14.5,35T190,670q20,0 35-15t15-35q0-21-15-35.5T190,570Zm160,0q-21,0-35.5,14.5T300,620q0,20 14.5,35T350,670q20,0 34.5-15T399,620q0-21-14.5-35.5T350,570Z"/>
      <glyph unicode="&#xe5;" glyph-name="gid65" horiz-adv-x="544" d="M234-12Q173-12 132,9.5t-61,57T51,144q0,51 26.5,86.5t75,54T267,303H400q0,47-14.5,78.5t-42,47.5T275,445q-48,0-83-24t-43-71H63q6,54 36.5,90.5t77.5,56T275,516q70,0 116.5-25.5t69.5-71T484,312V0H409l-5,89q-10-21-25.5-39.5T342,17.5T294.5-4T234-12Zm13,71q35,0 63.5,14.5t48.5,40T389.5,170T400,235v3H274q-49,0-79-11.5t-43-32T139,148q0-27 12.5-47t37-31T247,59Zm22,511q-43,0-74,27.5T164,673t31,75.5T269,776q44,0 74.5-27.5T374,673t-30.5-75.5T269,570Zm0,43q24,0 40.5,16.5T326,673q0,28-16.5,43.5T269,732q-23,0-40-15.5T212,673q0-27 17-43.5T269,613Z"/>
      <glyph unicode="&#xe6;" glyph-name="gid67" horiz-adv-x="914" d="M236-12Q174-12 133,9.5t-61.5,57T51,144q0,51 26.5,86.5t74,53T263,301H399q0,48-14,80t-41,48t-67,16q-45,0-79-24t-42-71H69q6,54 36.5,90.5t76,56T277,516q65,0 110-24t69-67q32,44 80,67.5T642,516q72,0 123-33t78.5-86.5T871,281q0-10 0-21t-1-25H484q2-59 24.5-98t58-58.5T640,59q56,0 90,26.5T780,158h82q-12-49-42-87.5T744.5,10T641-12q-67,0-120,31.5T437,106q-20-34-49-61T321,3T236-12Zm8,71q43,0 76.5,22.5t54,59.5T398,221v15H271q-47,0-76.5-11T152,194.5T139,148q0-26 12.5-46t36-31.5T244,59ZM485,300H789q-4,69-45.5,107T641,445q-38,0-72-16.5T512.5,380T485,300Z"/>
      <glyph unicode="&#xe7;" glyph-name="gid70" horiz-adv-x="572" d="M297-12q-71,0-127.5,33T81,113.5T49,251q0,80 32,139t88.5,92.5T297,516q90,0 150-46.5T523,345H437q-10,47-49,73t-92,26q-43,0-80-21.5T157,358T135,252q0-47 13-83.5T183,108t51.5-36.5T296,59q36,0 65,11.5T410,105t27,54h86Q507,83 446.5,35.5T297-12ZM219-260v53h92q35,0 51.5,12T379-159q0,22-16.5,33.5T311-114H262V6h56V-64q38,1 67-9.5T430.5-106T447-160q0-31-15.5-53.5t-43-34.5T326-260H219Z"/>
      <glyph unicode="&#xe8;" glyph-name="gid77" horiz-adv-x="568" d="M291-12q-71,0-125.5,33T80,113.5T49,252q0,80 30.5,139t86,92T293,516q74,0 125.5-33t79-86.5T525,279q0-10 0-21t-1-25H112v65H443q-3,69-45.5,108T291,445q-43,0-79.5-19.5t-58.5-57T131,275V247q0-62 22.5-104t59-63T291,59q53,0 87.5,23.5T428,146h83q-12-45-42-81T394.5,8.5T291-12Zm95,559L182,663l12,72L395,607l-9-60Z"/>
      <glyph unicode="&#xe9;" glyph-name="gid74" horiz-adv-x="568" d="M291-12q-71,0-125.5,33T80,113.5T49,252q0,80 30.5,139t86,92T293,516q74,0 125.5-33t79-86.5T525,279q0-10 0-21t-1-25H112v65H443q-3,69-45.5,108T291,445q-43,0-79.5-19.5t-58.5-57T131,275V247q0-62 22.5-104t59-63T291,59q53,0 87.5,23.5T428,146h83q-12-45-42-81T394.5,8.5T291-12ZM191,547l-9,60L383,735l12-72L191,547Z"/>
      <glyph unicode="&#xea;" glyph-name="gid75" horiz-adv-x="568" d="M291-12q-71,0-125.5,33T80,113.5T49,252q0,80 30.5,139t86,92T293,516q74,0 125.5-33t79-86.5T525,279q0-10 0-21t-1-25H112v65H443q-3,69-45.5,108T291,445q-43,0-79.5-19.5t-58.5-57T131,275V247q0-62 22.5-104t59-63T291,59q53,0 87.5,23.5T428,146h83q-12-45-42-81T394.5,8.5T291-12ZM152,550v66l137,81l137-81V550L289,634L152,550Z"/>
      <glyph unicode="&#xeb;" glyph-name="gid76" horiz-adv-x="568" d="M291-12q-71,0-125.5,33T80,113.5T49,252q0,80 30.5,139t86,92T293,516q74,0 125.5-33t79-86.5T525,279q0-10 0-21t-1-25H112v65H443q-3,69-45.5,108T291,445q-43,0-79.5-19.5t-58.5-57T131,275V247q0-62 22.5-104t59-63T291,59q53,0 87.5,23.5T428,146h83q-12-45-42-81T394.5,8.5T291-12ZM210,570q-21,0-35.5,14.5T160,620q0,20 14.5,35T210,670q20,0 35-15t15-35q0-21-15-35.5T210,570Zm160,0q-21,0-35.5,14.5T320,620q0,20 14.5,35T370,670q20,0 34.5-15T419,620q0-21-14.5-35.5T370,570Z"/>
      <glyph unicode="&#xec;" glyph-name="gid87" horiz-adv-x="223" d="M70,0V504h84V0H70ZM209,547L5,663l12,72L218,607l-9-60Z"/>
      <glyph unicode="&#xed;" glyph-name="gid83" horiz-adv-x="223" d="M70,0V504h84V0H70ZM14,547L5,607L206,735l12-72L14,547Z"/>
      <glyph unicode="&#xee;" glyph-name="gid84" horiz-adv-x="223" d="M70,0V504h84V0H70ZM-25,550v66l137,81l137-81V550L112,634L-25,550Z"/>
      <glyph unicode="&#xef;" glyph-name="gid85" horiz-adv-x="223" d="M70,0V504h84V0H70ZM33,570q-21,0-35.5,14.5T-17,620q0,20 14.5,35T33,670q20,0 35-15t15-35q0-21-15-35.5T33,570Zm160,0q-21,0-35.5,14.5T143,620q0,20 14.5,35T193,670q20,0 34.5-15T242,620q0-21-14.5-35.5T193,570Z"/>
      <glyph unicode="&#xf0;" glyph-name="gid72" horiz-adv-x="619" d="M307-12q-75,0-133.5,34.5T82,116.5T49,251q0,77 33,135.5t91,92T303,512q46,0 89.5-15.5T468,446q-13,33-31.5,66t-42,65T341,639.5T275,700h84q57-48 97.5-100.5T522,492t36.5-111T570,270q0-84-34.5-147.5t-94-99T307-12Zm2,71q47,0 87,23t64,66.5T484,252q0,59-24,101.5t-63.5,65T309,441q-47,0-87-23t-63.5-65T135,252q0-60 24-103.5T222.5,82T309,59ZM244,551v57L531,708V651L244,551Z"/>
      <glyph unicode="&#xf1;" glyph-name="gid95" horiz-adv-x="574" d="M70,0V504h76l4-88q24,47 68.5,73.5T320,516q59,0 102-23.5t67-71T513,301V0H429V292q0,76-33.5,114T301,444q-42,0-75-20.5t-52.5-59T154,269V0H70ZM358,570q-27,0-45,12t-33.5,23.5T243,617q-16,0-27.5-11T201,572H152q7,50 32.5,75.5T247,673q27,0 44.5-11.5T325,638t37-12q17,0 28.5,11.5T405,671h49q-6-49-32-75t-64-26Z"/>
      <glyph unicode="&#xf2;" glyph-name="gid100" horiz-adv-x="593" d="M295-12q-70,0-126,32.5t-88,92T49,251q0,81 32.5,140.5t89,92T297,516q72,0 127.5-32.5t88-92T545,252T512,112.5t-89-92T295-12Zm1,72q43,0 80,21.5T436,146t23,106q0,64-22.5,106.5t-59,64T297,444q-42,0-79.5-21.5t-60-64T135,252q0-63 22.5-106t59-64.5T296,60Zm99,487L191,663l12,72L404,607l-9-60Z"/>
      <glyph unicode="&#xf3;" glyph-name="gid97" horiz-adv-x="593" d="M295-12q-70,0-126,32.5t-88,92T49,251q0,81 32.5,140.5t89,92T297,516q72,0 127.5-32.5t88-92T545,252T512,112.5t-89-92T295-12Zm1,72q43,0 80,21.5T436,146t23,106q0,64-22.5,106.5t-59,64T297,444q-42,0-79.5-21.5t-60-64T135,252q0-63 22.5-106t59-64.5T296,60ZM200,547l-9,60L392,735l12-72L200,547Z"/>
      <glyph unicode="&#xf4;" glyph-name="gid98" horiz-adv-x="593" d="M295-12q-70,0-126,32.5t-88,92T49,251q0,81 32.5,140.5t89,92T297,516q72,0 127.5-32.5t88-92T545,252T512,112.5t-89-92T295-12Zm1,72q43,0 80,21.5T436,146t23,106q0,64-22.5,106.5t-59,64T297,444q-42,0-79.5-21.5t-60-64T135,252q0-63 22.5-106t59-64.5T296,60ZM161,550v66l137,81l137-81V550L298,634L161,550Z"/>
      <glyph unicode="&#xf5;" glyph-name="gid102" horiz-adv-x="593" d="M295-12q-70,0-126,32.5t-88,92T49,251q0,81 32.5,140.5t89,92T297,516q72,0 127.5-32.5t88-92T545,252T512,112.5t-89-92T295-12Zm1,72q43,0 80,21.5T436,146t23,106q0,64-22.5,106.5t-59,64T297,444q-42,0-79.5-21.5t-60-64T135,252q0-63 22.5-106t59-64.5T296,60Zm57,510q-27,0-45,12t-33.5,23.5T238,617q-16,0-27.5-11T196,572H147q7,50 32.5,75.5T242,673q27,0 44.5-11.5T320,638t37-12q17,0 28.5,11.5T400,671h49q-6-49-32-75t-64-26Z"/>
      <glyph unicode="&#xf6;" glyph-name="gid99" horiz-adv-x="593" d="M295-12q-70,0-126,32.5t-88,92T49,251q0,81 32.5,140.5t89,92T297,516q72,0 127.5-32.5t88-92T545,252T512,112.5t-89-92T295-12Zm1,72q43,0 80,21.5T436,146t23,106q0,64-22.5,106.5t-59,64T297,444q-42,0-79.5-21.5t-60-64T135,252q0-63 22.5-106t59-64.5T296,60ZM219,570q-21,0-35.5,14.5T169,620q0,20 14.5,35T219,670q20,0 35-15t15-35q0-21-15-35.5T219,570Zm160,0q-21,0-35.5,14.5T329,620q0,20 14.5,35T379,670q20,0 34.5-15T428,620q0-21-14.5-35.5T379,570Z"/>
      <glyph unicode="&#xf7;" glyph-name="gid215" horiz-adv-x="550" d="M76,255v71H474V255H76ZM276,89q-25,0-41.5,16.5T218,146t16.5,40.5T276,203t41-16.5T333,146t-16-40.5T276,89Zm0,290q-25,0-41.5,16.5T218,436t16.5,40.5T276,493t41-16.5T333,436t-16-40.5T276,379Z"/>
      <glyph unicode="&#xf8;" glyph-name="gid101" horiz-adv-x="597" d="M40,0L477,504h79L120,0H40ZM297-12q-71,0-127,32.5t-88,92T50,251q0,81 32.5,140.5t89,92T299,516t127-32.5t88-92T546,252T513.5,112.5t-89-92T297-12Zm0,72q44,0 81,21.5T437.5,146T460,252q0,64-22,106.5t-59,64T299,444t-80-21.5t-60-64T136,252q0-63 22.5-106t59-64.5T297,60Z"/>
      <glyph unicode="&#xf9;" glyph-name="gid115" horiz-adv-x="573" d="M253-12q-58,0-101.5,23t-67,71T61,202V504h84V211q0-75 33-113t93-38q42,0 76,20.5t53.5,59T420,234V504h84V0H428l-5,88q-23-47-68-73.5T253-12ZM377,547L173,663l12,72L386,607l-9-60Z"/>
      <glyph unicode="&#xfa;" glyph-name="gid112" horiz-adv-x="573" d="M253-12q-58,0-101.5,23t-67,71T61,202V504h84V211q0-75 33-113t93-38q42,0 76,20.5t53.5,59T420,234V504h84V0H428l-5,88q-23-47-68-73.5T253-12ZM182,547l-9,60L374,735l12-72L182,547Z"/>
      <glyph unicode="&#xfb;" glyph-name="gid113" horiz-adv-x="573" d="M253-12q-58,0-101.5,23t-67,71T61,202V504h84V211q0-75 33-113t93-38q42,0 76,20.5t53.5,59T420,234V504h84V0H428l-5,88q-23-47-68-73.5T253-12ZM143,550v66l137,81l137-81V550L280,634L143,550Z"/>
      <glyph unicode="&#xfc;" glyph-name="gid114" horiz-adv-x="573" d="M253-12q-58,0-101.5,23t-67,71T61,202V504h84V211q0-75 33-113t93-38q42,0 76,20.5t53.5,59T420,234V504h84V0H428l-5,88q-23-47-68-73.5T253-12ZM201,570q-21,0-35.5,14.5T151,620q0,20 14.5,35T201,670q20,0 35-15t15-35q0-21-15-35.5T201,570Zm160,0q-21,0-35.5,14.5T311,620q0,20 14.5,35T361,670q20,0 34.5-15T410,620q0-21-14.5-35.5T361,570Z"/>
      <glyph unicode="&#xfd;" glyph-name="gid120" horiz-adv-x="556" d="M125-220L248,56H219L21,504h91L276,119L448,504h87L213-220H125Zm55,767l-9,60L372,735l12-72L180,547Z"/>
      <glyph unicode="&#xfe;" glyph-name="gid105" horiz-adv-x="626" d="M70-220V720h83V422q16,24 41,45.5t60,35T334,516q74,0 128.5-34.5t85-94.5T578,251T547.5,115.5T462,22T333-12q-61,0-107.5,25T154,83V-220H70ZM324,61q49,0 87,24t59.5,66.5T492,252q0,57-21.5,100T411,419t-87,24q-50,0-88-24t-59-67T156,252q0-58 21-100.5T236,85t88-24Z"/>
      <glyph unicode="&#xff;" glyph-name="gid121" horiz-adv-x="556" d="M125-220L248,56H219L21,504h91L276,119L448,504h87L213-220H125Zm74,790q-21,0-35.5,14.5T149,620q0,20 14.5,35T199,670q20,0 35-15t15-35q0-21-15-35.5T199,570Zm160,0q-21,0-35.5,14.5T309,620q0,20 14.5,35T359,670q20,0 34.5-15T408,620q0-21-14.5-35.5T359,570Z"/>
      <glyph unicode="&#x2013;" glyph-name="gid172" horiz-adv-x="669" d="M72,260v71H596V260H72Z"/>
      <glyph unicode="&#x2014;" glyph-name="gid173" horiz-adv-x="873" d="M72,260v71H800V260H72Z"/>
      <glyph unicode="&#x2018;" glyph-name="gid185" horiz-adv-x="210" d="M30,470l90,230h60L124,470H30Z"/>
      <glyph unicode="&#x2019;" glyph-name="gid186" horiz-adv-x="210" d="M180,700L90,470H30L86,700h94Z"/>
      <glyph unicode="&#x201a;" glyph-name="gid181" horiz-adv-x="188" d="M4-121L61,106h94L64-121H4Z"/>
      <glyph unicode="&#x201c;" glyph-name="gid183" horiz-adv-x="367" d="M186,470l91,230h60L280,470H186ZM30,470l90,230h60L124,470H30Z"/>
      <glyph unicode="&#x201d;" glyph-name="gid184" horiz-adv-x="367" d="M181,700L90,470H30L87,700h94Zm156,0L247,470H187l56,230h94Z"/>
      <glyph unicode="&#x201e;" glyph-name="gid182" horiz-adv-x="348" d="M4-121L61,106h94L64-121H4Zm161,0l56,227h94L225-121H165Z"/>
      <glyph unicode="&#x2022;" glyph-name="gid166" horiz-adv-x="360" d="M179,213q-32,0-59.5,16T76,272.5T60,333q0,34 16,61.5T119.5,438T179,454q34,0 61.5-16T284,394.5T300,333q0-33-16-60.5T240.5,229T179,213Z"/>
      <glyph unicode="&#x2039;" glyph-name="gid189" horiz-adv-x="276" d="M142,120L45,295l97,175h83L125,295L225,120H142Z"/>
      <glyph unicode="&#x203a;" glyph-name="gid190" horiz-adv-x="276" d="M134,120H51L151,295L51,470h83l97-175L134,120Z"/>
    </font>
</defs>
</svg>
