<?xml version="1.0" standalone="no"?>
<!DOCTYPE svg PUBLIC "-//W3C//DTD SVG 1.1//EN" "http://www.w3.org/Graphics/SVG/1.1/DTD/svg11.dtd">
<svg xmlns="http://www.w3.org/2000/svg">
  <defs>
    <font id="DMSans" horiz-adv-x="574">
      <font-face font-family="DM Sans 9pt" units-per-em="1000" panose-1="0 0 0 0 0 0 0 0 0 0" ascent="992" descent="-310" alphabetic="0"/>
      <glyph unicode=" " glyph-name="gid153" horiz-adv-x="235"/>
      <glyph unicode="!" glyph-name="gid161" horiz-adv-x="309" d="M97,228L82,700H227L212,228H97ZM155-5Q118-5 94.5,17.5T71,73t23.5,55.5T155,151t60-22.5T238,73T215,17.5T155-5Z"/>
      <glyph unicode="&quot;" glyph-name="gid191" horiz-adv-x="367" d="M223,537L211,755H327L315,537H223ZM53,537L40,755H156L144,537H53Z"/>
      <glyph unicode="#" glyph-name="gid168" horiz-adv-x="857" d="M447,0L599,726H725L574,0H447ZM138,0L289,726H416L265,0H138ZM32,171V293H763V171H32ZM85,437V558H817V437H85Z"/>
      <glyph unicode="$" glyph-name="gid207" horiz-adv-x="604" d="M268-87V792h66V-87H268Zm42,75q-76,0-135.5,26t-94,76T45,211H188q1-31 16-56t41.5-39.5T309,101q32,0 55.5,10.5T401,141t13,45q0,30-14.5,50t-40,34t-59,25.5T230,320q-83,27-126.5,72T60,511q0,63 30.5,108T175,688t123,24q71,0 124.5-24.5t85-70.5T540,509H396q-1,23-13.5,43.5t-34.5,33T296,598q-26,1-47.5-8t-34-26.5T202,520q0-25 12.5-42T249,448.5t52-23T366,404q52-18 96-42.5T532,298t26-103q0-55-29-102T445.5,17T310-12Z"/>
      <glyph unicode="%" glyph-name="gid224" horiz-adv-x="902" d="M187,0L580,700H711L318,0H187ZM687-12q-49,0-88.5,21.5T536,71.5T513,167q0,56 23,96t62.5,61.5T687,346t88-21.5T837,263t23-96q0-55-23-95.5t-62-62T687-12Zm-1,93q20,0 35,10t24,29t9,47q0,29-8.5,48.5t-24,29.5T686,255q-19,0-34.5-10T627,215.5T618,167q0-28 9-47t24.5-29T686,81ZM216,353q-48,0-87.5,22t-63,62T42,532q0,57 23.5,96.5t63,61.5T217,712t87.5-22t62-61.5T390,532q0-55-23.5-95T304,375t-88-22Zm0,93q19,0 34.5,10T275,485t9,47q0,30-9,49t-24.5,29T216,620t-34.5-10T157,580.5T148,532q0-28 9-47t24.5-29T216,446Z"/>
      <glyph unicode="&amp;" glyph-name="gid196" horiz-adv-x="781" d="M596,0L216,378q-46,46-65,83.5T132,541q0,48 24,87t70.5,61.5T338,712t109.5-24t68-63T538,537H409q0,36-21,54t-52,18q-34,0-54.5-18.5T261,542q0-24 15-50t46-58L757,0H596ZM292-11q-77,0-133.5,26.5T71,90T40,203q0,50 21,93.5t63,77T228,427l51,16l59-84l-46-15q-61-20-90.5-54T172,211q0-31 15-56.5T231,114t68-15q54,0 97,24t83,77q18,24 36,54t36,67l21,43H709l-34-69q-25-52-51-95t-54-76Q513,53 445.5,21T292-11Z"/>
      <glyph unicode="&apos;" glyph-name="gid192" horiz-adv-x="197" d="M53,537L40,755H157L144,537H53Z"/>
      <glyph unicode="(" glyph-name="gid175" horiz-adv-x="405" d="M239-145Q183-88 139-14.5T70.5,147T46,333q0,99 24.5,186.5T139,681T239,811H373V798q-60-63-103.5-138T202,502.5T178,333t24-169.5t68-157T373-132v-13H239Z"/>
      <glyph unicode=")" glyph-name="gid176" horiz-adv-x="405" d="M166-145H31v13Q91-68 135,6.5t67.5,157T226,333T202.5,502.5T135,660T31,798v13H166q56-56 99.5-130T334,519.5T359,333q0-98-25-186T265.5-14.5T166-145Z"/>
      <glyph unicode="*" glyph-name="gid167" horiz-adv-x="513" d="M211,360l19,140L121,411L70,500l129,50L71,599l47,84l113-87L210,737h98L286,596l113,87l46-83L316,549l130-50l-49-87L286,500l21-140H211Z"/>
      <glyph unicode="+" glyph-name="gid212" horiz-adv-x="579" d="M232,61V517H347V61H232ZM45,233V346H533V233H45Z"/>
      <glyph unicode="," glyph-name="gid157" horiz-adv-x="246" d="M22-123L79,131H209L110-123H22Z"/>
      <glyph unicode="-" glyph-name="gid171" horiz-adv-x="576" d="M77,238V351H499V238H77Z"/>
      <glyph unicode="." glyph-name="gid156" horiz-adv-x="252" d="M127-5Q89-5 66,17.5T43,73t23,55.5T127,151q36,0 59-22.5T209,73T186,17.5T127-5Z"/>
      <glyph unicode="/" glyph-name="gid169" horiz-adv-x="427" d="M23-114L273,779H404L154-114H23Z"/>
      <glyph unicode="0" glyph-name="gid127" horiz-adv-x="704" d="M352-12q-95,0-164,46T82.5,161.5T46,350T82.5,538.5T187.5,666T352,712t164.5-46t105-127.5T658,350T621.5,161.5T516.5,34T352-12Zm0,121q50,0 88,29.5T499.5,222T521,350q0,75-21.5,128.5T440,561t-88,29t-88-29t-59.5-82.5T183,350q0-74 21.5-128T264,138.5T352,109Z"/>
      <glyph unicode="1" glyph-name="gid128" horiz-adv-x="364" d="M155,0V545L31,512V620l182,80h82V0H155Z"/>
      <glyph unicode="2" glyph-name="gid129" horiz-adv-x="577" d="M50,0V99q64,51 124.5,102T283,302.5T359,401t28,93q0,28-10,51.5t-31.5,38T289,598t-59-16t-36-42.5T182,480H51q3,77 35,129t86,77.5T293,712q74,0 125-27.5T495.5,610T522,502q0-46-16.5-90t-46-85.5T393,247t-77-72.5T238,110H539V0H50Z"/>
      <glyph unicode="3" glyph-name="gid130" horiz-adv-x="603" d="M300-12q-68,0-125,25T84,89T48,218H180q1-33 15-59.5t41-42T300,101q35,0 60,14t38,37t13,53q0,35-17.5,58.5t-48,35.5T276,311H224V422h52q49,0 82.5,23T392,514q0,38-24.5,61T299,598q-48,0-75-28t-30-69H62q3,66 33.5,113.5T178,687t121,25q73,0 123.5-25.5T499,618t26-93q0-41-15.5-73T468,399t-57-30q39-8 68.5-30.5t46-57.5T542,200q0-57-27.5-105.5T432.5,17T300-12Z"/>
      <glyph unicode="4" glyph-name="gid131" horiz-adv-x="650" d="M389,0V127H45V234L371,700H524V244h91V127H524V0H389ZM189,244H398V551L189,244Z"/>
      <glyph unicode="5" glyph-name="gid132" horiz-adv-x="622" d="M319-12q-76,0-131.5,27T101,89T65,196H197q7-39 40-66t83-27q36,0 63,18t42,48.5T440,239q0,40-15.5,69t-42,45T322,369q-43,0-73.5-20.5T205,299H74l58,401H525V582H232L203,426q22,23 59,37.5T345,478q57,0 99-19.5t70-53t42-76T570,240q0-55-18.5-101t-52-80t-79-52.5T319-12Z"/>
      <glyph unicode="6" glyph-name="gid133" horiz-adv-x="634" d="M332-12q-79,0-133.5,29t-87,78t-47,109.5T50,327q0,118 33,204t95,133.5T328,712q74,0 125-28.5T532,609t33-99H439q-8,44-37,67.5T327,601q-43,0-75-26t-49.5-78T182,366q0-1 0-3t0-3q16,27 42,48t60,33t72,12q58,0 108-28t81-79t31-121q0-63-30.5-117.5T460,20.5T332-12Zm-8,116q36,0 63.5,15T431,160.5T447,221q0,36-16,62t-44,41t-64,15q-35,0-63-15t-44.5-41.5T199,222q0-35 16.5-61.5t45-41.5T324,104Z"/>
      <glyph unicode="7" glyph-name="gid134" horiz-adv-x="537" d="M111,0L368,585H29V700H506V605L251,0H111Z"/>
      <glyph unicode="8" glyph-name="gid135" horiz-adv-x="633" d="M316-12q-71,0-129.5,26T94,87T60,196q0,43 14.5,78T115,336t62,41q-45,21-72.5,60T77,525t27,92t80,69t132,26t132-26t80-69t27-92q0-48-27.5-87.5T455,377q36-15 62.5-41.5t41-61.5T573,196q0-62-34.5-109T446,14T316-12Zm0,113q62,0 93,30t31,76q0,51-32.5,80.5T316,317q-58,0-91.5-29.5T191,207q0-46 32-76t93-30Zm0,315q51,0 78.5,26T422,509q0,44-27.5,68.5T316,602q-50,0-78-24.5T210,508q0-40 28-66t78-26Z"/>
      <glyph unicode="9" glyph-name="gid136" horiz-adv-x="635" d="M306-12q-73,0-124,28.5T103.5,91T70,190H196q9-44 37.5-67.5T308,99q43,0 74.5,25.5t49.5,77T452,329q0,3 0,6t0,5q-14-26-41-47.5T350.5,259T279,247q-57,0-108,28T89,354T58,475q0,64 31,118t86,86.5T302,712q80,0 134-29t86.5-78t47-109.5T584,373q0-117-32.5-203.5T457,35.5T306-12Zm5,373q36,0 63.5,15t44,41.5T435,478q0,35-16.5,62T374,581.5T310,596q-35,0-63-15t-43.5-41T188,479t15.5-61.5T247,376t64-15Z"/>
      <glyph unicode=":" glyph-name="gid158" horiz-adv-x="254" d="M127-5Q89-5 66,17.5T43,73t23,55.5T127,151q36,0 59-22.5T209,73T186,17.5T127-5Zm0,366q-38,0-61,22.5T43,439t23,55.5T127,517q36,0 59-22.5T209,439t-23-55.5T127,361Z"/>
      <glyph unicode=";" glyph-name="gid159" horiz-adv-x="278" d="M151,361q-38,0-61,22.5T67,439t23,55.5T151,517q36,0 59-22.5T233,439t-23-55.5T151,361ZM30-123L87,131H217L118-123H30Z"/>
      <glyph unicode="&lt;" glyph-name="gid218" horiz-adv-x="579" d="M485,54H315L95,278L315,504H485L264,278L485,54Z"/>
      <glyph unicode="=" glyph-name="gid216" horiz-adv-x="579" d="M75,343V461H504V343H75Zm0-224V237H504V119H75Z"/>
      <glyph unicode="&gt;" glyph-name="gid217" horiz-adv-x="579" d="M94,54L315,278L94,504H265L485,278L265,54H94Z"/>
      <glyph unicode="?" glyph-name="gid163" horiz-adv-x="538" d="M143,226l-5,161h48q38,0 71,5t57.5,17T353,443.5T367,502q0,31-12.5,53T319,589t-54,12q-33,0-56-12.5t-36-34T160,503H33q-1,60 27,107t80.5,74.5T266,712q68,0 120.5-24.5t82-71.5T498,502q0-69-29.5-114t-82-67T265,298l-3-72H143ZM203-5q-37,0-60.5,22.5T119,73t23.5,55.5T203,151t60-22.5T286,73T263,17.5T203-5Z"/>
      <glyph unicode="@" glyph-name="gid195" horiz-adv-x="1046" d="M444-214q-110,0-193,43T122-48T76,139q0,111 37.5,205t107,164t164,109T592,656q116,0 200.5-44T924,490t47-181q0-61-15.5-117t-45-100.5T837.5,21T737-5Q668-5 635.5,35T612,141l3,32l20-54q-24-58-75.5-92T445-7Q371-7 329,38.5T287,162q0,55 16.5,105T351,356t74,62t94,23q58,0 90.5-28.5T649,331l-21-15l21,117H759L713,167q-7-37 2-60.5T756,83q28,0 48.5,20T839,156t20.5,72t6.5,76q0,81-34.5,139.5t-99,90T578,565q-88,0-160.5-32t-126-89t-83-132T179,150q0-86 34-147t97-92.5T460-121q46,0 90.5,9T632-86l22-88q-48-20-100.5-30T444-214ZM487,92q34,0 62.5,19.5T596,164t20,75q2,30-7.5,53.5t-29,37T531,343t-52-13t-39.5-35.5t-25.5-51T405,184q0-41 20.5-66.5T487,92Z"/>
      <glyph unicode="A" glyph-name="gid1" horiz-adv-x="709" d="M22,0L278,700H431L686,0H543L354,546L164,0H22ZM135,159l36,105H527l35-105H135Z"/>
      <glyph unicode="B" glyph-name="gid10" horiz-adv-x="638" d="M69,0V700H356q73,0 123-23t75.5-63.5T580,520t-23-89t-60.5-55.5T414,353l16,11q48-2 85.5-25.5t59-62.5T596,191q0-56-27-99T491,24.5T366,0H69ZM204,110H344q55,0 85,25t30,72t-31,73.5T342,307H204V110Zm0,298H334q53,0 80.5,24T442,500q0,43-27.5,67.5T333,592H204V408Z"/>
      <glyph unicode="C" glyph-name="gid11" horiz-adv-x="738" d="M383-12Q278-12 202.5,33.5t-116,127T46,349T86.5,538t116,128T383,712q127,0 208-63T692,471H545q-13,56-54.5,87.5T382,590q-62,0-106.5-29.5t-68.5-83T183,349q0-74 24-128t68.5-83T382,109q67,0 108,29.5T544,221H692Q672,112 591,50T383-12Z"/>
      <glyph unicode="D" glyph-name="gid13" horiz-adv-x="707" d="M69,0V700H303q122,0 201.5-43.5t118-122T661,350T622.5,165.5T505,43.5T303,0H69ZM204,116h92q86,0 135.5,28T502,224.5T523,350q0,74-21,126.5T431.5,557T296,585H204V116Z"/>
      <glyph unicode="E" glyph-name="gid15" horiz-adv-x="583" d="M69,0V700H529V591H204V408H499V303H204V109H529V0H69Z"/>
      <glyph unicode="F" glyph-name="gid20" horiz-adv-x="556" d="M69,0V700H525V591H204V404H461V298H204V0H69Z"/>
      <glyph unicode="G" glyph-name="gid21" horiz-adv-x="778" d="M376-12Q276-12 202,32.5T87,157.5T46,345q0,108 42,190.5T209,665t189,47q123,0 204.5-59T708,489H557q-15,46-55.5,72.5T397,588q-68,0-116-30t-73-84T183,345q0-76 25-129t71.5-80.5T389,108q92,0 139.5,49.5T585,286H413V387H721V0H596L586,89q-22-33-51.5-55.5T466-0.5T376-12Z"/>
      <glyph unicode="H" glyph-name="gid22" horiz-adv-x="714" d="M510,0V700H645V0H510ZM69,0V700H204V0H69ZM185,303V412H533V303H185Z"/>
      <glyph unicode="I" glyph-name="gid23" horiz-adv-x="272" d="M69,0V700H204V0H69Z"/>
      <glyph unicode="J" glyph-name="gid28" horiz-adv-x="541" d="M256-12q-68,0-119.5,26T57,90.5T29,213H164q0-32 9.5-55.5t29-36T253,109q30,0 48.5,11.5t27,33T337,205V700H472V205q0-105-58.5-161T256-12Z"/>
      <glyph unicode="K" glyph-name="gid29" horiz-adv-x="653" d="M69,0V700H204V423L457,700H623L366,423L631,0H466L269,318l-65-70V0H69Z"/>
      <glyph unicode="L" glyph-name="gid30" horiz-adv-x="558" d="M69,0V700H204V105H511V0H69Z"/>
      <glyph unicode="M" glyph-name="gid32" horiz-adv-x="886" d="M69,0V700H230L444,263L656,700H817V0H682V470L497,98H390L204,470V0H69Z"/>
      <glyph unicode="N" glyph-name="gid33" horiz-adv-x="729" d="M69,0V700H204L526,217V700H661V0H526L204,482V0H69Z"/>
      <glyph unicode="O" glyph-name="gid35" horiz-adv-x="784" d="M392-12Q290-12 212,34T90,161.5T46,350T90,538.5T212,666t180,46q103,0 181-46T694.5,538.5T738,350T694.5,161.5T573,34T392-12Zm0,121q64,0 110.5,29.5T575,222t26,128q0,75-26,128.5T502.5,561T392,590q-63,0-110-29t-73-82.5T183,350q0-74 26-128t73-83.5T392,109Z"/>
      <glyph unicode="P" glyph-name="gid43" horiz-adv-x="614" d="M69,0V700H331q85,0 141-29t83-78t27-112q0-58-26-107t-82-79.5T331,264H204V0H69ZM204,373H323q65,0 93.5,29.5T445,481q0,52-28.5,80.5T323,590H204V373Z"/>
      <glyph unicode="Q" glyph-name="gid45" horiz-adv-x="784" d="M557-110L302,291H457L718-110H557ZM392-12Q290-12 212,34T90,161.5T46,350T90,538.5T212,666t180,46q103,0 181-46T694.5,538.5T738,350T694.5,161.5T573,34T392-12Zm0,121q64,0 110.5,29.5T575,222t26,128q0,75-26,128.5T502.5,561T392,590q-63,0-110-29t-73-82.5T183,350q0-74 26-128t73-83.5T392,109Z"/>
      <glyph unicode="R" glyph-name="gid46" horiz-adv-x="631" d="M69,0V700H330q85,0 140-29t82-77.5T579,486q0-56-26-104.5t-81.5-78T329,274H204V0H69ZM432,0L288,308H434L586,0H432ZM204,372H322q61,0 90,30t29,79t-28.5,77.5T322,587H204V372Z"/>
      <glyph unicode="S" glyph-name="gid47" horiz-adv-x="604" d="M310-12q-76,0-135.5,26t-94,76T45,211H188q1-31 16-56t41.5-39.5T309,101q32,0 55.5,10.5T401,141t13,45q0,30-14.5,50t-40,34t-59,25.5T230,320q-83,27-126.5,72T60,511q0,63 30.5,108T175,688t123,24q71,0 124.5-24.5t85-70.5T540,509H396q-1,23-13.5,43.5t-34.5,33T296,598q-26,1-47.5-8t-34-26.5T202,520q0-25 12.5-42T249,448.5t52-23T366,404q52-18 96-42.5T532,298t26-103q0-55-29-102T445.5,17T310-12Z"/>
      <glyph unicode="T" glyph-name="gid48" horiz-adv-x="597" d="M232,0V591H27V700H570V591H366V0H232Z"/>
      <glyph unicode="U" glyph-name="gid49" horiz-adv-x="685" d="M340-12q-77,0-140,31T100,112T63,270V700H198V269q0-52 17-87.5T264.5,129T342,112q46,0 78.5,17T470,181.5T487,269V700H622V270q0-96-38-158T481.5,19T340-12Z"/>
      <glyph unicode="V" glyph-name="gid54" horiz-adv-x="706" d="M270,0L15,700H159L353,138L548,700H691L436,0H270Z"/>
      <glyph unicode="W" glyph-name="gid55" horiz-adv-x="1018" d="M210,0L26,700H170L292,153L436,700H585L725,153L848,700H993L804,0H643L509,510L370,0H210Z"/>
      <glyph unicode="X" glyph-name="gid56" horiz-adv-x="670" d="M33,0L254,355L30,700H186L340,461L481,700H633L414,349L639,0H483L328,243L186,0H33Z"/>
      <glyph unicode="Y" glyph-name="gid57" horiz-adv-x="635" d="M250,0V246L14,700H167L332,354H305L469,700H621L385,246V0H250Z"/>
      <glyph unicode="Z" glyph-name="gid59" horiz-adv-x="577" d="M49,0V104L372,588H51V700H527V596L203,112H529V0H49Z"/>
      <glyph unicode="[" glyph-name="gid179" horiz-adv-x="377" d="M69-173V811H322V702H195V-63H322V-173H69Z"/>
      <glyph unicode="\" glyph-name="gid170" horiz-adv-x="427" d="M404-114H273L23,779H154L404-114Z"/>
      <glyph unicode="]" glyph-name="gid180" horiz-adv-x="377" d="M308-173H55V-63H182V702H55V811H308V-173Z"/>
      <glyph unicode="^" glyph-name="gid222" horiz-adv-x="677" d="M35,200L274,700H403L642,200H506L339,548L171,200H35Z"/>
      <glyph unicode="_" glyph-name="gid174" horiz-adv-x="725" d="M77-168V-39H648V-168H77Z"/>
      <glyph unicode="`" glyph-name="gid263" horiz-adv-x="235" d="M222,547L0,658L15,761L235,636l-13-89Z"/>
      <glyph unicode="a" glyph-name="gid60" horiz-adv-x="586" d="M236-12Q173-12 132,8.5t-60.5,55T52,140q0,46 23.5,81t71,55T266,296H391q0,37-10,61.5T350,394t-56,12q-38,0-64.5-16.5T197,339H66q5,54 35.5,93.5t81,61.5T295,516q71,0 123-24t80-69t28-111V0H412L397,77q-11-20-26-36T336,13T291-5.5T236-12ZM268,92q26,0 46.5,9.5t35.5,26t23.5,38T385,212v1H282q-31,0-50.5-7.5T203,184t-9-32q0-20 9-33t26-20t39-7Z"/>
      <glyph unicode="b" glyph-name="gid68" horiz-adv-x="655" d="M364-12q-39,0-69.5,10t-54,27.5T201,65L186,0H66V720H201V434q24,35 63.5,58.5T363,516q70,0 124.5-34.5t86-94T605,251q0-75-31.5-135T488,22T364-12ZM332,106q40,0 70.5,18.5t47.5,51T467,251t-17,76.5t-47.5,52T332,398q-39,0-69.5-18.5t-48-51.5T197,252t17.5-76.5t48-51.5T332,106Z"/>
      <glyph unicode="c" glyph-name="gid69" horiz-adv-x="607" d="M310-12q-76,0-135,34T83,115T50,250q0,78 33,137.5t92,94T310,516q97,0 163-51t84-140H414q-9,35-37.5,55T309,400q-35,0-62.5-17.5t-43-51T188,252q0-35 9-62.5t25-47T260.5,113T309,103t47.5,9T393,137.5T414,178H557Q539,91 472.5,39.5T310-12Z"/>
      <glyph unicode="d" glyph-name="gid71" horiz-adv-x="655" d="M290-12q-69,0-123.5,34T81,116T50,251q0,77 31.5,136.5t87,94T293,516q54,0 95-20t66-57V720H589V0H469L454,69q-15-21-37.5-40T363-1T290-12Zm32,118q40,0 70.5,18.5T440,176t17,76t-17,76t-47.5,51.5T322,398q-38,0-69-18.5T204.5,328T187,253q0-44 17.5-77t48-51.5T322,106Z"/>
      <glyph unicode="e" glyph-name="gid73" horiz-adv-x="602" d="M308-12q-76,0-134.5,32.5t-91,91T50,247q0,79 32.5,139.5t90.5,95T308,516q75,0 131-33t87-89t31-127q0-10 0-22.5T555,219H146v82H421q-3,49-34.5,77T308,406q-34,0-63-15.5T199.5,343T183,262V233q0-41 15.5-71.5t43.5-47T307,98t61.5,16T405,155H543q-14-47-47-85T415,10T308-12Z"/>
      <glyph unicode="f" glyph-name="gid78" horiz-adv-x="371" d="M89,0V549q0,63 21,100t60.5,54T263,720h62V605H283q-32,0-45.5-12.5T224,549V0H89ZM20,391V504H333V391H20Z"/>
      <glyph unicode="g" glyph-name="gid79" horiz-adv-x="596" d="M283-232q-72,0-126,17.5t-83.5,53T44-74Q44-39 62-8t52.5,56.5T201,92l51-66q-46-15-66.5-37.5T165-60q0-23 15.5-39t42-23.5T282-130q32,0 55.5,8t37,23.5T388-62q0,27-19,44T293,3q-51,4-90.5,11.5T133,32.5T82.5,56T49,82v23L156,220l97-31L127,65l38,66q11-6 21.5-11.5t26.5-10t42-8.5t66-7q66-6 108.5-25T492,18.5T512-59q0-45-24.5-84.5t-75.5-64T283-232Zm0,381q-63,0-108.5,24.5t-70,66T80,332t24.5,92.5t70,66.5T283,516q64,0 109.5-25T462,424.5T486,332t-24-92.5t-69.5-66T283,149Zm0,103q39,0 63,20t24,59t-24,59.5T283,411q-38,0-62.5-20.5T196,331t24.5-59T283,252Zm84,156l-22,96H552V424L367,408Z"/>
      <glyph unicode="h" glyph-name="gid80" horiz-adv-x="618" d="M66,0V720H201V429q25,40 66.5,63.5T364,516q63,0 106-26.5T535,413t22-124V0H423V277q0,60-25,92.5T319,402q-33,0-60-16t-42.5-46.5T201,267V0H66Z"/>
      <glyph unicode="i" glyph-name="gid81" horiz-adv-x="274" d="M69,0V504H204V0H69Zm68,573q-36,0-59.5,21.5T54,649t23.5,54.5T137,725q37,0 60.5-21.5T221,649t-23.5-54.5T137,573Z"/>
      <glyph unicode="j" glyph-name="gid88" horiz-adv-x="274" d="M-29-220v115H12q32,0 45.5,13T71-50V504H206V-49q0-62-21.5-99.5T124-203T32-220H-29ZM139,573q-37,0-60,21.5T56,649t23,54.5T139,725t60-21.5T222,649t-23-54.5T139,573Z"/>
      <glyph unicode="k" glyph-name="gid90" horiz-adv-x="578" d="M396,0L181,276L374,504H533L284,219V326L564,0H396ZM66,0V720H201V0H66Z"/>
      <glyph unicode="l" glyph-name="gid91" horiz-adv-x="267" d="M66,0V720H201V0H66Z"/>
      <glyph unicode="m" glyph-name="gid93" horiz-adv-x="941" d="M66,0V504H185l11-67q24,36 63.5,57.5T350,516q38,0 68-10t53.5-29T510,429q28,41 73,64t98,23q66,0 110-26.5T857.5,413T880,290V0H746V278q0,60-23.5,92T650,402q-32,0-57-16t-38.5-46T541,268V0H406V278q0,60-24,92t-74,32q-31,0-55.5-16t-38-46T201,268V0H66Z"/>
      <glyph unicode="n" glyph-name="gid94" horiz-adv-x="617" d="M66,0V504H185l10-82q23,42 65.5,68T362,516q63,0 106-26t65.5-76T556,291V0H422V278q0,60-25.5,92T318,402q-34,0-60.5-16T216,340.5T201,269V0H66Z"/>
      <glyph unicode="o" glyph-name="gid96" horiz-adv-x="610" d="M304-12q-72,0-129.5,33.5t-91,93T50,251q0,79 33.5,138.5t91.5,93T305,516q73,0 130.5-33.5t91-93T560,252T526.5,114.5T435,21.5T304-12Zm0,117q34,0 60.5,16t42,49T422,252t-15.5,81.5t-42,49T305,399q-32,0-59-16.5t-42.5-49T188,252t15.5-82t42-49T304,105Z"/>
      <glyph unicode="p" glyph-name="gid104" horiz-adv-x="655" d="M66-220V504H186l15-70q16,22 38,40.5t52.5,30T363,516q71,0 125-35t85.5-94.5T605,251T573,115.5T487,22T364-12q-56,0-96.5,20.5T201,65V-220H66ZM332,106q40,0 70.5,18T450,175t17,76t-17,76.5t-47.5,52T332,398q-39,0-69.5-18.5t-48-51.5T197,252t17.5-76.5t48-51.5T332,106Z"/>
      <glyph unicode="q" glyph-name="gid106" horiz-adv-x="655" d="M454-220V70q-24-36-63.5-59T293-12q-70,0-125,34.5T81.5,117T50,252q0,76 32,135.5t87,94T293,516q38,0 68-9.5t53.5-27T454,438l15,66H589V-220H454ZM322,106q40,0 70.5,18.5T440,176t17,76t-17,76t-47.5,51.5T322,398q-38,0-69-18.5T204.5,328T187,253q0-44 17.5-77t48-51.5T322,106Z"/>
      <glyph unicode="r" glyph-name="gid107" horiz-adv-x="409" d="M66,0V504H186l13-93q18,33 45.5,56t63,36T386,516V373H340q-30,0-55.5-7T240,343.5T211,301t-10-68V0H66Z"/>
      <glyph unicode="s" glyph-name="gid108" horiz-adv-x="532" d="M272-12q-69,0-120,22T72,71T39,159H173q5-19 17-34.5T222,100t48-9q27,0 44,7.5T339.5,119t8.5,27q0,21-12,32.5T301,197t-56,14q-36,7-70.5,17.5T113,255T70,296T54,358q0,45 24,80.5T148,495t111,21q91,0 144-41t63-113H339q-6,23-26.5,36.5T258,412q-36,0-55-13t-19-34q0-14 12.5-25T232,321.5T288,307q58-12 102-27.5t69-44T484,153q0-48-26-85.5T384.5,9T272-12Z"/>
      <glyph unicode="t" glyph-name="gid110" horiz-adv-x="433" d="M293,0q-53,0-92.5,16.5T139,71.5T117,177V391H31V504h86l15,137H252V504H385V391H252V175q0-34 15-47t51-13h66V0H293Z"/>
      <glyph unicode="u" glyph-name="gid111" horiz-adv-x="616" d="M254-12q-61,0-104.5,25.5T83,88.5T60,211V504H195V225q0-61 25.5-92T299,102q34,0 60,15.5t41.5,45T416,235V504H550V0H432L421,82q-22-43-65-68.5T254-12Z"/>
      <glyph unicode="v" glyph-name="gid116" horiz-adv-x="565" d="M201,0L16,504H158L283,127L408,504H549L365,0H201Z"/>
      <glyph unicode="w" glyph-name="gid117" horiz-adv-x="820" d="M165,0L17,504H150L248,95l-25,1L335,504H485L597,96l-26-1l99,409H803L655,0H515L396,420h28L305,0H165Z"/>
      <glyph unicode="x" glyph-name="gid118" horiz-adv-x="571" d="M19,0L200,252L19,504H165L286,331L407,504H552L371,252L552,0H407L286,174L165,0H19Z"/>
      <glyph unicode="y" glyph-name="gid119" horiz-adv-x="604" d="M130-220L252,56H222L20,504H167L311,179L441,504H584L273-220H130Z"/>
      <glyph unicode="z" glyph-name="gid122" horiz-adv-x="490" d="M33,0V108L287,392H36V504H442V395L186,112H447V0H33Z"/>
      <glyph unicode="{" glyph-name="gid177" horiz-adv-x="470" d="M342-177q-78,0-126.5,43T167-8q0,33 5,61t10.5,56.5T188,172q0,24-9.5,43.5t-31.5,32T87,264V372q38,4 60,16t31.5,31.5T188,463q0,34-5.5,62.5T172,582t-5,61q0,83 48.5,125.5T342,811h65V699H367q-35,0-52.5-16T297,631q0-25 5-51t9.5-55.5T316,458q0-53-26-90t-83-49v-2q57-12 83-49.5T316,177q0-37-4.5-66.5t-9.5-55T297,4q0-35 17.5-52T367-65h40V-177H342Z"/>
      <glyph unicode="|" glyph-name="gid203" horiz-adv-x="272" d="M69-100V720H204V-100H69Z"/>
      <glyph unicode="}" glyph-name="gid178" horiz-adv-x="470" d="M129-177H63V-65h40q36,0 53,17T173,4q0,26-4.5,51.5t-9,55T155,177q0,53 26,90.5T263,317v2q-56,12-82,49t-26,90q0,37 4.5,66.5t9,55.5t4.5,51q0,36-17,52t-53,16H63V811h66q78,0 126-42.5T303,643q0-33-5-61t-10.5-56.5T282,463q0-24 9.5-43.5t32-31.5T384,372V264q-38-4-60.5-16.5t-32-32T282,172q0-34 5.5-62.5T298,53t5-61q0-83-48-126T129-177Z"/>
      <glyph unicode="~" glyph-name="gid220" horiz-adv-x="579" d="M377,224q-32,0-56.5,10.5t-45.5,24T234.5,282T193,292q-26,0-42-17.5T130,225H29q10,65 33.5,106.5t59,61T200,412q32,0 57-10.5T303,378t40.5-23.5T385,344q26,0 42.5,17.5T448,411H549q-8-65-32-106t-59.5-61T377,224Z"/>
      <glyph unicode="&#xa0;" glyph-name="gid154" horiz-adv-x="235"/>
      <glyph unicode="&#xa1;" glyph-name="gid162" horiz-adv-x="309" d="M97,283H212l15-472H82L97,283Zm58,233q37,0 60-23t23-55q0-33-23-56t-60-23T94.5,382T71,438q0,32 23.5,55T155,516Z"/>
      <glyph unicode="&#xa2;" glyph-name="gid205" horiz-adv-x="607" d="M248-104V68H372V-104H248Zm0,540V608H372V436H248ZM310-12q-76,0-135,34T83,115T50,250q0,78 33,137.5t92,94T310,516q97,0 163-51t84-140H414q-9,35-37.5,55T309,400q-35,0-62.5-17.5t-43-51T188,252q0-35 9-62.5t25-47T260.5,113T309,103t47.5,9T393,137.5T414,178H557Q539,91 472.5,39.5T310-12Z"/>
      <glyph unicode="&#xa3;" glyph-name="gid209" horiz-adv-x="627" d="M76,0V78q26,26 44,53t27.5,59t9.5,74q0,28-8,55t-19,55.5T111.5,434T104,499q0,66 29,113.5T214,686t120,26q76,0 126.5-29.5t77-78.5T567,494H442q-1,46-28,76.5T336,601q-28,0-52-12t-38-35.5T232,494q0-25 8-52.5t18.5-56t18-59T284,265q0-41-15.5-81.5T215,108H570V0H76ZM41,297v91H443V297H41Z"/>
      <glyph unicode="&#xa4;" glyph-name="gid206" horiz-adv-x="560" d="M280,118q-56,0-99.5,22T112,202.5T87,298t25.5,95T182,454.5T281,476q56,0 100-21.5T450,393t25-95t-25.5-95.5T380,140T280,118ZM118,78L63,135l92,92l66-46L118,78Zm324,0l-91,91l59,54l88-88L442,78ZM281,204q20,0 39,9.5t31,30T363,297q0,34-12,54.5t-30.5,30T280,391q-21,0-39.5-9.5t-30.5-30T198,297q0-33 11.5-53.5t30.5-30t41-9.5ZM152,373L63,462l55,57l96-96l-62-50Zm248-8l-54,57l96,97l56-57l-98-97Z"/>
      <glyph unicode="&#xa5;" glyph-name="gid210" horiz-adv-x="650" d="M58,151v92H593V151H58ZM283,319H58v92H279l4-92Zm113,0l4,92H593V319H396ZM258,0V246L22,700H175L340,354H313L477,700H629L393,246V0H258Z"/>
      <glyph unicode="&#xa6;" glyph-name="gid204" horiz-adv-x="272" d="M69,395V720H204V395H69Zm0-495V225H204V-100H69Z"/>
      <glyph unicode="&#xa7;" glyph-name="gid198" horiz-adv-x="617" d="M304-232q-70,0-124,24.5T95-137T62-29H207q1-23 13-43.5t34-33T306-118q41-1 67.5,19T400-40q0,25-12.5,41T353,28T301.5,48.5T237,70q-52,17-96,43T71,178.5T45,278q0,39 14,74.5T100,416q-13,19-20,42.5T73,511q0,63 30.5,108T188,688t122,24q72,0 125.5-24.5t85-70.5T553,509H409q-1,23-13,43.5t-34,33T309,598q-40,1-67-19t-27-59q0-25 12.5-41T262,452t52-21t65-21q52-18 96-43.5T545,302t26-100q0-39-14-74.5T515,64q14-19 20.5-42.5T542-31q0-61-30.5-106.5t-84-70T304-232ZM407,139q10,10 15,24t5,30q0,26-11.5,44T382,268.5T330,294t-66,25q-18,6-31.5,11.5T208,341q-10-10-15-23.5T188,287q0-20 7.5-35T217,224.5T251,202t45.5-20T351,161q15-5 29-10.5T407,139Z"/>
      <glyph unicode="&#xa8;" glyph-name="gid262" horiz-adv-x="339" d="M261,563q-27,0-45,18.5T198,627t18,45.5T261,691t45.5-18.5T325,627t-18.5-45.5T261,563ZM77,563q-26,0-44.5,18.5T14,627t18.5,45.5T77,691q28,0 46.5-18.5T142,627t-18.5-45.5T77,563Z"/>
      <glyph unicode="&#xa9;" glyph-name="gid199" horiz-adv-x="785" d="M393-6Q289-6 210.5,40T87.5,167T43,352q0,105 44.5,185.5t123,126T393,709t182.5-45.5T698,537.5T742,352q0-104-44-185T575.5,40T393-6Zm0,130q-61,0-111.5,27.5t-79,79T174,352q0,71 28.5,122t79,78.5T393,580q78,0 134.5-42T601,421H483q-10,31-34.5,48.5T390,487q-30,0-53.5-15T299,427t-14-75t14-75t37.5-45T390,217q37,0 59.5,17.5T483,283H601q-17-72-73.5-115.5T393,124Zm0-82q92,0 159,39.5t103,109T691,352q0,94-36.5,163t-103,107.5T393,661T234,622.5T131,515T95,352q0-92 36-162T234,81T393,42Z"/>
      <glyph unicode="&#xaa;" glyph-name="gid125" horiz-adv-x="506" d="M220,348q-48,0-86,22.5T74,434T52,530t22,95.5T133.5,688T217,710q47,0 78-16.5T343,651l8,54h95V353H351l-8,53q-16-25-47-41.5T220,348Zm30,81q26,0 46.5,12T330,475.5T343,529q0,48-27.5,73.5T250,628q-37,0-64.5-25.5T158,529t27.5-74T250,429Z"/>
      <glyph unicode="&#xab;" glyph-name="gid187" horiz-adv-x="514" d="M337,120L247,295l90,175H464L371,295l93-175H337Zm-206,0L42,295l89,175H258L166,295l92-175H131Z"/>
      <glyph unicode="&#xac;" glyph-name="gid221" horiz-adv-x="579" d="M453,198V334H-8V438H588V198H453Z"/>
      <glyph unicode="&#xae;" glyph-name="gid200" horiz-adv-x="510" d="M255,291q-61,0-109,27.5T71,393T44,501q0,62 27,109.5T146,685t109,27q62,0 109-27t74-74.5T465,501q0-61-27-108t-74-74.5T255,291Zm33,106l-56,96h65l62-96H288Zm-33-58q49,0 84.5,20.5t55,57.5T414,501q0,49-19.5,85.5t-55,57T255,664q-48,0-84-20.5t-55.5-57T96,501q0-47 19.5-84T171,359.5T255,339Zm-86,58V610H273q35,0 55.5-18T349,543t-20.5-49.5T273,475H231V397H169Zm61,123h35q9,0 15,4.5t6,14.5q0,11-6,15t-15,4H230V520Z"/>
      <glyph unicode="&#xaf;" glyph-name="gid268" horiz-adv-x="401" d="M11,577v95H390V577H11Z"/>
      <glyph unicode="&#xb0;" glyph-name="gid202" horiz-adv-x="363" d="M181,423q-38,0-71,17.5t-53,50T37,566q0,45 20.5,78T111,694.5T182,712q39,0 71.5-17.5t52-50.5T325,566q0-43-20-75.5t-52.5-50T181,423Zm0,85q20,0 38,15t18,45t-17.5,44.5T182,627t-38-15t-18-44q0-30 17.5-45T181,508Z"/>
      <glyph unicode="&#xb1;" glyph-name="gid219" horiz-adv-x="579" d="M42,0V103H537V0H42ZM232,169V532H347V169H232ZM42,294V407H537V294H42Z"/>
      <glyph unicode="&#xb2;" glyph-name="gid150" horiz-adv-x="361" d="M37,352v76l118,82q29,20 45,40.5T216,596q0,20-10.5,30.5T179,637q-19,0-29.5-12T136,592H34q3,52 42.5,86T188,712q46,0 76.5-15.5T310,656t15-53q0-39-26.5-67.5T216,475l-69-42H324V352H37Z"/>
      <glyph unicode="&#xb3;" glyph-name="gid151" horiz-adv-x="356" d="M177,348q-76,0-114.5,31T20,463H125q2-15 8-24t16.5-13t22.5-4q21,0 33,10.5T217,463q0,21-14,32t-37,11H127v50h35q24,0 37.5,10.5T213,598q0,19-12,29t-33,10q-19,0-30.5-9.5T122,600H25q2,30 19,56t50.5,41T179,712q63,0 103-29.5T322,609q0-31-17.5-50.5T256,531v-2q33-10 52-30t19-52q0-44-40.5-71.5T177,348Z"/>
      <glyph unicode="&#xb4;" glyph-name="gid264" horiz-adv-x="235" d="M12,547L0,636L219,761l16-103L12,547Z"/>
      <glyph unicode="&#xb5;" glyph-name="gid223" horiz-adv-x="624" d="M66-220V496H201V230q0-62 25-95t80-33q34,0 60.5,16.5T408,166t15,74V496H558V0H440L429,83q-23-43-66-69T260-12q-17,0-31.5,3.5T201,2V-220H66Z"/>
      <glyph unicode="&#xb6;" glyph-name="gid197" horiz-adv-x="652" d="M287-100V281H269q-83,0-135.5,29t-77,76.5T32,490q0,57 25,104.5T134.5,671T269,700H584V-100H470V596H400V-100H287Z"/>
      <glyph unicode="&#xb7;" glyph-name="gid165" horiz-adv-x="252" d="M127,248q-38,0-61,22.5T43,326t23,55.5T127,404q36,0 59-22.5T209,326t-23-55.5T127,248Z"/>
      <glyph unicode="&#xb8;" glyph-name="gid269" horiz-adv-x="266" d="M0-264v77H115q25,0 38,8.5T166-152t-13,26t-38,8H53V7h84V-48q33,1 62.5-10t48-34.5T266-154q0-37-18.5-61.5t-48-36.5T135-264H0Z"/>
      <glyph unicode="&#xb9;" glyph-name="gid149" horiz-adv-x="237" d="M93,352V607L23,591v64l115,49h59V352H93Z"/>
      <glyph unicode="&#xba;" glyph-name="gid126" horiz-adv-x="486" d="M242,349q-57,0-100,23T74.5,436T50,531t24.5,95t68,63.5T243,712t100.5-22.5t68-63.5T436,531t-24.5-95T343,372T242,349Zm0,81q24,0 44,11.5t32,34T330,530q0,34-12,56.5t-31.5,34T242,632q-24,0-43.5-11.5t-31-34T156,530q0-32 11.5-54.5t31-34T242,430Z"/>
      <glyph unicode="&#xbb;" glyph-name="gid188" horiz-adv-x="514" d="M177,120H50l92,175L50,470H177l89-175L177,120Zm206,0H256l92,175L256,470H383l89-175L383,120Z"/>
      <glyph unicode="&#xbc;" glyph-name="gid147" horiz-adv-x="838" d="M93,352V607L23,591v64l115,49h59V352H93ZM133,0L526,700H658L264,0H133ZM679,0V61H514v68L668,348H779V131h37V61H779V0H679ZM616,131h71V238L616,131Z"/>
      <glyph unicode="&#xbd;" glyph-name="gid146" horiz-adv-x="873" d="M93,352V607L23,591v64l115,49h59V352H93ZM133,0L526,700H658L264,0H133ZM549,0V76l118,82q29,20 45,40.5T728,244q0,20-10.5,30.5T691,285q-19,0-29.5-12T648,240H546q3,52 42.5,86T700,360q46,0 76.5-15.5T822,304t15-53q0-39-26.5-67.5T728,123L659,81H836V0H549Z"/>
      <glyph unicode="&#xbe;" glyph-name="gid148" horiz-adv-x="925" d="M177,348q-76,0-114.5,31T20,463H125q2-15 8-24t16.5-13t22.5-4q21,0 33,10.5T217,463q0,21-14,32t-37,11H127v50h35q24,0 37.5,10.5T213,598q0,19-12,29t-33,10q-19,0-30.5-9.5T122,600H25q2,30 19,56t50.5,41T179,712q63,0 103-29.5T322,609q0-31-17.5-50.5T256,531v-2q33-10 52-30t19-52q0-44-40.5-71.5T177,348ZM220,0L613,700H745L351,0H220ZM766,0V61H601v68L755,348H866V131h37V61H866V0H766ZM703,131h71V238L703,131Z"/>
      <glyph unicode="&#xbf;" glyph-name="gid164" horiz-adv-x="538" d="M396,284l4-161H352q-38,0-71-4.5T223.5,102T185,67T171,9q0-30 13-52.5T220-78t54-12q33,0 56,12t35.5,34T378,8H506q1-60-27-107.5T398-174T272-201q-67,0-119.5,24.5T70-105T40,9q0,69 30,113.5t83,67T273,212l3,72H396ZM335,516q37,0 60.5-23T419,438q0-33-23.5-56T335,359q-36,0-59,23t-23,56q0,32 23,55t59,23Z"/>
      <glyph unicode="&#xc0;" glyph-name="gid6" horiz-adv-x="709" d="M22,0L278,700H431L686,0H543L354,546L164,0H22ZM135,159l36,105H527l35-105H135ZM459,743L237,855l15,103L472,832l-13-89Z"/>
      <glyph unicode="&#xc1;" glyph-name="gid2" horiz-adv-x="709" d="M22,0L278,700H431L686,0H543L354,546L164,0H22ZM135,159l36,105H527l35-105H135ZM249,743l-12,89L456,958l16-103L249,743Z"/>
      <glyph unicode="&#xc2;" glyph-name="gid4" horiz-adv-x="709" d="M22,0L278,700H431L686,0H543L354,546L164,0H22ZM135,159l36,105H527l35-105H135Zm72,586v97l148,79l147-79V745L355,828L207,745Z"/>
      <glyph unicode="&#xc3;" glyph-name="gid8" horiz-adv-x="709" d="M22,0L278,700H431L686,0H543L354,546L164,0H22ZM135,159l36,105H527l35-105H135ZM418,751q-29,0-49.5,11.5t-37.5,23T293,797q-16,0-27.5-11T250,752H179q11,67 42.5,97.5T299,880q29,0 49-11.5t37.5-23T424,834q17,0 28.5,11.5T467,879h71q-10-66-41.5-97T418,751Z"/>
      <glyph unicode="&#xc4;" glyph-name="gid5" horiz-adv-x="709" d="M22,0L278,700H431L686,0H543L354,546L164,0H22ZM135,159l36,105H527l35-105H135ZM262,767q-26,0-44.5,18.5T199,831t18.5,45.5T262,895q28,0 46.5-18.5T327,831t-18.5-45.5T262,767Zm184,0q-27,0-45.5,18.5T382,831t18.5,45.5T446,895t45.5-18.5T510,831t-18.5-45.5T446,767Z"/>
      <glyph unicode="&#xc5;" glyph-name="gid7" horiz-adv-x="709" d="M22,0L278,700H431L686,0H543L354,546L164,0H22ZM135,159l36,105H527l35-105H135ZM355,749q-47,0-81,30.5T240,863t34,83t81,30q48,0 82-30t34-83t-34-83.5T355,749Zm0,60q22,0 37,15t15,39q0,25-15,39t-37,14q-21,0-36-14t-15-39q0-24 15-39t36-15Z"/>
      <glyph unicode="&#xc6;" glyph-name="gid9" horiz-adv-x="945" d="M22,0L398,700H891V593H623V408H861V304H623V107H891V0H488V597L169,0H22ZM166,135l56,104H552V135H166Z"/>
      <glyph unicode="&#xc7;" glyph-name="gid12" horiz-adv-x="738" d="M383-12Q278-12 202.5,33.5t-116,127T46,349T86.5,538t116,128T383,712q127,0 208-63T692,471H545q-13,56-54.5,87.5T382,590q-62,0-106.5-29.5t-68.5-83T183,349q0-74 24-128t68.5-83T382,109q67,0 108,29.5T544,221H692Q672,112 591,50T383-12ZM280-267v77H395q25,0 38,8.5T446-155t-13,26t-38,8H333V4h84V-51q33,1 62.5-10t48-34.5T546-157q0-37-18.5-61.5t-48-36.5T415-267H280Z"/>
      <glyph unicode="&#xc8;" glyph-name="gid19" horiz-adv-x="583" d="M69,0V700H529V591H204V408H499V303H204V109H529V0H69ZM404,743L182,855l15,103L417,832l-13-89Z"/>
      <glyph unicode="&#xc9;" glyph-name="gid16" horiz-adv-x="583" d="M69,0V700H529V591H204V408H499V303H204V109H529V0H69ZM194,743l-12,89L401,958l16-103L194,743Z"/>
      <glyph unicode="&#xca;" glyph-name="gid17" horiz-adv-x="583" d="M69,0V700H529V591H204V408H499V303H204V109H529V0H69Zm83,745v97l148,79l147-79V745L300,828L152,745Z"/>
      <glyph unicode="&#xcb;" glyph-name="gid18" horiz-adv-x="583" d="M69,0V700H529V591H204V408H499V303H204V109H529V0H69ZM207,767q-26,0-44.5,18.5T144,831t18.5,45.5T207,895q28,0 46.5-18.5T272,831t-18.5-45.5T207,767Zm184,0q-27,0-45.5,18.5T327,831t18.5,45.5T391,895t45.5-18.5T455,831t-18.5-45.5T391,767Z"/>
      <glyph unicode="&#xcc;" glyph-name="gid27" horiz-adv-x="272" d="M69,0V700H204V0H69ZM241,743L19,855L34,958L254,832l-13-89Z"/>
      <glyph unicode="&#xcd;" glyph-name="gid24" horiz-adv-x="272" d="M69,0V700H204V0H69ZM31,743L19,832L238,958l16-103L31,743Z"/>
      <glyph unicode="&#xce;" glyph-name="gid25" horiz-adv-x="272" d="M69,0V700H204V0H69ZM-11,745v97l148,79l147-79V745L137,828L-11,745Z"/>
      <glyph unicode="&#xcf;" glyph-name="gid26" horiz-adv-x="272" d="M69,0V700H204V0H69ZM44,767q-26,0-44.5,18.5T-19,831t18.5,45.5T44,895q28,0 46.5-18.5T109,831T90.5,785.5T44,767Zm184,0q-27,0-45.5,18.5T164,831t18.5,45.5T228,895t45.5-18.5T292,831t-18.5-45.5T228,767Z"/>
      <glyph unicode="&#xd0;" glyph-name="gid14" horiz-adv-x="719" d="M6,293V408H387V293H6ZM80,0V700H315q122,0 201.5-43.5t118-122T673,350T634.5,165.5t-118-122T315,0H80ZM215,116h93q86,0 135.5,28T514,224.5T535,350q0,74-21,126.5T443.5,557T308,585H215V116Z"/>
      <glyph unicode="&#xd1;" glyph-name="gid34" horiz-adv-x="729" d="M69,0V700H204L526,217V700H661V0H526L204,482V0H69ZM428,751q-29,0-49.5,11.5t-37.5,23T303,797q-16,0-27.5-11T260,752H189q11,67 42.5,97.5T309,880q29,0 49-11.5t37.5-23T434,834q17,0 28.5,11.5T477,879h71q-10-66-41.5-97T428,751Z"/>
      <glyph unicode="&#xd2;" glyph-name="gid39" horiz-adv-x="784" d="M392-12Q290-12 212,34T90,161.5T46,350T90,538.5T212,666t180,46q103,0 181-46T694.5,538.5T738,350T694.5,161.5T573,34T392-12Zm0,121q64,0 110.5,29.5T575,222t26,128q0,75-26,128.5T502.5,561T392,590q-63,0-110-29t-73-82.5T183,350q0-74 26-128t73-83.5T392,109ZM497,743L275,855l15,103L510,832l-13-89Z"/>
      <glyph unicode="&#xd3;" glyph-name="gid36" horiz-adv-x="784" d="M392-12Q290-12 212,34T90,161.5T46,350T90,538.5T212,666t180,46q103,0 181-46T694.5,538.5T738,350T694.5,161.5T573,34T392-12Zm0,121q64,0 110.5,29.5T575,222t26,128q0,75-26,128.5T502.5,561T392,590q-63,0-110-29t-73-82.5T183,350q0-74 26-128t73-83.5T392,109ZM287,743l-12,89L494,958l16-103L287,743Z"/>
      <glyph unicode="&#xd4;" glyph-name="gid37" horiz-adv-x="784" d="M392-12Q290-12 212,34T90,161.5T46,350T90,538.5T212,666t180,46q103,0 181-46T694.5,538.5T738,350T694.5,161.5T573,34T392-12Zm0,121q64,0 110.5,29.5T575,222t26,128q0,75-26,128.5T502.5,561T392,590q-63,0-110-29t-73-82.5T183,350q0-74 26-128t73-83.5T392,109ZM245,745v97l148,79l147-79V745L393,828L245,745Z"/>
      <glyph unicode="&#xd5;" glyph-name="gid41" horiz-adv-x="784" d="M392-12Q290-12 212,34T90,161.5T46,350T90,538.5T212,666t180,46q103,0 181-46T694.5,538.5T738,350T694.5,161.5T573,34T392-12Zm0,121q64,0 110.5,29.5T575,222t26,128q0,75-26,128.5T502.5,561T392,590q-63,0-110-29t-73-82.5T183,350q0-74 26-128t73-83.5T392,109Zm64,642q-29,0-49.5,11.5t-37.5,23T331,797q-16,0-27.5-11T288,752H217q11,67 42.5,97.5T337,880q29,0 49-11.5t37.5-23T462,834q17,0 28.5,11.5T505,879h71q-10-66-41.5-97T456,751Z"/>
      <glyph unicode="&#xd6;" glyph-name="gid38" horiz-adv-x="784" d="M392-12Q290-12 212,34T90,161.5T46,350T90,538.5T212,666t180,46q103,0 181-46T694.5,538.5T738,350T694.5,161.5T573,34T392-12Zm0,121q64,0 110.5,29.5T575,222t26,128q0,75-26,128.5T502.5,561T392,590q-63,0-110-29t-73-82.5T183,350q0-74 26-128t73-83.5T392,109ZM300,767q-26,0-44.5,18.5T237,831t18.5,45.5T300,895q28,0 46.5-18.5T365,831t-18.5-45.5T300,767Zm184,0q-27,0-45.5,18.5T420,831t18.5,45.5T484,895t45.5-18.5T548,831t-18.5-45.5T484,767Z"/>
      <glyph unicode="&#xd7;" glyph-name="gid214" horiz-adv-x="579" d="M166,87L86,166L210,290L89,411l79,79L290,369L413,493l79-79L369,290L490,169L411,89L289,211L166,87Z"/>
      <glyph unicode="&#xd8;" glyph-name="gid40" horiz-adv-x="777" d="M26,0L625,700H752L154,0H26ZM391-12Q289-12 211,34T89,161.5T45,350T89,538.5T211,666t180,46q103,0 181.5-46t122-127.5T738,350T694.5,161.5T572.5,34T391-12Zm0,121q64,0 111,29.5T574.5,222T600,350q0,75-25.5,128.5T502,561T391,590q-63,0-110-29t-72.5-82.5T183,350q0-74 25.5-128T281,138.5T391,109Z"/>
      <glyph unicode="&#xd9;" glyph-name="gid53" horiz-adv-x="685" d="M340-12q-77,0-140,31T100,112T63,270V700H198V269q0-52 17-87.5T264.5,129T342,112q46,0 78.5,17T470,181.5T487,269V700H622V270q0-96-38-158T481.5,19T340-12ZM447,743L225,855l15,103L460,832l-13-89Z"/>
      <glyph unicode="&#xda;" glyph-name="gid50" horiz-adv-x="685" d="M340-12q-77,0-140,31T100,112T63,270V700H198V269q0-52 17-87.5T264.5,129T342,112q46,0 78.5,17T470,181.5T487,269V700H622V270q0-96-38-158T481.5,19T340-12ZM237,743l-12,89L444,958l16-103L237,743Z"/>
      <glyph unicode="&#xdb;" glyph-name="gid51" horiz-adv-x="685" d="M340-12q-77,0-140,31T100,112T63,270V700H198V269q0-52 17-87.5T264.5,129T342,112q46,0 78.5,17T470,181.5T487,269V700H622V270q0-96-38-158T481.5,19T340-12ZM195,745v97l148,79l147-79V745L343,828L195,745Z"/>
      <glyph unicode="&#xdc;" glyph-name="gid52" horiz-adv-x="685" d="M340-12q-77,0-140,31T100,112T63,270V700H198V269q0-52 17-87.5T264.5,129T342,112q46,0 78.5,17T470,181.5T487,269V700H622V270q0-96-38-158T481.5,19T340-12ZM250,767q-26,0-44.5,18.5T187,831t18.5,45.5T250,895q28,0 46.5-18.5T315,831t-18.5-45.5T250,767Zm184,0q-27,0-45.5,18.5T370,831t18.5,45.5T434,895t45.5-18.5T498,831t-18.5-45.5T434,767Z"/>
      <glyph unicode="&#xdd;" glyph-name="gid58" horiz-adv-x="635" d="M250,0V246L14,700H167L332,354H305L469,700H621L385,246V0H250ZM212,743l-12,89L419,958l16-103L212,743Z"/>
      <glyph unicode="&#xde;" glyph-name="gid44" horiz-adv-x="614" d="M69,0V700H204V566H332q84,0 140-28t83-77t27-112q0-57-26-106t-81.5-79T332,134H204V0H69ZM204,243H324q64,0 92.5,29T445,349q0,51-28.5,79T324,456H204V243Z"/>
      <glyph unicode="&#xdf;" glyph-name="gid109" horiz-adv-x="711" d="M475-10q-92,0-150,48.5T257,176H383q4-39 27.5-62.5T473,90q36,0 55.5,16.5T548,152t-18.5,47.5T458,236q-81,29-117,58.5T305,370q0,27 12.5,45.5t31,32.5t37,26.5t31,28.5T429,540q0,38-29,58.5T320,619q-61,0-90.5-33T200,495V0H67V506q0,67 30.5,118t89,79.5T326,732q75,0 128-23.5T535,645t28-89q0-31-12-52.5T520.5,467t-37-26.5t-31-23.5T440,391q0-12 8-22t29-20.5T540,323q75-27 107.5-65T680,161q0-50-25-89T584,11.5T475-10Z"/>
      <glyph unicode="&#xe0;" glyph-name="gid64" horiz-adv-x="586" d="M236-12Q173-12 132,8.5t-60.5,55T52,140q0,46 23.5,81t71,55T266,296H391q0,37-10,61.5T350,394t-56,12q-38,0-64.5-16.5T197,339H66q5,54 35.5,93.5t81,61.5T295,516q71,0 123-24t80-69t28-111V0H412L397,77q-11-20-26-36T336,13T291-5.5T236-12ZM268,92q26,0 46.5,9.5t35.5,26t23.5,38T385,212v1H282q-31,0-50.5-7.5T203,184t-9-32q0-20 9-33t26-20t39-7ZM394,547L172,658l15,103L407,636l-13-89Z"/>
      <glyph unicode="&#xe1;" glyph-name="gid61" horiz-adv-x="586" d="M236-12Q173-12 132,8.5t-60.5,55T52,140q0,46 23.5,81t71,55T266,296H391q0,37-10,61.5T350,394t-56,12q-38,0-64.5-16.5T197,339H66q5,54 35.5,93.5t81,61.5T295,516q71,0 123-24t80-69t28-111V0H412L397,77q-11-20-26-36T336,13T291-5.5T236-12ZM268,92q26,0 46.5,9.5t35.5,26t23.5,38T385,212v1H282q-31,0-50.5-7.5T203,184t-9-32q0-20 9-33t26-20t39-7ZM184,547l-12,89L391,761l16-103L184,547Z"/>
      <glyph unicode="&#xe2;" glyph-name="gid62" horiz-adv-x="586" d="M236-12Q173-12 132,8.5t-60.5,55T52,140q0,46 23.5,81t71,55T266,296H391q0,37-10,61.5T350,394t-56,12q-38,0-64.5-16.5T197,339H66q5,54 35.5,93.5t81,61.5T295,516q71,0 123-24t80-69t28-111V0H412L397,77q-11-20-26-36T336,13T291-5.5T236-12ZM268,92q26,0 46.5,9.5t35.5,26t23.5,38T385,212v1H282q-31,0-50.5-7.5T203,184t-9-32q0-20 9-33t26-20t39-7ZM142,550v96l148,80l147-80V550L290,632L142,550Z"/>
      <glyph unicode="&#xe3;" glyph-name="gid66" horiz-adv-x="586" d="M236-12Q173-12 132,8.5t-60.5,55T52,140q0,46 23.5,81t71,55T266,296H391q0,37-10,61.5T350,394t-56,12q-38,0-64.5-16.5T197,339H66q5,54 35.5,93.5t81,61.5T295,516q71,0 123-24t80-69t28-111V0H412L397,77q-11-20-26-36T336,13T291-5.5T236-12ZM268,92q26,0 46.5,9.5t35.5,26t23.5,38T385,212v1H282q-31,0-50.5-7.5T203,184t-9-32q0-20 9-33t26-20t39-7Zm80,478q-29,0-49.5,11T261,603.5T223,615q-16,0-27.5-11T180,570H109q11,67 42.5,98T229,699q29,0 49-11.5t37.5-23T354,653q17,0 28.5,11T397,698h71q-10-67-41.5-97.5T348,570Z"/>
      <glyph unicode="&#xe4;" glyph-name="gid63" horiz-adv-x="586" d="M236-12Q173-12 132,8.5t-60.5,55T52,140q0,46 23.5,81t71,55T266,296H391q0,37-10,61.5T350,394t-56,12q-38,0-64.5-16.5T197,339H66q5,54 35.5,93.5t81,61.5T295,516q71,0 123-24t80-69t28-111V0H412L397,77q-11-20-26-36T336,13T291-5.5T236-12ZM268,92q26,0 46.5,9.5t35.5,26t23.5,38T385,212v1H282q-31,0-50.5-7.5T203,184t-9-32q0-20 9-33t26-20t39-7ZM197,570q-26,0-44.5,18T134,633t18.5,45.5T197,697q28,0 46.5-18.5T262,633t-18.5-45T197,570Zm184,0q-27,0-45.5,18T317,633t18.5,45.5T381,697t45.5-18.5T445,633t-18.5-45T381,570Z"/>
      <glyph unicode="&#xe5;" glyph-name="gid65" horiz-adv-x="586" d="M236-12Q173-12 132,8.5t-60.5,55T52,140q0,46 23.5,81t71,55T266,296H391q0,37-10,61.5T350,394t-56,12q-38,0-64.5-16.5T197,339H66q5,54 35.5,93.5t81,61.5T295,516q71,0 123-24t80-69t28-111V0H412L397,77q-11-20-26-36T336,13T291-5.5T236-12ZM268,92q26,0 46.5,9.5t35.5,26t23.5,38T385,212v1H282q-31,0-50.5-7.5T203,184t-9-32q0-20 9-33t26-20t39-7Zm21,478q-47,0-81,30t-34,83t34,83.5T289,797q48,0 82-30.5T405,683t-34-83t-82-30Zm0,60q22,0 37,14.5T341,683q0,25-15,39t-37,14q-21,0-36-14t-15-39q0-24 15-38.5T289,630Z"/>
      <glyph unicode="&#xe6;" glyph-name="gid67" horiz-adv-x="944" d="M246-12Q182-12 138.5,8.5T73.5,64T52,141q0,46 22.5,82t70,56T263,299H394q0,36-10,59.5T353,394t-54,12q-35,0-61.5-16.5T205,341H74q5,53 35,92t79.5,61T299,516q59,0 104.5-18T478,447q32,32 77,50.5T652,516q74,0 129.5-33t87-89T900,265q0-10-0.5-22T897,218H531q3-38 19-64.5t42.5-41T650,98q41,0 66,19t38,48H889q-13-49-46-89.5t-81.5-64T652-12q-65,0-118,26.5T447,87q-20-30-49.5-52t-67-34.5T246-12ZM267,92q32,0 57.5,16t42,42.5T388,210v6H281q-30,0-49.5-7.5T203,187t-9-32q0-20 9-33.5T228.5,100T267,92ZM534,300H763q-3,50-34,78t-76,28q-29,0-54-12t-42-35t-23-59Z"/>
      <glyph unicode="&#xe7;" glyph-name="gid70" horiz-adv-x="607" d="M310-12q-76,0-135,34T83,115T50,250q0,78 33,137.5t92,94T310,516q97,0 163-51t84-140H414q-9,35-37.5,55T309,400q-35,0-62.5-17.5t-43-51T188,252q0-35 9-62.5t25-47T260.5,113T309,103t47.5,9T393,137.5T414,178H557Q539,91 472.5,39.5T310-12ZM215-267v77H330q25,0 38,8.5T381-155t-13,26t-38,8H268V4h84V-51q33,1 62.5-10t48-34.5T481-157q0-37-18.5-61.5t-48-36.5T350-267H215Z"/>
      <glyph unicode="&#xe8;" glyph-name="gid77" horiz-adv-x="602" d="M308-12q-76,0-134.5,32.5t-91,91T50,247q0,79 32.5,139.5t90.5,95T308,516q75,0 131-33t87-89t31-127q0-10 0-22.5T555,219H146v82H421q-3,49-34.5,77T308,406q-34,0-63-15.5T199.5,343T183,262V233q0-41 15.5-71.5t43.5-47T307,98t61.5,16T405,155H543q-14-47-47-85T415,10T308-12ZM410,547L188,658l15,103L423,636l-13-89Z"/>
      <glyph unicode="&#xe9;" glyph-name="gid74" horiz-adv-x="602" d="M308-12q-76,0-134.5,32.5t-91,91T50,247q0,79 32.5,139.5t90.5,95T308,516q75,0 131-33t87-89t31-127q0-10 0-22.5T555,219H146v82H421q-3,49-34.5,77T308,406q-34,0-63-15.5T199.5,343T183,262V233q0-41 15.5-71.5t43.5-47T307,98t61.5,16T405,155H543q-14-47-47-85T415,10T308-12ZM200,547l-12,89L407,761l16-103L200,547Z"/>
      <glyph unicode="&#xea;" glyph-name="gid75" horiz-adv-x="602" d="M308-12q-76,0-134.5,32.5t-91,91T50,247q0,79 32.5,139.5t90.5,95T308,516q75,0 131-33t87-89t31-127q0-10 0-22.5T555,219H146v82H421q-3,49-34.5,77T308,406q-34,0-63-15.5T199.5,343T183,262V233q0-41 15.5-71.5t43.5-47T307,98t61.5,16T405,155H543q-14-47-47-85T415,10T308-12ZM158,550v96l148,80l147-80V550L306,632L158,550Z"/>
      <glyph unicode="&#xeb;" glyph-name="gid76" horiz-adv-x="602" d="M308-12q-76,0-134.5,32.5t-91,91T50,247q0,79 32.5,139.5t90.5,95T308,516q75,0 131-33t87-89t31-127q0-10 0-22.5T555,219H146v82H421q-3,49-34.5,77T308,406q-34,0-63-15.5T199.5,343T183,262V233q0-41 15.5-71.5t43.5-47T307,98t61.5,16T405,155H543q-14-47-47-85T415,10T308-12ZM213,570q-26,0-44.5,18T150,633t18.5,45.5T213,697q28,0 46.5-18.5T278,633t-18.5-45T213,570Zm184,0q-27,0-45.5,18T333,633t18.5,45.5T397,697t45.5-18.5T461,633t-18.5-45T397,570Z"/>
      <glyph unicode="&#xec;" glyph-name="gid87" horiz-adv-x="267" d="M66,0V504H201V0H66ZM238,547L16,658L31,761L251,636l-13-89Z"/>
      <glyph unicode="&#xed;" glyph-name="gid83" horiz-adv-x="267" d="M66,0V504H201V0H66ZM28,547L16,636L235,761l16-103L28,547Z"/>
      <glyph unicode="&#xee;" glyph-name="gid84" horiz-adv-x="267" d="M66,0V504H201V0H66ZM-14,550v96l148,80l147-80V550L134,632L-14,550Z"/>
      <glyph unicode="&#xef;" glyph-name="gid85" horiz-adv-x="267" d="M66,0V504H201V0H66ZM41,570q-26,0-44.5,18T-22,633t18.5,45.5T41,697q28,0 46.5-18.5T106,633T87.5,588T41,570Zm184,0q-27,0-45.5,18T161,633t18.5,45.5T225,697t45.5-18.5T289,633t-18.5-45T225,570Z"/>
      <glyph unicode="&#xf0;" glyph-name="gid72" horiz-adv-x="640" d="M317-12q-78,0-138.5,34T84,114.5T50,247q0,75 33.5,133T175,471t134,33q38,0 71.5-10T442,462q-13,32-31,64.5t-40,63t-47.5,58T269,700H396q51-44 88-95.5t60.5-106t34.5-108T590,287q0-92-36-159.5T456.5,24T317-12Zm3,115q36,0 66,17.5T434,170t18,77q0,44-18,76t-48,49.5T320,390t-66-17.5T206,323t-18-76q0-45 18-77t48-49.5T320,103ZM255,535v80l293,94V629L255,535Z"/>
      <glyph unicode="&#xf1;" glyph-name="gid95" horiz-adv-x="617" d="M66,0V504H185l10-82q23,42 65.5,68T362,516q63,0 106-26t65.5-76T556,291V0H422V278q0,60-25.5,92T318,402q-34,0-60.5-16T216,340.5T201,269V0H66ZM391,570q-29,0-49.5,11T304,603.5T266,615q-16,0-27.5-11T223,570H152q11,67 42.5,98T272,699q29,0 49-11.5t37.5-23T397,653q17,0 28.5,11T440,698h71q-10-67-41.5-97.5T391,570Z"/>
      <glyph unicode="&#xf2;" glyph-name="gid100" horiz-adv-x="610" d="M304-12q-72,0-129.5,33.5t-91,93T50,251q0,79 33.5,138.5t91.5,93T305,516q73,0 130.5-33.5t91-93T560,252T526.5,114.5T435,21.5T304-12Zm0,117q34,0 60.5,16t42,49T422,252t-15.5,81.5t-42,49T305,399q-32,0-59-16.5t-42.5-49T188,252t15.5-82t42-49T304,105ZM410,547L188,658l15,103L423,636l-13-89Z"/>
      <glyph unicode="&#xf3;" glyph-name="gid97" horiz-adv-x="610" d="M304-12q-72,0-129.5,33.5t-91,93T50,251q0,79 33.5,138.5t91.5,93T305,516q73,0 130.5-33.5t91-93T560,252T526.5,114.5T435,21.5T304-12Zm0,117q34,0 60.5,16t42,49T422,252t-15.5,81.5t-42,49T305,399q-32,0-59-16.5t-42.5-49T188,252t15.5-82t42-49T304,105ZM200,547l-12,89L407,761l16-103L200,547Z"/>
      <glyph unicode="&#xf4;" glyph-name="gid98" horiz-adv-x="610" d="M304-12q-72,0-129.5,33.5t-91,93T50,251q0,79 33.5,138.5t91.5,93T305,516q73,0 130.5-33.5t91-93T560,252T526.5,114.5T435,21.5T304-12Zm0,117q34,0 60.5,16t42,49T422,252t-15.5,81.5t-42,49T305,399q-32,0-59-16.5t-42.5-49T188,252t15.5-82t42-49T304,105ZM158,550v96l148,80l147-80V550L306,632L158,550Z"/>
      <glyph unicode="&#xf5;" glyph-name="gid102" horiz-adv-x="610" d="M304-12q-72,0-129.5,33.5t-91,93T50,251q0,79 33.5,138.5t91.5,93T305,516q73,0 130.5-33.5t91-93T560,252T526.5,114.5T435,21.5T304-12Zm0,117q34,0 60.5,16t42,49T422,252t-15.5,81.5t-42,49T305,399q-32,0-59-16.5t-42.5-49T188,252t15.5-82t42-49T304,105Zm61,465q-29,0-49.5,11T278,603.5T240,615q-16,0-27.5-11T197,570H126q11,67 42.5,98T246,699q29,0 49-11.5t37.5-23T371,653q17,0 28.5,11T414,698h71q-10-67-41.5-97.5T365,570Z"/>
      <glyph unicode="&#xf6;" glyph-name="gid99" horiz-adv-x="610" d="M304-12q-72,0-129.5,33.5t-91,93T50,251q0,79 33.5,138.5t91.5,93T305,516q73,0 130.5-33.5t91-93T560,252T526.5,114.5T435,21.5T304-12Zm0,117q34,0 60.5,16t42,49T422,252t-15.5,81.5t-42,49T305,399q-32,0-59-16.5t-42.5-49T188,252t15.5-82t42-49T304,105ZM213,570q-26,0-44.5,18T150,633t18.5,45.5T213,697q28,0 46.5-18.5T278,633t-18.5-45T213,570Zm184,0q-27,0-45.5,18T333,633t18.5,45.5T397,697t45.5-18.5T461,633t-18.5-45T397,570Z"/>
      <glyph unicode="&#xf7;" glyph-name="gid215" horiz-adv-x="579" d="M72,233V346H507V233H72ZM291,31q-38,0-61,22.5T207,108q0,34 23,56.5T291,187q36,0 59-22.5T373,108q0-32-23-54.5T291,31Zm0,365q-38,0-61,22.5T207,474t23,55.5T291,552q36,0 59-22.5T373,474t-23-55.5T291,396Z"/>
      <glyph unicode="&#xf8;" glyph-name="gid101" horiz-adv-x="594" d="M28,0L462,504H566L133,0H28ZM296-12q-72,0-130,33.5t-91,93T42,251q0,79 33.5,138.5t91.5,93T297,516q73,0 130.5-33.5t91-93T552,252T518.5,114.5T427,21.5T296-12Zm1,117q33,0 59.5,16t42,49T414,252t-15.5,81.5t-42,49T297,399q-32,0-59-16.5t-43-49T179,252t16-82t42.5-49T297,105Z"/>
      <glyph unicode="&#xf9;" glyph-name="gid115" horiz-adv-x="616" d="M254-12q-61,0-104.5,25.5T83,88.5T60,211V504H195V225q0-61 25.5-92T299,102q34,0 60,15.5t41.5,45T416,235V504H550V0H432L421,82q-22-43-65-68.5T254-12ZM408,547L186,658l15,103L421,636l-13-89Z"/>
      <glyph unicode="&#xfa;" glyph-name="gid112" horiz-adv-x="616" d="M254-12q-61,0-104.5,25.5T83,88.5T60,211V504H195V225q0-61 25.5-92T299,102q34,0 60,15.5t41.5,45T416,235V504H550V0H432L421,82q-22-43-65-68.5T254-12ZM198,547l-12,89L405,761l16-103L198,547Z"/>
      <glyph unicode="&#xfb;" glyph-name="gid113" horiz-adv-x="616" d="M254-12q-61,0-104.5,25.5T83,88.5T60,211V504H195V225q0-61 25.5-92T299,102q34,0 60,15.5t41.5,45T416,235V504H550V0H432L421,82q-22-43-65-68.5T254-12ZM156,550v96l148,80l147-80V550L304,632L156,550Z"/>
      <glyph unicode="&#xfc;" glyph-name="gid114" horiz-adv-x="616" d="M254-12q-61,0-104.5,25.5T83,88.5T60,211V504H195V225q0-61 25.5-92T299,102q34,0 60,15.5t41.5,45T416,235V504H550V0H432L421,82q-22-43-65-68.5T254-12ZM212,570q-26,0-44.5,18T149,633t18.5,45.5T212,697q28,0 46.5-18.5T277,633t-18.5-45T212,570Zm184,0q-27,0-45.5,18T332,633t18.5,45.5T396,697t45.5-18.5T460,633t-18.5-45T396,570Z"/>
      <glyph unicode="&#xfd;" glyph-name="gid120" horiz-adv-x="604" d="M130-220L252,56H222L20,504H167L311,179L441,504H584L273-220H130Zm67,767l-12,89L404,761l16-103L197,547Z"/>
      <glyph unicode="&#xfe;" glyph-name="gid105" horiz-adv-x="655" d="M66-220V720H201V434q16,22 38,40.5t52.5,30T363,516q71,0 125-34.5T573.5,387T605,251T573,115.5T487,22T364-12q-56,0-96.5,20.5T201,65V-220H66ZM332,106q40,0 70.5,18T450,175t17,76t-17,76.5t-47.5,52T332,398q-39,0-69.5-18.5t-48-51.5T197,252t17.5-76.5t48-51.5T332,106Z"/>
      <glyph unicode="&#xff;" glyph-name="gid121" horiz-adv-x="604" d="M130-220L252,56H222L20,504H167L311,179L441,504H584L273-220H130Zm80,790q-26,0-44.5,18T147,633t18.5,45.5T210,697q28,0 46.5-18.5T275,633t-18.5-45T210,570Zm184,0q-27,0-45.5,18T330,633t18.5,45.5T394,697t45.5-18.5T458,633t-18.5-45T394,570Z"/>
      <glyph unicode="&#x2013;" glyph-name="gid172" horiz-adv-x="696" d="M77,238V351H619V238H77Z"/>
      <glyph unicode="&#x2014;" glyph-name="gid173" horiz-adv-x="918" d="M77,238V351H841V238H77Z"/>
      <glyph unicode="&#x2018;" glyph-name="gid185" horiz-adv-x="255" d="M30,444L133,700h92L171,444H30Z"/>
      <glyph unicode="&#x2019;" glyph-name="gid186" horiz-adv-x="255" d="M225,700L122,444H30L84,700H225Z"/>
      <glyph unicode="&#x201a;" glyph-name="gid181" horiz-adv-x="255" d="M22-111L76,142H218L114-111H22Z"/>
      <glyph unicode="&#x201c;" glyph-name="gid183" horiz-adv-x="453" d="M228,444L332,700h91L369,444H228ZM30,444L133,700h92L171,444H30Z"/>
      <glyph unicode="&#x201d;" glyph-name="gid184" horiz-adv-x="453" d="M225,700L122,444H30L84,700H225Zm198,0L320,444H228l54,256H423Z"/>
      <glyph unicode="&#x201e;" glyph-name="gid182" horiz-adv-x="454" d="M22-111L76,142H218L114-111H22Zm201,0l54,253H418L315-111H223Z"/>
      <glyph unicode="&#x2022;" glyph-name="gid166" horiz-adv-x="387" d="M193,195q-38,0-69,18.5t-49.5,50T56,333q0,39 18.5,70.5t49.5,50T193,472q39,0 70.5-18.5t50-50T332,333q0-38-18.5-69.5t-50-50T193,195Z"/>
      <glyph unicode="&#x2039;" glyph-name="gid189" horiz-adv-x="311" d="M133,120L43,295l90,175H259L167,295l92-175H133Z"/>
      <glyph unicode="&#x203a;" glyph-name="gid190" horiz-adv-x="311" d="M179,120H52l92,175L52,470H179l89-175L179,120Z"/>
    </font>
</defs>
</svg>
